G04 (created by PCBNEW (2013-07-07 BZR 4022)-stable) date 23/05/2015 20:04:57*
%MOIN*%
G04 Gerber Fmt 3.4, Leading zero omitted, Abs format*
%FSLAX34Y34*%
G01*
G70*
G90*
G04 APERTURE LIST*
%ADD10C,0.00590551*%
%ADD11R,0.144X0.08*%
%ADD12R,0.04X0.08*%
%ADD13R,0.0610236X0.023622*%
%ADD14R,0.06X0.08*%
%ADD15R,0.08X0.06*%
%ADD16R,0.035X0.055*%
%ADD17R,0.055X0.035*%
%ADD18R,0.025X0.045*%
%ADD19R,0.045X0.025*%
%ADD20R,0.0511811X0.0748031*%
%ADD21R,0.06X0.06*%
%ADD22C,0.06*%
%ADD23R,0.011811X0.06*%
%ADD24O,0.011811X0.06*%
%ADD25O,0.06X0.011811*%
%ADD26R,0.0472X0.0472*%
%ADD27C,0.056*%
%ADD28R,0.0393701X0.125984*%
%ADD29R,0.0866X0.063*%
%ADD30C,0.15*%
%ADD31C,0.023622*%
%ADD32C,0.0314961*%
%ADD33C,0.0433071*%
%ADD34C,0.011811*%
%ADD35C,0.015748*%
%ADD36C,0.0275591*%
%ADD37C,0.0393701*%
%ADD38C,0.019685*%
%ADD39C,0.00866142*%
G04 APERTURE END LIST*
G54D10*
G54D11*
X54265Y-48470D03*
G54D12*
X54265Y-45870D03*
X53365Y-45870D03*
X55165Y-45870D03*
G54D13*
X61227Y-43385D03*
X61227Y-42885D03*
X61227Y-42385D03*
X61227Y-43885D03*
X63352Y-42385D03*
X63352Y-42885D03*
X63352Y-43385D03*
X63352Y-43885D03*
X61227Y-45635D03*
X61227Y-45135D03*
X61227Y-44635D03*
X61227Y-46135D03*
X63352Y-44635D03*
X63352Y-45135D03*
X63352Y-45635D03*
X63352Y-46135D03*
G54D14*
X61380Y-34785D03*
X62680Y-34785D03*
G54D15*
X64660Y-44180D03*
X64660Y-45480D03*
G54D16*
X65835Y-34895D03*
X66585Y-34895D03*
G54D17*
X64780Y-47695D03*
X64780Y-48445D03*
X57460Y-46615D03*
X57460Y-47365D03*
X55000Y-34900D03*
X55000Y-34150D03*
G54D18*
X60760Y-36475D03*
X60160Y-36475D03*
G54D19*
X64690Y-46300D03*
X64690Y-46900D03*
G54D18*
X63600Y-34785D03*
X64200Y-34785D03*
G54D19*
X52425Y-35150D03*
X52425Y-34550D03*
G54D18*
X57600Y-34875D03*
X58200Y-34875D03*
X56820Y-34850D03*
X56220Y-34850D03*
X58270Y-37910D03*
X57670Y-37910D03*
X56230Y-37890D03*
X56830Y-37890D03*
G54D19*
X61135Y-40600D03*
X61135Y-40000D03*
G54D18*
X63150Y-38590D03*
X62550Y-38590D03*
X63145Y-35970D03*
X62545Y-35970D03*
X60715Y-37930D03*
X60115Y-37930D03*
G54D20*
X61717Y-36565D03*
X61717Y-37824D03*
X63882Y-36565D03*
X63882Y-37824D03*
G54D21*
X51460Y-44510D03*
G54D22*
X51460Y-43510D03*
X51460Y-42510D03*
X51460Y-41510D03*
X51460Y-40510D03*
X51460Y-39510D03*
G54D23*
X59096Y-39279D03*
G54D24*
X58899Y-39279D03*
X58702Y-39279D03*
X58505Y-39279D03*
X58308Y-39279D03*
X58112Y-39279D03*
X57915Y-39279D03*
X57718Y-39279D03*
X57521Y-39279D03*
X57324Y-39279D03*
X57127Y-39279D03*
X56931Y-39279D03*
X56734Y-39279D03*
X56537Y-39279D03*
X56340Y-39279D03*
X56143Y-39279D03*
G54D25*
X55245Y-40114D03*
X55245Y-40311D03*
X55245Y-40508D03*
X55245Y-40705D03*
X55245Y-40902D03*
X55245Y-41098D03*
X55245Y-41295D03*
X55245Y-41492D03*
X55245Y-41689D03*
X55245Y-41886D03*
X55245Y-42083D03*
X55245Y-42279D03*
X55245Y-42476D03*
X55245Y-42673D03*
X55245Y-42870D03*
X55245Y-43067D03*
G54D24*
X56143Y-43965D03*
X56340Y-43965D03*
X56537Y-43965D03*
X56734Y-43965D03*
X56931Y-43965D03*
X57127Y-43965D03*
X57324Y-43965D03*
X57521Y-43965D03*
X57718Y-43965D03*
X57915Y-43965D03*
X58112Y-43965D03*
X58308Y-43965D03*
X58505Y-43965D03*
X58702Y-43965D03*
X58899Y-43965D03*
X59096Y-43965D03*
G54D25*
X59931Y-43067D03*
X59931Y-42870D03*
X59931Y-42476D03*
X59938Y-42673D03*
X59931Y-42279D03*
X59931Y-42083D03*
X59931Y-41886D03*
X59931Y-41689D03*
X59931Y-41492D03*
X59931Y-41295D03*
X59931Y-41101D03*
X59931Y-40904D03*
X59931Y-40707D03*
X59931Y-40510D03*
X59931Y-40314D03*
X59931Y-40117D03*
G54D26*
X67337Y-34880D03*
X68163Y-34880D03*
X64790Y-49187D03*
X64790Y-50013D03*
X57460Y-48097D03*
X57460Y-48923D03*
X53960Y-34117D03*
X53960Y-34943D03*
G54D27*
X56230Y-36410D03*
X58230Y-36410D03*
G54D28*
X51357Y-35116D03*
X51357Y-37793D03*
X49782Y-37793D03*
X49782Y-35116D03*
G54D29*
X51745Y-47348D03*
X51745Y-45852D03*
G54D30*
X67290Y-32445D03*
X57290Y-32445D03*
G54D21*
X64440Y-33445D03*
G54D22*
X63340Y-33445D03*
X62240Y-33445D03*
X61190Y-33445D03*
X60090Y-33445D03*
X60640Y-32445D03*
X61740Y-32445D03*
X62790Y-32445D03*
X63890Y-32445D03*
G54D30*
X67080Y-49020D03*
X67080Y-39020D03*
G54D21*
X66080Y-46170D03*
G54D22*
X66080Y-45070D03*
X66080Y-43970D03*
X66080Y-42920D03*
X66080Y-41820D03*
X67080Y-42370D03*
X67080Y-43470D03*
X67080Y-44520D03*
X67080Y-45620D03*
G54D21*
X54919Y-31180D03*
G54D22*
X53919Y-31180D03*
X52919Y-31180D03*
X51919Y-31180D03*
X50919Y-31180D03*
X49920Y-31180D03*
G54D21*
X63519Y-50180D03*
G54D22*
X62519Y-50180D03*
X61519Y-50180D03*
X60519Y-50180D03*
X59519Y-50180D03*
X58519Y-50180D03*
X56519Y-50180D03*
X54519Y-50180D03*
X53519Y-50180D03*
X52519Y-50180D03*
X51519Y-50180D03*
X55519Y-50180D03*
X58519Y-49180D03*
X59519Y-49180D03*
X60519Y-49180D03*
X61519Y-49180D03*
X62519Y-49180D03*
X63519Y-49180D03*
G54D31*
X61815Y-40690D03*
X55890Y-40830D03*
X54630Y-43050D03*
X59790Y-43970D03*
G54D32*
X62145Y-43180D03*
X60565Y-45650D03*
G54D31*
X60580Y-39675D03*
G54D33*
X54440Y-44820D03*
G54D31*
X60305Y-46425D03*
X58090Y-41635D03*
X60815Y-46770D03*
X57295Y-41645D03*
X56605Y-47125D03*
X54350Y-44180D03*
X53865Y-43065D03*
X56860Y-46890D03*
X63115Y-48150D03*
X54640Y-44045D03*
X54230Y-43005D03*
X61360Y-47110D03*
X56610Y-41690D03*
X56270Y-42050D03*
X62000Y-47505D03*
X60560Y-46600D03*
X57625Y-41630D03*
X61070Y-46950D03*
X56920Y-41660D03*
X56565Y-41990D03*
X61685Y-47295D03*
X56340Y-47340D03*
X53950Y-44175D03*
X53500Y-42720D03*
X54585Y-42300D03*
X57635Y-45390D03*
X53805Y-45155D03*
X52085Y-42625D03*
X52880Y-40490D03*
X54370Y-36030D03*
X54360Y-38780D03*
X58080Y-46565D03*
X57975Y-45445D03*
X58360Y-45435D03*
X63135Y-47735D03*
X65850Y-35600D03*
X64815Y-39160D03*
X54300Y-41920D03*
X52820Y-40190D03*
X63720Y-41165D03*
X63380Y-41010D03*
X53550Y-41165D03*
X53855Y-41365D03*
X54140Y-40635D03*
X53225Y-40900D03*
X53185Y-43500D03*
X59400Y-39400D03*
X56800Y-38595D03*
X55910Y-46000D03*
X59195Y-42410D03*
X57100Y-38710D03*
X62890Y-46880D03*
X61905Y-46820D03*
X62315Y-45420D03*
X52390Y-44130D03*
X62515Y-49685D03*
X63525Y-49670D03*
X60535Y-49680D03*
X59530Y-49680D03*
X61510Y-49680D03*
X58510Y-49680D03*
X62700Y-43160D03*
X64760Y-43270D03*
X65170Y-42810D03*
X63755Y-41920D03*
X62880Y-41880D03*
X62715Y-40640D03*
X64005Y-40665D03*
X56595Y-42800D03*
X58480Y-42785D03*
X58970Y-43310D03*
X58370Y-47610D03*
X55950Y-38630D03*
X54925Y-39615D03*
X67060Y-36700D03*
X64610Y-37590D03*
X60680Y-37220D03*
X63170Y-36760D03*
X60530Y-35760D03*
X59440Y-35540D03*
X57355Y-34220D03*
X59250Y-34240D03*
X58560Y-41055D03*
X60030Y-39510D03*
X60050Y-38660D03*
X61640Y-39120D03*
X62780Y-39570D03*
X64010Y-38830D03*
X67045Y-46930D03*
X65780Y-48050D03*
X65720Y-49740D03*
X67030Y-50150D03*
X68345Y-49215D03*
X68345Y-46750D03*
X68350Y-44090D03*
X68345Y-41980D03*
X68275Y-39880D03*
X68245Y-37960D03*
X68140Y-36235D03*
X65175Y-34360D03*
X53275Y-32140D03*
X54160Y-32105D03*
X53270Y-36570D03*
X65460Y-32490D03*
X65870Y-33860D03*
X67980Y-33800D03*
X68440Y-32930D03*
X68260Y-31600D03*
X66770Y-31310D03*
X64880Y-31340D03*
X62970Y-31410D03*
X61190Y-31470D03*
X58830Y-31270D03*
X56140Y-31620D03*
X55780Y-33220D03*
X54780Y-33380D03*
X55420Y-31960D03*
X50515Y-34825D03*
X50485Y-36475D03*
X50470Y-38790D03*
X52410Y-36660D03*
X52790Y-43010D03*
X52020Y-40895D03*
X53355Y-41735D03*
X54375Y-42610D03*
X55855Y-41815D03*
X57255Y-44830D03*
X53600Y-46870D03*
X52700Y-47600D03*
X54020Y-49950D03*
X55035Y-49950D03*
X56025Y-49935D03*
X57460Y-50120D03*
X55690Y-49160D03*
X56000Y-48320D03*
X56550Y-48820D03*
X51105Y-49675D03*
X52025Y-49810D03*
X53015Y-50045D03*
X52425Y-33185D03*
X50390Y-33260D03*
X51420Y-33270D03*
X50410Y-31580D03*
X51430Y-31610D03*
X49400Y-32870D03*
X49400Y-31590D03*
X52430Y-31530D03*
G54D33*
X52755Y-45285D03*
G54D34*
X61214Y-40904D02*
X61601Y-40904D01*
X61214Y-40904D02*
X59931Y-40904D01*
X61601Y-40904D02*
X61815Y-40690D01*
X55245Y-40508D02*
X55623Y-40508D01*
X55890Y-40775D02*
X55890Y-40830D01*
X55623Y-40508D02*
X55890Y-40775D01*
X54647Y-43067D02*
X54630Y-43050D01*
X55245Y-43067D02*
X54647Y-43067D01*
X59096Y-43965D02*
X59096Y-44376D01*
X59096Y-44376D02*
X59200Y-44480D01*
X59200Y-44480D02*
X59405Y-44480D01*
X59405Y-44480D02*
X59790Y-44095D01*
X59790Y-44095D02*
X59790Y-43970D01*
G54D35*
X61227Y-43385D02*
X61940Y-43385D01*
X61940Y-43385D02*
X62145Y-43180D01*
X60580Y-45635D02*
X61227Y-45635D01*
X60565Y-45650D02*
X60580Y-45635D01*
G54D34*
X60580Y-39870D02*
X61005Y-39870D01*
X61005Y-39870D02*
X61135Y-40000D01*
X59931Y-40117D02*
X60343Y-40117D01*
X60580Y-39880D02*
X60580Y-39870D01*
X60580Y-39870D02*
X60580Y-39675D01*
X60343Y-40117D02*
X60580Y-39880D01*
G54D36*
X54265Y-45870D02*
X54265Y-44995D01*
X54265Y-44995D02*
X54440Y-44820D01*
G54D34*
X58308Y-43965D02*
X58308Y-44798D01*
X60655Y-43885D02*
X61227Y-43885D01*
X59525Y-45015D02*
X60655Y-43885D01*
X58525Y-45015D02*
X59525Y-45015D01*
X58308Y-44798D02*
X58525Y-45015D01*
X58505Y-43965D02*
X58505Y-44685D01*
X60800Y-42385D02*
X61227Y-42385D01*
X60670Y-42515D02*
X60800Y-42385D01*
X60670Y-43570D02*
X60670Y-42515D01*
X59435Y-44805D02*
X60670Y-43570D01*
X58625Y-44805D02*
X59435Y-44805D01*
X58505Y-44685D02*
X58625Y-44805D01*
X58130Y-46135D02*
X57705Y-46135D01*
X61227Y-46135D02*
X58130Y-46135D01*
X56143Y-44573D02*
X57700Y-46130D01*
X56143Y-44573D02*
X56143Y-43965D01*
X57705Y-46135D02*
X57700Y-46130D01*
X56340Y-43965D02*
X56340Y-44480D01*
X60735Y-44635D02*
X61227Y-44635D01*
X59680Y-45690D02*
X60735Y-44635D01*
X57550Y-45690D02*
X59680Y-45690D01*
X56340Y-44480D02*
X57550Y-45690D01*
X60115Y-37930D02*
X59370Y-37930D01*
X58702Y-38598D02*
X58702Y-39279D01*
X59370Y-37930D02*
X58702Y-38598D01*
X58505Y-39279D02*
X58505Y-38465D01*
X60160Y-36810D02*
X60160Y-36475D01*
X58505Y-38465D02*
X60160Y-36810D01*
X57670Y-37910D02*
X57670Y-38000D01*
X58308Y-38638D02*
X58308Y-39279D01*
X57670Y-38000D02*
X58308Y-38638D01*
X56830Y-37890D02*
X56940Y-37890D01*
X58130Y-39279D02*
X58112Y-39279D01*
X58130Y-38840D02*
X58130Y-39279D01*
X57780Y-38490D02*
X58130Y-38840D01*
X57540Y-38490D02*
X57780Y-38490D01*
X56940Y-37890D02*
X57540Y-38490D01*
G54D37*
X53519Y-50180D02*
X53519Y-49969D01*
X51745Y-48195D02*
X51745Y-47348D01*
X53519Y-49969D02*
X51745Y-48195D01*
G54D34*
X57718Y-39279D02*
X57718Y-41373D01*
X58005Y-49665D02*
X58519Y-50180D01*
X58005Y-48725D02*
X58005Y-49665D01*
X60305Y-46425D02*
X58005Y-48725D01*
X57980Y-41635D02*
X58090Y-41635D01*
X57718Y-41373D02*
X57980Y-41635D01*
X57324Y-39279D02*
X57324Y-41616D01*
X59025Y-49685D02*
X59519Y-50180D01*
X59025Y-48560D02*
X59025Y-49685D01*
X60815Y-46770D02*
X59025Y-48560D01*
X57324Y-41616D02*
X57295Y-41645D01*
X55245Y-41492D02*
X54093Y-41492D01*
X56605Y-45655D02*
X56605Y-47125D01*
X55235Y-44285D02*
X56605Y-45655D01*
X54455Y-44285D02*
X55235Y-44285D01*
X54350Y-44180D02*
X54455Y-44285D01*
X53865Y-41720D02*
X53865Y-43065D01*
X54093Y-41492D02*
X53865Y-41720D01*
X54055Y-41825D02*
X54055Y-42830D01*
X54374Y-41689D02*
X54365Y-41680D01*
X54365Y-41680D02*
X54200Y-41680D01*
X54200Y-41680D02*
X54055Y-41825D01*
X56880Y-45950D02*
X56880Y-46870D01*
X56880Y-46870D02*
X56860Y-46890D01*
X63115Y-48150D02*
X63519Y-48554D01*
X63519Y-49180D02*
X63519Y-48554D01*
X54374Y-41689D02*
X55245Y-41689D01*
X56880Y-45645D02*
X56880Y-45950D01*
X55240Y-44005D02*
X56880Y-45645D01*
X54680Y-44005D02*
X55240Y-44005D01*
X54640Y-44045D02*
X54680Y-44005D01*
X54055Y-42830D02*
X54230Y-43005D01*
X56537Y-39279D02*
X56537Y-41617D01*
X60020Y-49680D02*
X60519Y-50180D01*
X60020Y-48450D02*
X60020Y-49680D01*
X61360Y-47110D02*
X60020Y-48450D01*
X56537Y-41617D02*
X56610Y-41690D01*
X61519Y-50180D02*
X62015Y-49684D01*
X56143Y-41923D02*
X56270Y-42050D01*
X56143Y-41923D02*
X56143Y-39279D01*
X62015Y-47520D02*
X62015Y-49684D01*
X62000Y-47505D02*
X62015Y-47520D01*
X57521Y-39279D02*
X57521Y-41526D01*
X58519Y-48640D02*
X58519Y-49180D01*
X60560Y-46600D02*
X58519Y-48640D01*
X57521Y-41526D02*
X57625Y-41630D01*
X57127Y-39279D02*
X57127Y-41463D01*
X59519Y-48500D02*
X59519Y-49180D01*
X61070Y-46950D02*
X59519Y-48500D01*
X56930Y-41660D02*
X56920Y-41660D01*
X57127Y-41463D02*
X56930Y-41660D01*
X56340Y-41765D02*
X56565Y-41990D01*
X56340Y-39279D02*
X56340Y-41765D01*
X60990Y-47990D02*
X60990Y-48075D01*
X61685Y-47295D02*
X60990Y-47990D01*
X60990Y-48709D02*
X60519Y-49180D01*
X60990Y-48075D02*
X60990Y-48709D01*
X55245Y-40114D02*
X53631Y-40114D01*
X56340Y-45675D02*
X56340Y-47340D01*
X55140Y-44475D02*
X56340Y-45675D01*
X54250Y-44475D02*
X55140Y-44475D01*
X53950Y-44175D02*
X54250Y-44475D01*
X52795Y-42015D02*
X53500Y-42720D01*
X52795Y-40950D02*
X52795Y-42015D01*
X53631Y-40114D02*
X52795Y-40950D01*
X55245Y-42083D02*
X54802Y-42083D01*
X54802Y-42083D02*
X54585Y-42300D01*
X57718Y-45307D02*
X57635Y-45390D01*
X53805Y-45155D02*
X53820Y-45140D01*
X53820Y-45140D02*
X53820Y-44900D01*
X53820Y-44900D02*
X52085Y-43165D01*
X52085Y-43165D02*
X52085Y-42625D01*
X57718Y-43965D02*
X57718Y-45307D01*
X54360Y-39010D02*
X54360Y-38780D01*
X52880Y-40490D02*
X54360Y-39010D01*
X54370Y-36030D02*
X55000Y-35400D01*
X55000Y-35400D02*
X55000Y-34900D01*
X54365Y-38785D02*
X54360Y-38780D01*
X57915Y-43965D02*
X57915Y-45385D01*
X58030Y-46615D02*
X57460Y-46615D01*
X58080Y-46565D02*
X58030Y-46615D01*
X57915Y-45385D02*
X57975Y-45445D01*
X58112Y-45187D02*
X58360Y-45435D01*
X64780Y-47695D02*
X64230Y-47695D01*
X58112Y-45187D02*
X58112Y-43965D01*
X63175Y-47695D02*
X64230Y-47695D01*
X63135Y-47735D02*
X63175Y-47695D01*
X59931Y-41492D02*
X64008Y-41492D01*
X65835Y-35585D02*
X65835Y-34895D01*
X65850Y-35600D02*
X65835Y-35585D01*
X64815Y-40685D02*
X64815Y-39160D01*
X64008Y-41492D02*
X64815Y-40685D01*
X55245Y-41886D02*
X54334Y-41886D01*
X54334Y-41886D02*
X54300Y-41920D01*
X52465Y-37675D02*
X55040Y-37675D01*
X57915Y-38890D02*
X57915Y-39279D01*
X57715Y-38690D02*
X57915Y-38890D01*
X57460Y-38690D02*
X57715Y-38690D01*
X57090Y-38320D02*
X57460Y-38690D01*
X55685Y-38320D02*
X57090Y-38320D01*
X55040Y-37675D02*
X55685Y-38320D01*
X51357Y-37793D02*
X51357Y-38727D01*
X51357Y-38727D02*
X52820Y-40190D01*
X52465Y-37675D02*
X51475Y-37675D01*
X51475Y-37675D02*
X51357Y-37793D01*
X52425Y-35150D02*
X51390Y-35150D01*
X51390Y-35150D02*
X51357Y-35116D01*
X51357Y-37793D02*
X51357Y-35116D01*
X63590Y-41295D02*
X63720Y-41165D01*
X59931Y-41295D02*
X63590Y-41295D01*
X63289Y-41101D02*
X63380Y-41010D01*
X59931Y-41101D02*
X63289Y-41101D01*
X53617Y-41098D02*
X53550Y-41165D01*
X55245Y-41098D02*
X53617Y-41098D01*
X53925Y-41295D02*
X53855Y-41365D01*
X55245Y-41295D02*
X53925Y-41295D01*
X54500Y-40705D02*
X54210Y-40705D01*
X55245Y-40705D02*
X54500Y-40705D01*
X54210Y-40705D02*
X54140Y-40635D01*
X53227Y-40902D02*
X53225Y-40900D01*
X55245Y-40902D02*
X53227Y-40902D01*
X56103Y-43067D02*
X55670Y-43500D01*
X55670Y-43500D02*
X53185Y-43500D01*
X59931Y-43067D02*
X56428Y-43067D01*
X56428Y-43067D02*
X56103Y-43067D01*
X52360Y-43135D02*
X52360Y-42560D01*
X58702Y-43387D02*
X58565Y-43250D01*
X58565Y-43250D02*
X56190Y-43250D01*
X56190Y-43250D02*
X55690Y-43750D01*
X55690Y-43750D02*
X52975Y-43750D01*
X52975Y-43750D02*
X52360Y-43135D01*
X58702Y-43965D02*
X58702Y-43387D01*
X51460Y-41660D02*
X51460Y-41510D01*
X52360Y-42560D02*
X51460Y-41660D01*
X54955Y-43315D02*
X53725Y-43315D01*
X52550Y-42140D02*
X52550Y-40600D01*
X51460Y-39510D02*
X52550Y-40600D01*
X57014Y-41886D02*
X55585Y-43315D01*
X55585Y-43315D02*
X54955Y-43315D01*
X57259Y-41886D02*
X59931Y-41886D01*
X57259Y-41886D02*
X57014Y-41886D01*
X53725Y-43315D02*
X52550Y-42140D01*
X59400Y-39400D02*
X59480Y-39320D01*
X59480Y-39320D02*
X59480Y-38800D01*
X59480Y-38800D02*
X59325Y-38645D01*
X59325Y-38645D02*
X59205Y-38645D01*
X59205Y-38645D02*
X59096Y-38754D01*
X59096Y-38754D02*
X59096Y-39279D01*
X56734Y-39279D02*
X56734Y-38661D01*
X56734Y-38661D02*
X56800Y-38595D01*
X55780Y-45870D02*
X55165Y-45870D01*
X55910Y-46000D02*
X55780Y-45870D01*
X58820Y-42785D02*
X58480Y-42785D01*
X59195Y-42410D02*
X58820Y-42785D01*
X56931Y-39279D02*
X56931Y-38879D01*
X56931Y-38879D02*
X57100Y-38710D01*
X62315Y-46305D02*
X62890Y-46880D01*
X62315Y-45420D02*
X62315Y-46305D01*
X51960Y-43790D02*
X52050Y-43790D01*
X52050Y-43790D02*
X52390Y-44130D01*
X63525Y-49670D02*
X64020Y-49670D01*
X62515Y-49685D02*
X62530Y-49670D01*
X62530Y-49670D02*
X63525Y-49670D01*
X64363Y-50013D02*
X64790Y-50013D01*
X64020Y-49670D02*
X64363Y-50013D01*
X58520Y-49690D02*
X58535Y-49690D01*
X58510Y-49680D02*
X58520Y-49690D01*
X61227Y-42885D02*
X61820Y-42885D01*
X62700Y-42930D02*
X62700Y-43160D01*
X62445Y-42675D02*
X62700Y-42930D01*
X62030Y-42675D02*
X62445Y-42675D01*
X61820Y-42885D02*
X62030Y-42675D01*
X64760Y-43220D02*
X64760Y-43270D01*
X65170Y-42810D02*
X64760Y-43220D01*
X62920Y-41920D02*
X63755Y-41920D01*
X62880Y-41880D02*
X62920Y-41920D01*
X61490Y-40600D02*
X61730Y-40360D01*
X61730Y-40360D02*
X62435Y-40360D01*
X62435Y-40360D02*
X62715Y-40640D01*
X61135Y-40600D02*
X61490Y-40600D01*
X59931Y-40314D02*
X60469Y-40314D01*
X60755Y-40600D02*
X61135Y-40600D01*
X60469Y-40314D02*
X60755Y-40600D01*
X59931Y-40314D02*
X59001Y-40314D01*
X58870Y-40445D02*
X58870Y-40440D01*
X59001Y-40314D02*
X58870Y-40445D01*
X58465Y-42800D02*
X56595Y-42800D01*
X58480Y-42785D02*
X58465Y-42800D01*
X58899Y-43965D02*
X58899Y-43381D01*
X58899Y-43381D02*
X58970Y-43310D01*
X57460Y-48923D02*
X57512Y-48923D01*
X58370Y-48065D02*
X58370Y-47610D01*
X57512Y-48923D02*
X58370Y-48065D01*
X54925Y-39615D02*
X55140Y-39615D01*
X55699Y-40311D02*
X55785Y-40225D01*
X55785Y-40225D02*
X55785Y-39875D01*
X55785Y-39875D02*
X55525Y-39615D01*
X55525Y-39615D02*
X54925Y-39615D01*
X55699Y-40311D02*
X55245Y-40311D01*
X55900Y-38680D02*
X55950Y-38630D01*
X55760Y-38680D02*
X55900Y-38680D01*
X55525Y-38915D02*
X55760Y-38680D01*
X55525Y-39230D02*
X55525Y-38915D01*
X55140Y-39615D02*
X55525Y-39230D01*
X64010Y-38830D02*
X64320Y-38830D01*
X64610Y-38540D02*
X64610Y-37590D01*
X64320Y-38830D02*
X64610Y-38540D01*
X63145Y-35970D02*
X63145Y-36735D01*
X60680Y-37220D02*
X60680Y-37230D01*
X63145Y-36735D02*
X63170Y-36760D01*
X59660Y-35760D02*
X60530Y-35760D01*
X59440Y-35540D02*
X59660Y-35760D01*
X59230Y-34220D02*
X57355Y-34220D01*
X59250Y-34240D02*
X59230Y-34220D01*
X60030Y-39510D02*
X59800Y-39510D01*
X58560Y-40750D02*
X58560Y-41055D01*
X59800Y-39510D02*
X58870Y-40440D01*
X58870Y-40440D02*
X58560Y-40750D01*
X63150Y-38590D02*
X63770Y-38590D01*
X60030Y-38680D02*
X60030Y-39510D01*
X60050Y-38660D02*
X60030Y-38680D01*
X62330Y-39120D02*
X61640Y-39120D01*
X62780Y-39570D02*
X62330Y-39120D01*
X63770Y-38590D02*
X64010Y-38830D01*
X68163Y-34880D02*
X68163Y-36212D01*
X66900Y-46930D02*
X67045Y-46930D01*
X65780Y-48050D02*
X66900Y-46930D01*
X66020Y-50040D02*
X65720Y-49740D01*
X66920Y-50040D02*
X66020Y-50040D01*
X67030Y-50150D02*
X66920Y-50040D01*
X68345Y-46750D02*
X68345Y-49215D01*
X68350Y-41985D02*
X68350Y-44090D01*
X68345Y-41980D02*
X68350Y-41985D01*
X68275Y-37990D02*
X68275Y-39880D01*
X68245Y-37960D02*
X68275Y-37990D01*
X68163Y-36212D02*
X68140Y-36235D01*
X54160Y-32105D02*
X55275Y-32105D01*
X53275Y-32140D02*
X53310Y-32105D01*
X53310Y-32105D02*
X54160Y-32105D01*
X68163Y-34583D02*
X68163Y-34880D01*
X67880Y-34300D02*
X68163Y-34583D01*
X65980Y-34300D02*
X67880Y-34300D01*
X65380Y-33700D02*
X65980Y-34300D01*
X65380Y-32570D02*
X65380Y-33700D01*
X65460Y-32490D02*
X65380Y-32570D01*
X67920Y-33860D02*
X65870Y-33860D01*
X67980Y-33800D02*
X67920Y-33860D01*
X68440Y-31780D02*
X68440Y-32930D01*
X68260Y-31600D02*
X68440Y-31780D01*
X64910Y-31310D02*
X66770Y-31310D01*
X64880Y-31340D02*
X64910Y-31310D01*
X61250Y-31410D02*
X62970Y-31410D01*
X61190Y-31470D02*
X61250Y-31410D01*
X56490Y-31270D02*
X58830Y-31270D01*
X56140Y-31620D02*
X56490Y-31270D01*
X54940Y-33220D02*
X55780Y-33220D01*
X54780Y-33380D02*
X54940Y-33220D01*
X55275Y-32105D02*
X55420Y-31960D01*
X50485Y-36475D02*
X50485Y-38775D01*
X49782Y-36472D02*
X50515Y-35740D01*
X50515Y-35740D02*
X50515Y-34825D01*
X49782Y-37793D02*
X49782Y-36472D01*
X50485Y-38775D02*
X50470Y-38790D01*
X53270Y-36570D02*
X52500Y-36570D01*
X53597Y-34943D02*
X53270Y-35270D01*
X53270Y-35270D02*
X53270Y-36570D01*
X53960Y-34943D02*
X53597Y-34943D01*
X52500Y-36570D02*
X52410Y-36660D01*
X52790Y-42695D02*
X52790Y-43010D01*
X52335Y-42240D02*
X52790Y-42695D01*
X52335Y-41210D02*
X52335Y-42240D01*
X52020Y-40895D02*
X52335Y-41210D01*
X55245Y-42870D02*
X54825Y-42870D01*
X54565Y-42610D02*
X54375Y-42610D01*
X54825Y-42870D02*
X54565Y-42610D01*
X55245Y-42870D02*
X55705Y-42870D01*
X55705Y-42870D02*
X55855Y-42720D01*
X55855Y-42720D02*
X55855Y-41815D01*
X57255Y-44830D02*
X57265Y-44830D01*
X53600Y-46870D02*
X52870Y-47600D01*
X52870Y-47600D02*
X52700Y-47600D01*
X54020Y-49950D02*
X54415Y-49555D01*
X54415Y-49555D02*
X54640Y-49555D01*
X54640Y-49555D02*
X55035Y-49950D01*
X56025Y-49935D02*
X56395Y-49565D01*
X56395Y-49565D02*
X56905Y-49565D01*
X56905Y-49565D02*
X57460Y-50120D01*
X55690Y-49160D02*
X56000Y-48850D01*
X56000Y-48850D02*
X56000Y-48320D01*
X56653Y-48923D02*
X57460Y-48923D01*
X56550Y-48820D02*
X56653Y-48923D01*
X51105Y-49675D02*
X51145Y-49675D01*
X51460Y-42825D02*
X51960Y-43325D01*
X51960Y-43325D02*
X51960Y-43790D01*
X51960Y-43790D02*
X51960Y-44910D01*
X51960Y-44910D02*
X51695Y-45175D01*
X51695Y-45175D02*
X51325Y-45175D01*
X51325Y-45175D02*
X51090Y-45410D01*
X51090Y-45410D02*
X51090Y-49660D01*
X51090Y-49660D02*
X51105Y-49675D01*
X51460Y-42510D02*
X51460Y-42825D01*
X51590Y-49375D02*
X52025Y-49810D01*
X51445Y-49375D02*
X51590Y-49375D01*
X51145Y-49675D02*
X51445Y-49375D01*
X53020Y-50040D02*
X53020Y-50020D01*
X53015Y-50045D02*
X53020Y-50040D01*
X51420Y-33270D02*
X52340Y-33270D01*
X52340Y-33270D02*
X52425Y-33185D01*
X50390Y-33260D02*
X51410Y-33260D01*
X50000Y-32870D02*
X50390Y-33260D01*
X49400Y-32870D02*
X50000Y-32870D01*
X51410Y-33260D02*
X51420Y-33270D01*
X50410Y-31580D02*
X50310Y-31580D01*
X51380Y-31610D02*
X51120Y-31870D01*
X51120Y-31870D02*
X50700Y-31870D01*
X50700Y-31870D02*
X50410Y-31580D01*
X52430Y-31530D02*
X52430Y-31650D01*
X51720Y-31900D02*
X51430Y-31610D01*
X52180Y-31900D02*
X51720Y-31900D01*
X52430Y-31650D02*
X52180Y-31900D01*
X51430Y-31610D02*
X51380Y-31610D01*
X49782Y-33252D02*
X49782Y-35116D01*
X49400Y-32870D02*
X49782Y-33252D01*
X49630Y-31820D02*
X49400Y-31590D01*
X50070Y-31820D02*
X49630Y-31820D01*
X50310Y-31580D02*
X50070Y-31820D01*
X52425Y-34550D02*
X52425Y-31535D01*
X52425Y-31535D02*
X52430Y-31530D01*
X61717Y-37824D02*
X60820Y-37824D01*
X60820Y-37824D02*
X60715Y-37930D01*
X61717Y-37824D02*
X61717Y-38277D01*
X62030Y-38590D02*
X62550Y-38590D01*
X61717Y-38277D02*
X62030Y-38590D01*
X61717Y-36565D02*
X60850Y-36565D01*
X60850Y-36565D02*
X60760Y-36475D01*
X61717Y-36565D02*
X61717Y-36532D01*
X62280Y-35970D02*
X62545Y-35970D01*
X61717Y-36532D02*
X62280Y-35970D01*
X58230Y-36410D02*
X58230Y-37870D01*
X58230Y-37870D02*
X58270Y-37910D01*
X58200Y-34875D02*
X58200Y-36380D01*
X58200Y-36380D02*
X58230Y-36410D01*
X56230Y-36410D02*
X56230Y-37890D01*
X56220Y-34850D02*
X56220Y-36400D01*
X56220Y-36400D02*
X56230Y-36410D01*
G54D38*
X52112Y-45207D02*
X52677Y-45207D01*
X52677Y-45207D02*
X52755Y-45285D01*
G54D37*
X51745Y-45852D02*
X51745Y-45575D01*
X53365Y-45070D02*
X53365Y-45870D01*
X53055Y-44760D02*
X53365Y-45070D01*
X52560Y-44760D02*
X53055Y-44760D01*
X51745Y-45575D02*
X52112Y-45207D01*
X52112Y-45207D02*
X52560Y-44760D01*
G54D34*
X55000Y-34150D02*
X53993Y-34150D01*
X53993Y-34150D02*
X53960Y-34117D01*
X57460Y-47365D02*
X57460Y-48097D01*
X66585Y-34895D02*
X67322Y-34895D01*
X67322Y-34895D02*
X67337Y-34880D01*
X64780Y-48445D02*
X64780Y-49177D01*
X64780Y-49177D02*
X64790Y-49187D01*
G54D38*
X64660Y-45480D02*
X64660Y-46270D01*
X64660Y-46270D02*
X64690Y-46300D01*
X64200Y-34785D02*
X64200Y-34310D01*
X63340Y-33450D02*
X63340Y-33445D01*
X64200Y-34310D02*
X63340Y-33450D01*
X63352Y-43385D02*
X63745Y-43385D01*
X64615Y-34785D02*
X64200Y-34785D01*
X65500Y-35670D02*
X64615Y-34785D01*
X65500Y-41630D02*
X65500Y-35670D01*
X63745Y-43385D02*
X65500Y-41630D01*
X61380Y-34785D02*
X61380Y-34090D01*
X62520Y-32715D02*
X62790Y-32445D01*
X62215Y-32715D02*
X62520Y-32715D01*
X61715Y-33215D02*
X62215Y-32715D01*
X61715Y-33755D02*
X61715Y-33215D01*
X61380Y-34090D02*
X61715Y-33755D01*
X63352Y-42885D02*
X63745Y-42885D01*
X61380Y-35330D02*
X61380Y-34785D01*
X61510Y-35460D02*
X61380Y-35330D01*
X64210Y-35460D02*
X61510Y-35460D01*
X65200Y-36450D02*
X64210Y-35460D01*
X65200Y-41430D02*
X65200Y-36450D01*
X63745Y-42885D02*
X65200Y-41430D01*
X64660Y-44180D02*
X65185Y-44180D01*
X65525Y-44520D02*
X67080Y-44520D01*
X65185Y-44180D02*
X65525Y-44520D01*
X63352Y-45135D02*
X63755Y-45135D01*
X64170Y-44180D02*
X64660Y-44180D01*
X64040Y-44310D02*
X64170Y-44180D01*
X64040Y-44850D02*
X64040Y-44310D01*
X63755Y-45135D02*
X64040Y-44850D01*
X62680Y-34785D02*
X63600Y-34785D01*
X64690Y-46900D02*
X65065Y-46900D01*
X65865Y-45070D02*
X66080Y-45070D01*
X65455Y-45480D02*
X65865Y-45070D01*
X65455Y-46510D02*
X65455Y-45480D01*
X65065Y-46900D02*
X65455Y-46510D01*
X63352Y-45635D02*
X63690Y-45635D01*
X64235Y-46900D02*
X64690Y-46900D01*
X64040Y-46705D02*
X64235Y-46900D01*
X64040Y-45985D02*
X64040Y-46705D01*
X63690Y-45635D02*
X64040Y-45985D01*
G54D10*
G36*
X51545Y-42515D02*
X51465Y-42595D01*
X51460Y-42590D01*
X51153Y-42896D01*
X51181Y-42989D01*
X51245Y-43010D01*
X51152Y-43049D01*
X51042Y-43158D01*
X51042Y-42806D01*
X51073Y-42816D01*
X51379Y-42510D01*
X51073Y-42203D01*
X51042Y-42213D01*
X51042Y-41861D01*
X51151Y-41970D01*
X51239Y-42006D01*
X51181Y-42030D01*
X51153Y-42123D01*
X51460Y-42429D01*
X51465Y-42424D01*
X51545Y-42504D01*
X51540Y-42510D01*
X51545Y-42515D01*
X51545Y-42515D01*
G37*
G54D39*
X51545Y-42515D02*
X51465Y-42595D01*
X51460Y-42590D01*
X51153Y-42896D01*
X51181Y-42989D01*
X51245Y-43010D01*
X51152Y-43049D01*
X51042Y-43158D01*
X51042Y-42806D01*
X51073Y-42816D01*
X51379Y-42510D01*
X51073Y-42203D01*
X51042Y-42213D01*
X51042Y-41861D01*
X51151Y-41970D01*
X51239Y-42006D01*
X51181Y-42030D01*
X51153Y-42123D01*
X51460Y-42429D01*
X51465Y-42424D01*
X51545Y-42504D01*
X51540Y-42510D01*
X51545Y-42515D01*
G54D10*
G36*
X52247Y-42020D02*
X51957Y-41729D01*
X52003Y-41618D01*
X52003Y-41402D01*
X51920Y-41202D01*
X51768Y-41049D01*
X51672Y-41010D01*
X51767Y-40970D01*
X51920Y-40818D01*
X52003Y-40618D01*
X52003Y-40480D01*
X52247Y-40725D01*
X52247Y-42020D01*
X52247Y-42020D01*
G37*
G54D39*
X52247Y-42020D02*
X51957Y-41729D01*
X52003Y-41618D01*
X52003Y-41402D01*
X51920Y-41202D01*
X51768Y-41049D01*
X51672Y-41010D01*
X51767Y-40970D01*
X51920Y-40818D01*
X52003Y-40618D01*
X52003Y-40480D01*
X52247Y-40725D01*
X52247Y-42020D01*
G54D10*
G36*
X52812Y-44319D02*
X52560Y-44319D01*
X52391Y-44353D01*
X52344Y-44385D01*
X52248Y-44448D01*
X52003Y-44694D01*
X52003Y-44161D01*
X51966Y-44072D01*
X51898Y-44003D01*
X51808Y-43966D01*
X51771Y-43966D01*
X51920Y-43818D01*
X52003Y-43618D01*
X52003Y-43510D01*
X52812Y-44319D01*
X52812Y-44319D01*
G37*
G54D39*
X52812Y-44319D02*
X52560Y-44319D01*
X52391Y-44353D01*
X52344Y-44385D01*
X52248Y-44448D01*
X52003Y-44694D01*
X52003Y-44161D01*
X51966Y-44072D01*
X51898Y-44003D01*
X51808Y-43966D01*
X51771Y-43966D01*
X51920Y-43818D01*
X52003Y-43618D01*
X52003Y-43510D01*
X52812Y-44319D01*
G54D10*
G36*
X53120Y-43138D02*
X53113Y-43138D01*
X52980Y-43193D01*
X52913Y-43260D01*
X52662Y-43009D01*
X52662Y-42679D01*
X53120Y-43138D01*
X53120Y-43138D01*
G37*
G54D39*
X53120Y-43138D02*
X53113Y-43138D01*
X52980Y-43193D01*
X52913Y-43260D01*
X52662Y-43009D01*
X52662Y-42679D01*
X53120Y-43138D01*
G54D10*
G36*
X53585Y-41606D02*
X53562Y-41720D01*
X53562Y-42355D01*
X53097Y-41889D01*
X53097Y-41238D01*
X53152Y-41261D01*
X53198Y-41261D01*
X53243Y-41369D01*
X53345Y-41471D01*
X53477Y-41526D01*
X53530Y-41526D01*
X53548Y-41569D01*
X53585Y-41606D01*
X53585Y-41606D01*
G37*
G54D39*
X53585Y-41606D02*
X53562Y-41720D01*
X53562Y-42355D01*
X53097Y-41889D01*
X53097Y-41238D01*
X53152Y-41261D01*
X53198Y-41261D01*
X53243Y-41369D01*
X53345Y-41471D01*
X53477Y-41526D01*
X53530Y-41526D01*
X53548Y-41569D01*
X53585Y-41606D01*
G54D10*
G36*
X54696Y-42644D02*
X54691Y-42673D01*
X54694Y-42688D01*
X54558Y-42688D01*
X54463Y-42727D01*
X54434Y-42698D01*
X54357Y-42666D01*
X54357Y-42583D01*
X54380Y-42606D01*
X54512Y-42661D01*
X54656Y-42661D01*
X54696Y-42644D01*
X54696Y-42644D01*
G37*
G54D39*
X54696Y-42644D02*
X54691Y-42673D01*
X54694Y-42688D01*
X54558Y-42688D01*
X54463Y-42727D01*
X54434Y-42698D01*
X54357Y-42666D01*
X54357Y-42583D01*
X54380Y-42606D01*
X54512Y-42661D01*
X54656Y-42661D01*
X54696Y-42644D01*
G54D10*
G36*
X56438Y-38622D02*
X56438Y-38626D01*
X56431Y-38661D01*
X56431Y-38743D01*
X56340Y-38725D01*
X56241Y-38744D01*
X56143Y-38725D01*
X56027Y-38748D01*
X55929Y-38813D01*
X55863Y-38911D01*
X55840Y-39027D01*
X55840Y-39279D01*
X55840Y-39530D01*
X55840Y-40298D01*
X55836Y-40294D01*
X55788Y-40261D01*
X55788Y-40254D01*
X55777Y-40254D01*
X55765Y-40246D01*
X55778Y-40234D01*
X55776Y-40228D01*
X55798Y-40114D01*
X55775Y-39998D01*
X55710Y-39900D01*
X55612Y-39834D01*
X55496Y-39811D01*
X55245Y-39811D01*
X54993Y-39811D01*
X53985Y-39811D01*
X54573Y-39223D01*
X54639Y-39125D01*
X54662Y-39010D01*
X54662Y-38988D01*
X54666Y-38984D01*
X54721Y-38852D01*
X54721Y-38708D01*
X54666Y-38575D01*
X54564Y-38473D01*
X54432Y-38418D01*
X54288Y-38418D01*
X54155Y-38473D01*
X54053Y-38575D01*
X53998Y-38707D01*
X53998Y-38851D01*
X54025Y-38916D01*
X53041Y-39900D01*
X53024Y-39883D01*
X52892Y-39828D01*
X52886Y-39828D01*
X51688Y-38631D01*
X51691Y-38629D01*
X51760Y-38561D01*
X51797Y-38472D01*
X51797Y-38375D01*
X51797Y-37977D01*
X52465Y-37977D01*
X54914Y-37977D01*
X55471Y-38533D01*
X55569Y-38599D01*
X55685Y-38622D01*
X56438Y-38622D01*
X56438Y-38622D01*
G37*
G54D39*
X56438Y-38622D02*
X56438Y-38626D01*
X56431Y-38661D01*
X56431Y-38743D01*
X56340Y-38725D01*
X56241Y-38744D01*
X56143Y-38725D01*
X56027Y-38748D01*
X55929Y-38813D01*
X55863Y-38911D01*
X55840Y-39027D01*
X55840Y-39279D01*
X55840Y-39530D01*
X55840Y-40298D01*
X55836Y-40294D01*
X55788Y-40261D01*
X55788Y-40254D01*
X55777Y-40254D01*
X55765Y-40246D01*
X55778Y-40234D01*
X55776Y-40228D01*
X55798Y-40114D01*
X55775Y-39998D01*
X55710Y-39900D01*
X55612Y-39834D01*
X55496Y-39811D01*
X55245Y-39811D01*
X54993Y-39811D01*
X53985Y-39811D01*
X54573Y-39223D01*
X54639Y-39125D01*
X54662Y-39010D01*
X54662Y-38988D01*
X54666Y-38984D01*
X54721Y-38852D01*
X54721Y-38708D01*
X54666Y-38575D01*
X54564Y-38473D01*
X54432Y-38418D01*
X54288Y-38418D01*
X54155Y-38473D01*
X54053Y-38575D01*
X53998Y-38707D01*
X53998Y-38851D01*
X54025Y-38916D01*
X53041Y-39900D01*
X53024Y-39883D01*
X52892Y-39828D01*
X52886Y-39828D01*
X51688Y-38631D01*
X51691Y-38629D01*
X51760Y-38561D01*
X51797Y-38472D01*
X51797Y-38375D01*
X51797Y-37977D01*
X52465Y-37977D01*
X54914Y-37977D01*
X55471Y-38533D01*
X55569Y-38599D01*
X55685Y-38622D01*
X56438Y-38622D01*
G54D10*
G36*
X57415Y-45098D02*
X57400Y-45113D01*
X56794Y-44506D01*
X56832Y-44499D01*
X56931Y-44518D01*
X57029Y-44499D01*
X57127Y-44518D01*
X57225Y-44499D01*
X57324Y-44518D01*
X57415Y-44500D01*
X57415Y-45098D01*
X57415Y-45098D01*
G37*
G54D39*
X57415Y-45098D02*
X57400Y-45113D01*
X56794Y-44506D01*
X56832Y-44499D01*
X56931Y-44518D01*
X57029Y-44499D01*
X57127Y-44518D01*
X57225Y-44499D01*
X57324Y-44518D01*
X57415Y-44500D01*
X57415Y-45098D01*
G54D10*
G36*
X57978Y-50066D02*
X57976Y-50071D01*
X57975Y-50237D01*
X57403Y-50237D01*
X57403Y-49341D01*
X57403Y-48979D01*
X57041Y-48979D01*
X56980Y-49040D01*
X56980Y-49207D01*
X57017Y-49296D01*
X57085Y-49365D01*
X57175Y-49402D01*
X57272Y-49402D01*
X57342Y-49402D01*
X57403Y-49341D01*
X57403Y-50237D01*
X57062Y-50237D01*
X57062Y-50072D01*
X56980Y-49872D01*
X56827Y-49719D01*
X56627Y-49636D01*
X56411Y-49636D01*
X56211Y-49719D01*
X56058Y-49871D01*
X56022Y-49959D01*
X55998Y-49901D01*
X55905Y-49873D01*
X55825Y-49953D01*
X55825Y-49793D01*
X55797Y-49700D01*
X55608Y-49636D01*
X55608Y-46221D01*
X55608Y-45987D01*
X55547Y-45926D01*
X55221Y-45926D01*
X55221Y-46452D01*
X55282Y-46513D01*
X55413Y-46513D01*
X55502Y-46476D01*
X55571Y-46408D01*
X55608Y-46318D01*
X55608Y-46221D01*
X55608Y-49636D01*
X55592Y-49630D01*
X55377Y-49644D01*
X55241Y-49700D01*
X55228Y-49742D01*
X55228Y-48821D01*
X55228Y-48021D01*
X55191Y-47932D01*
X55123Y-47863D01*
X55108Y-47857D01*
X55108Y-46452D01*
X55108Y-45926D01*
X55108Y-45813D01*
X55108Y-45287D01*
X55047Y-45226D01*
X54916Y-45226D01*
X54827Y-45263D01*
X54758Y-45331D01*
X54721Y-45421D01*
X54721Y-45518D01*
X54721Y-45752D01*
X54782Y-45813D01*
X55108Y-45813D01*
X55108Y-45926D01*
X54782Y-45926D01*
X54721Y-45987D01*
X54721Y-46221D01*
X54721Y-46318D01*
X54758Y-46408D01*
X54827Y-46476D01*
X54916Y-46513D01*
X55047Y-46513D01*
X55108Y-46452D01*
X55108Y-47857D01*
X55033Y-47826D01*
X54936Y-47826D01*
X53496Y-47826D01*
X53407Y-47863D01*
X53338Y-47931D01*
X53301Y-48021D01*
X53301Y-48118D01*
X53301Y-48918D01*
X53338Y-49007D01*
X53406Y-49076D01*
X53496Y-49113D01*
X53593Y-49113D01*
X55033Y-49113D01*
X55122Y-49076D01*
X55191Y-49008D01*
X55228Y-48918D01*
X55228Y-48821D01*
X55228Y-49742D01*
X55212Y-49793D01*
X55519Y-50099D01*
X55825Y-49793D01*
X55825Y-49953D01*
X55599Y-50180D01*
X55604Y-50185D01*
X55553Y-50237D01*
X55485Y-50237D01*
X55433Y-50185D01*
X55439Y-50180D01*
X55132Y-49873D01*
X55040Y-49901D01*
X55021Y-49957D01*
X54998Y-49901D01*
X54905Y-49873D01*
X54825Y-49953D01*
X54825Y-49793D01*
X54797Y-49700D01*
X54592Y-49630D01*
X54377Y-49644D01*
X54241Y-49700D01*
X54212Y-49793D01*
X54519Y-50099D01*
X54825Y-49793D01*
X54825Y-49953D01*
X54599Y-50180D01*
X54604Y-50185D01*
X54553Y-50237D01*
X54485Y-50237D01*
X54433Y-50185D01*
X54439Y-50180D01*
X54132Y-49873D01*
X54040Y-49901D01*
X54018Y-49965D01*
X53980Y-49872D01*
X53930Y-49822D01*
X53925Y-49800D01*
X53830Y-49657D01*
X53830Y-49657D01*
X52185Y-48012D01*
X52185Y-47906D01*
X52226Y-47906D01*
X52315Y-47869D01*
X52384Y-47801D01*
X52421Y-47711D01*
X52421Y-47614D01*
X52421Y-46984D01*
X52384Y-46895D01*
X52316Y-46826D01*
X52226Y-46789D01*
X52129Y-46789D01*
X51263Y-46789D01*
X51174Y-46826D01*
X51105Y-46894D01*
X51068Y-46984D01*
X51068Y-47081D01*
X51068Y-47711D01*
X51105Y-47800D01*
X51173Y-47869D01*
X51263Y-47906D01*
X51304Y-47906D01*
X51304Y-48195D01*
X51338Y-48363D01*
X51433Y-48506D01*
X52564Y-49636D01*
X52411Y-49636D01*
X52211Y-49719D01*
X52058Y-49871D01*
X52019Y-49967D01*
X51980Y-49872D01*
X51827Y-49719D01*
X51627Y-49636D01*
X51411Y-49636D01*
X51211Y-49719D01*
X51058Y-49871D01*
X51042Y-49910D01*
X51042Y-45024D01*
X51111Y-45053D01*
X51208Y-45053D01*
X51644Y-45053D01*
X51433Y-45263D01*
X51413Y-45293D01*
X51263Y-45293D01*
X51174Y-45330D01*
X51105Y-45398D01*
X51068Y-45488D01*
X51068Y-45585D01*
X51068Y-46215D01*
X51105Y-46304D01*
X51173Y-46373D01*
X51263Y-46410D01*
X51360Y-46410D01*
X52226Y-46410D01*
X52315Y-46373D01*
X52384Y-46305D01*
X52421Y-46215D01*
X52421Y-46118D01*
X52421Y-45601D01*
X52494Y-45674D01*
X52663Y-45744D01*
X52846Y-45744D01*
X52921Y-45713D01*
X52921Y-46318D01*
X52958Y-46407D01*
X53026Y-46476D01*
X53116Y-46513D01*
X53213Y-46513D01*
X53613Y-46513D01*
X53702Y-46476D01*
X53771Y-46408D01*
X53808Y-46318D01*
X53808Y-46221D01*
X53808Y-45516D01*
X53821Y-45516D01*
X53821Y-45518D01*
X53821Y-46318D01*
X53858Y-46407D01*
X53926Y-46476D01*
X54016Y-46513D01*
X54113Y-46513D01*
X54513Y-46513D01*
X54602Y-46476D01*
X54671Y-46408D01*
X54708Y-46318D01*
X54708Y-46221D01*
X54708Y-45421D01*
X54671Y-45332D01*
X54646Y-45307D01*
X54646Y-45232D01*
X54700Y-45210D01*
X54829Y-45080D01*
X54899Y-44911D01*
X54899Y-44777D01*
X55014Y-44777D01*
X55499Y-45262D01*
X55413Y-45226D01*
X55282Y-45226D01*
X55221Y-45287D01*
X55221Y-45813D01*
X55547Y-45813D01*
X55608Y-45752D01*
X55608Y-45518D01*
X55608Y-45421D01*
X55572Y-45334D01*
X56037Y-45800D01*
X56037Y-47131D01*
X56033Y-47135D01*
X55978Y-47267D01*
X55978Y-47411D01*
X56033Y-47544D01*
X56135Y-47646D01*
X56267Y-47701D01*
X56411Y-47701D01*
X56544Y-47646D01*
X56646Y-47544D01*
X56670Y-47486D01*
X56676Y-47486D01*
X56809Y-47431D01*
X56911Y-47329D01*
X56941Y-47256D01*
X56941Y-47588D01*
X56978Y-47677D01*
X57020Y-47719D01*
X57017Y-47722D01*
X56980Y-47812D01*
X56980Y-47909D01*
X56980Y-48381D01*
X57017Y-48470D01*
X57056Y-48510D01*
X57017Y-48549D01*
X56980Y-48638D01*
X56980Y-48805D01*
X57041Y-48866D01*
X57403Y-48866D01*
X57403Y-48858D01*
X57516Y-48858D01*
X57516Y-48866D01*
X57524Y-48866D01*
X57524Y-48979D01*
X57516Y-48979D01*
X57516Y-49341D01*
X57577Y-49402D01*
X57647Y-49402D01*
X57702Y-49402D01*
X57702Y-49665D01*
X57725Y-49781D01*
X57791Y-49879D01*
X57978Y-50066D01*
X57978Y-50066D01*
G37*
G54D39*
X57978Y-50066D02*
X57976Y-50071D01*
X57975Y-50237D01*
X57403Y-50237D01*
X57403Y-49341D01*
X57403Y-48979D01*
X57041Y-48979D01*
X56980Y-49040D01*
X56980Y-49207D01*
X57017Y-49296D01*
X57085Y-49365D01*
X57175Y-49402D01*
X57272Y-49402D01*
X57342Y-49402D01*
X57403Y-49341D01*
X57403Y-50237D01*
X57062Y-50237D01*
X57062Y-50072D01*
X56980Y-49872D01*
X56827Y-49719D01*
X56627Y-49636D01*
X56411Y-49636D01*
X56211Y-49719D01*
X56058Y-49871D01*
X56022Y-49959D01*
X55998Y-49901D01*
X55905Y-49873D01*
X55825Y-49953D01*
X55825Y-49793D01*
X55797Y-49700D01*
X55608Y-49636D01*
X55608Y-46221D01*
X55608Y-45987D01*
X55547Y-45926D01*
X55221Y-45926D01*
X55221Y-46452D01*
X55282Y-46513D01*
X55413Y-46513D01*
X55502Y-46476D01*
X55571Y-46408D01*
X55608Y-46318D01*
X55608Y-46221D01*
X55608Y-49636D01*
X55592Y-49630D01*
X55377Y-49644D01*
X55241Y-49700D01*
X55228Y-49742D01*
X55228Y-48821D01*
X55228Y-48021D01*
X55191Y-47932D01*
X55123Y-47863D01*
X55108Y-47857D01*
X55108Y-46452D01*
X55108Y-45926D01*
X55108Y-45813D01*
X55108Y-45287D01*
X55047Y-45226D01*
X54916Y-45226D01*
X54827Y-45263D01*
X54758Y-45331D01*
X54721Y-45421D01*
X54721Y-45518D01*
X54721Y-45752D01*
X54782Y-45813D01*
X55108Y-45813D01*
X55108Y-45926D01*
X54782Y-45926D01*
X54721Y-45987D01*
X54721Y-46221D01*
X54721Y-46318D01*
X54758Y-46408D01*
X54827Y-46476D01*
X54916Y-46513D01*
X55047Y-46513D01*
X55108Y-46452D01*
X55108Y-47857D01*
X55033Y-47826D01*
X54936Y-47826D01*
X53496Y-47826D01*
X53407Y-47863D01*
X53338Y-47931D01*
X53301Y-48021D01*
X53301Y-48118D01*
X53301Y-48918D01*
X53338Y-49007D01*
X53406Y-49076D01*
X53496Y-49113D01*
X53593Y-49113D01*
X55033Y-49113D01*
X55122Y-49076D01*
X55191Y-49008D01*
X55228Y-48918D01*
X55228Y-48821D01*
X55228Y-49742D01*
X55212Y-49793D01*
X55519Y-50099D01*
X55825Y-49793D01*
X55825Y-49953D01*
X55599Y-50180D01*
X55604Y-50185D01*
X55553Y-50237D01*
X55485Y-50237D01*
X55433Y-50185D01*
X55439Y-50180D01*
X55132Y-49873D01*
X55040Y-49901D01*
X55021Y-49957D01*
X54998Y-49901D01*
X54905Y-49873D01*
X54825Y-49953D01*
X54825Y-49793D01*
X54797Y-49700D01*
X54592Y-49630D01*
X54377Y-49644D01*
X54241Y-49700D01*
X54212Y-49793D01*
X54519Y-50099D01*
X54825Y-49793D01*
X54825Y-49953D01*
X54599Y-50180D01*
X54604Y-50185D01*
X54553Y-50237D01*
X54485Y-50237D01*
X54433Y-50185D01*
X54439Y-50180D01*
X54132Y-49873D01*
X54040Y-49901D01*
X54018Y-49965D01*
X53980Y-49872D01*
X53930Y-49822D01*
X53925Y-49800D01*
X53830Y-49657D01*
X53830Y-49657D01*
X52185Y-48012D01*
X52185Y-47906D01*
X52226Y-47906D01*
X52315Y-47869D01*
X52384Y-47801D01*
X52421Y-47711D01*
X52421Y-47614D01*
X52421Y-46984D01*
X52384Y-46895D01*
X52316Y-46826D01*
X52226Y-46789D01*
X52129Y-46789D01*
X51263Y-46789D01*
X51174Y-46826D01*
X51105Y-46894D01*
X51068Y-46984D01*
X51068Y-47081D01*
X51068Y-47711D01*
X51105Y-47800D01*
X51173Y-47869D01*
X51263Y-47906D01*
X51304Y-47906D01*
X51304Y-48195D01*
X51338Y-48363D01*
X51433Y-48506D01*
X52564Y-49636D01*
X52411Y-49636D01*
X52211Y-49719D01*
X52058Y-49871D01*
X52019Y-49967D01*
X51980Y-49872D01*
X51827Y-49719D01*
X51627Y-49636D01*
X51411Y-49636D01*
X51211Y-49719D01*
X51058Y-49871D01*
X51042Y-49910D01*
X51042Y-45024D01*
X51111Y-45053D01*
X51208Y-45053D01*
X51644Y-45053D01*
X51433Y-45263D01*
X51413Y-45293D01*
X51263Y-45293D01*
X51174Y-45330D01*
X51105Y-45398D01*
X51068Y-45488D01*
X51068Y-45585D01*
X51068Y-46215D01*
X51105Y-46304D01*
X51173Y-46373D01*
X51263Y-46410D01*
X51360Y-46410D01*
X52226Y-46410D01*
X52315Y-46373D01*
X52384Y-46305D01*
X52421Y-46215D01*
X52421Y-46118D01*
X52421Y-45601D01*
X52494Y-45674D01*
X52663Y-45744D01*
X52846Y-45744D01*
X52921Y-45713D01*
X52921Y-46318D01*
X52958Y-46407D01*
X53026Y-46476D01*
X53116Y-46513D01*
X53213Y-46513D01*
X53613Y-46513D01*
X53702Y-46476D01*
X53771Y-46408D01*
X53808Y-46318D01*
X53808Y-46221D01*
X53808Y-45516D01*
X53821Y-45516D01*
X53821Y-45518D01*
X53821Y-46318D01*
X53858Y-46407D01*
X53926Y-46476D01*
X54016Y-46513D01*
X54113Y-46513D01*
X54513Y-46513D01*
X54602Y-46476D01*
X54671Y-46408D01*
X54708Y-46318D01*
X54708Y-46221D01*
X54708Y-45421D01*
X54671Y-45332D01*
X54646Y-45307D01*
X54646Y-45232D01*
X54700Y-45210D01*
X54829Y-45080D01*
X54899Y-44911D01*
X54899Y-44777D01*
X55014Y-44777D01*
X55499Y-45262D01*
X55413Y-45226D01*
X55282Y-45226D01*
X55221Y-45287D01*
X55221Y-45813D01*
X55547Y-45813D01*
X55608Y-45752D01*
X55608Y-45518D01*
X55608Y-45421D01*
X55572Y-45334D01*
X56037Y-45800D01*
X56037Y-47131D01*
X56033Y-47135D01*
X55978Y-47267D01*
X55978Y-47411D01*
X56033Y-47544D01*
X56135Y-47646D01*
X56267Y-47701D01*
X56411Y-47701D01*
X56544Y-47646D01*
X56646Y-47544D01*
X56670Y-47486D01*
X56676Y-47486D01*
X56809Y-47431D01*
X56911Y-47329D01*
X56941Y-47256D01*
X56941Y-47588D01*
X56978Y-47677D01*
X57020Y-47719D01*
X57017Y-47722D01*
X56980Y-47812D01*
X56980Y-47909D01*
X56980Y-48381D01*
X57017Y-48470D01*
X57056Y-48510D01*
X57017Y-48549D01*
X56980Y-48638D01*
X56980Y-48805D01*
X57041Y-48866D01*
X57403Y-48866D01*
X57403Y-48858D01*
X57516Y-48858D01*
X57516Y-48866D01*
X57524Y-48866D01*
X57524Y-48979D01*
X57516Y-48979D01*
X57516Y-49341D01*
X57577Y-49402D01*
X57647Y-49402D01*
X57702Y-49402D01*
X57702Y-49665D01*
X57725Y-49781D01*
X57791Y-49879D01*
X57978Y-50066D01*
G54D10*
G36*
X59400Y-42754D02*
X59400Y-42754D01*
X59398Y-42764D01*
X56562Y-42764D01*
X57139Y-42188D01*
X57259Y-42188D01*
X59395Y-42188D01*
X59377Y-42279D01*
X59396Y-42377D01*
X59377Y-42476D01*
X59400Y-42591D01*
X59400Y-42591D01*
X59384Y-42673D01*
X59400Y-42754D01*
X59400Y-42754D01*
G37*
G54D39*
X59400Y-42754D02*
X59400Y-42754D01*
X59398Y-42764D01*
X56562Y-42764D01*
X57139Y-42188D01*
X57259Y-42188D01*
X59395Y-42188D01*
X59377Y-42279D01*
X59396Y-42377D01*
X59377Y-42476D01*
X59400Y-42591D01*
X59400Y-42591D01*
X59384Y-42673D01*
X59400Y-42754D01*
G54D10*
G36*
X59865Y-46437D02*
X57939Y-48363D01*
X57939Y-48284D01*
X57939Y-47812D01*
X57902Y-47723D01*
X57899Y-47720D01*
X57941Y-47678D01*
X57978Y-47588D01*
X57978Y-47491D01*
X57978Y-47141D01*
X57941Y-47052D01*
X57879Y-46989D01*
X57941Y-46928D01*
X57945Y-46917D01*
X57986Y-46917D01*
X58007Y-46926D01*
X58151Y-46926D01*
X58284Y-46871D01*
X58386Y-46769D01*
X58441Y-46637D01*
X58441Y-46493D01*
X58418Y-46437D01*
X59865Y-46437D01*
X59865Y-46437D01*
G37*
G54D39*
X59865Y-46437D02*
X57939Y-48363D01*
X57939Y-48284D01*
X57939Y-47812D01*
X57902Y-47723D01*
X57899Y-47720D01*
X57941Y-47678D01*
X57978Y-47588D01*
X57978Y-47491D01*
X57978Y-47141D01*
X57941Y-47052D01*
X57879Y-46989D01*
X57941Y-46928D01*
X57945Y-46917D01*
X57986Y-46917D01*
X58007Y-46926D01*
X58151Y-46926D01*
X58284Y-46871D01*
X58386Y-46769D01*
X58441Y-46637D01*
X58441Y-46493D01*
X58418Y-46437D01*
X59865Y-46437D01*
G54D10*
G36*
X61199Y-40601D02*
X60466Y-40601D01*
X60484Y-40510D01*
X60462Y-40395D01*
X60463Y-40393D01*
X60556Y-40330D01*
X60680Y-40206D01*
X60703Y-40262D01*
X60740Y-40300D01*
X60703Y-40337D01*
X60666Y-40426D01*
X60666Y-40482D01*
X60727Y-40543D01*
X61078Y-40543D01*
X61078Y-40535D01*
X61191Y-40535D01*
X61191Y-40543D01*
X61199Y-40543D01*
X61199Y-40601D01*
X61199Y-40601D01*
G37*
G54D39*
X61199Y-40601D02*
X60466Y-40601D01*
X60484Y-40510D01*
X60462Y-40395D01*
X60463Y-40393D01*
X60556Y-40330D01*
X60680Y-40206D01*
X60703Y-40262D01*
X60740Y-40300D01*
X60703Y-40337D01*
X60666Y-40426D01*
X60666Y-40482D01*
X60727Y-40543D01*
X61078Y-40543D01*
X61078Y-40535D01*
X61191Y-40535D01*
X61191Y-40543D01*
X61199Y-40543D01*
X61199Y-40601D01*
G54D10*
G36*
X64858Y-38798D02*
X64743Y-38798D01*
X64610Y-38853D01*
X64508Y-38955D01*
X64453Y-39087D01*
X64453Y-39231D01*
X64508Y-39364D01*
X64512Y-39368D01*
X64512Y-40559D01*
X64381Y-40690D01*
X64381Y-38150D01*
X64381Y-37402D01*
X64344Y-37313D01*
X64276Y-37244D01*
X64187Y-37207D01*
X64090Y-37207D01*
X63578Y-37207D01*
X63489Y-37244D01*
X63420Y-37312D01*
X63383Y-37402D01*
X63383Y-37499D01*
X63383Y-38146D01*
X63323Y-38121D01*
X63267Y-38121D01*
X63206Y-38182D01*
X63206Y-38533D01*
X63457Y-38533D01*
X63518Y-38472D01*
X63518Y-38417D01*
X63578Y-38442D01*
X63674Y-38442D01*
X64186Y-38442D01*
X64276Y-38405D01*
X64344Y-38336D01*
X64381Y-38247D01*
X64381Y-38150D01*
X64381Y-40690D01*
X64051Y-41020D01*
X64026Y-40960D01*
X63924Y-40858D01*
X63792Y-40803D01*
X63684Y-40803D01*
X63584Y-40703D01*
X63518Y-40676D01*
X63518Y-38766D01*
X63518Y-38707D01*
X63457Y-38646D01*
X63206Y-38646D01*
X63206Y-38997D01*
X63267Y-39058D01*
X63323Y-39058D01*
X63412Y-39021D01*
X63481Y-38953D01*
X63518Y-38863D01*
X63518Y-38766D01*
X63518Y-40676D01*
X63452Y-40648D01*
X63308Y-40648D01*
X63175Y-40703D01*
X63080Y-40798D01*
X62161Y-40798D01*
X62176Y-40762D01*
X62176Y-40618D01*
X62121Y-40485D01*
X62019Y-40383D01*
X61887Y-40328D01*
X61743Y-40328D01*
X61610Y-40383D01*
X61592Y-40401D01*
X61566Y-40337D01*
X61529Y-40299D01*
X61566Y-40263D01*
X61603Y-40173D01*
X61603Y-40076D01*
X61603Y-39826D01*
X61566Y-39737D01*
X61498Y-39668D01*
X61408Y-39631D01*
X61311Y-39631D01*
X61182Y-39631D01*
X61120Y-39590D01*
X61005Y-39567D01*
X60926Y-39567D01*
X60886Y-39470D01*
X60784Y-39368D01*
X60652Y-39313D01*
X60508Y-39313D01*
X60375Y-39368D01*
X60273Y-39470D01*
X60218Y-39602D01*
X60218Y-39746D01*
X60238Y-39794D01*
X60217Y-39814D01*
X60182Y-39814D01*
X59931Y-39814D01*
X59679Y-39814D01*
X59563Y-39837D01*
X59465Y-39903D01*
X59400Y-40001D01*
X59377Y-40117D01*
X59399Y-40231D01*
X59397Y-40237D01*
X59412Y-40250D01*
X59454Y-40313D01*
X59410Y-40378D01*
X59397Y-40390D01*
X59399Y-40395D01*
X59377Y-40510D01*
X59396Y-40608D01*
X59377Y-40707D01*
X59396Y-40805D01*
X59377Y-40904D01*
X59396Y-41002D01*
X59377Y-41101D01*
X59396Y-41198D01*
X59377Y-41295D01*
X59396Y-41393D01*
X59377Y-41492D01*
X59395Y-41583D01*
X58451Y-41583D01*
X58451Y-41563D01*
X58396Y-41430D01*
X58294Y-41328D01*
X58162Y-41273D01*
X58046Y-41273D01*
X58020Y-41247D01*
X58020Y-39814D01*
X58112Y-39832D01*
X58210Y-39813D01*
X58308Y-39832D01*
X58406Y-39813D01*
X58505Y-39832D01*
X58603Y-39813D01*
X58702Y-39832D01*
X58800Y-39813D01*
X58899Y-39832D01*
X58976Y-39817D01*
X58988Y-39822D01*
X59085Y-39822D01*
X59203Y-39822D01*
X59292Y-39785D01*
X59320Y-39758D01*
X59327Y-39761D01*
X59471Y-39761D01*
X59604Y-39706D01*
X59706Y-39604D01*
X59761Y-39472D01*
X59761Y-39425D01*
X59782Y-39320D01*
X59782Y-38800D01*
X59782Y-38799D01*
X59759Y-38684D01*
X59693Y-38586D01*
X59693Y-38586D01*
X59538Y-38431D01*
X59440Y-38365D01*
X59375Y-38352D01*
X59495Y-38232D01*
X59758Y-38232D01*
X59783Y-38292D01*
X59851Y-38361D01*
X59941Y-38398D01*
X60038Y-38398D01*
X60288Y-38398D01*
X60377Y-38361D01*
X60415Y-38324D01*
X60451Y-38361D01*
X60541Y-38398D01*
X60638Y-38398D01*
X60888Y-38398D01*
X60977Y-38361D01*
X61046Y-38293D01*
X61083Y-38203D01*
X61083Y-38127D01*
X61218Y-38127D01*
X61218Y-38247D01*
X61255Y-38336D01*
X61323Y-38405D01*
X61412Y-38442D01*
X61470Y-38442D01*
X61503Y-38491D01*
X61816Y-38803D01*
X61914Y-38869D01*
X62030Y-38892D01*
X62193Y-38892D01*
X62218Y-38952D01*
X62286Y-39021D01*
X62376Y-39058D01*
X62473Y-39058D01*
X62723Y-39058D01*
X62812Y-39021D01*
X62850Y-38984D01*
X62887Y-39021D01*
X62976Y-39058D01*
X63032Y-39058D01*
X63093Y-38997D01*
X63093Y-38646D01*
X63085Y-38646D01*
X63085Y-38533D01*
X63093Y-38533D01*
X63093Y-38182D01*
X63032Y-38121D01*
X62976Y-38121D01*
X62887Y-38158D01*
X62849Y-38195D01*
X62813Y-38158D01*
X62723Y-38121D01*
X62626Y-38121D01*
X62376Y-38121D01*
X62287Y-38158D01*
X62218Y-38226D01*
X62216Y-38232D01*
X62216Y-38150D01*
X62216Y-37402D01*
X62179Y-37313D01*
X62111Y-37244D01*
X62021Y-37207D01*
X61925Y-37207D01*
X61413Y-37207D01*
X61323Y-37244D01*
X61255Y-37312D01*
X61218Y-37402D01*
X61218Y-37499D01*
X61218Y-37522D01*
X61001Y-37522D01*
X60978Y-37498D01*
X60888Y-37461D01*
X60791Y-37461D01*
X60541Y-37461D01*
X60452Y-37498D01*
X60414Y-37535D01*
X60378Y-37498D01*
X60288Y-37461D01*
X60191Y-37461D01*
X59941Y-37461D01*
X59931Y-37465D01*
X60373Y-37023D01*
X60439Y-36925D01*
X60448Y-36880D01*
X60460Y-36869D01*
X60496Y-36906D01*
X60586Y-36943D01*
X60683Y-36943D01*
X60933Y-36943D01*
X61022Y-36906D01*
X61061Y-36867D01*
X61218Y-36867D01*
X61218Y-36987D01*
X61255Y-37076D01*
X61323Y-37145D01*
X61412Y-37182D01*
X61509Y-37182D01*
X62021Y-37182D01*
X62110Y-37145D01*
X62179Y-37077D01*
X62216Y-36987D01*
X62216Y-36890D01*
X62216Y-36461D01*
X62279Y-36398D01*
X62281Y-36401D01*
X62371Y-36438D01*
X62468Y-36438D01*
X62718Y-36438D01*
X62807Y-36401D01*
X62845Y-36364D01*
X62882Y-36401D01*
X62971Y-36438D01*
X63027Y-36438D01*
X63088Y-36377D01*
X63088Y-36026D01*
X63080Y-36026D01*
X63080Y-35913D01*
X63088Y-35913D01*
X63088Y-35905D01*
X63201Y-35905D01*
X63201Y-35913D01*
X63452Y-35913D01*
X63513Y-35852D01*
X63513Y-35801D01*
X64068Y-35801D01*
X64233Y-35967D01*
X64187Y-35947D01*
X64090Y-35947D01*
X63578Y-35947D01*
X63489Y-35984D01*
X63447Y-36026D01*
X63201Y-36026D01*
X63201Y-36377D01*
X63262Y-36438D01*
X63318Y-36438D01*
X63383Y-36411D01*
X63383Y-36987D01*
X63420Y-37076D01*
X63488Y-37145D01*
X63578Y-37182D01*
X63674Y-37182D01*
X64186Y-37182D01*
X64276Y-37145D01*
X64344Y-37077D01*
X64381Y-36987D01*
X64381Y-36890D01*
X64381Y-36142D01*
X64362Y-36095D01*
X64858Y-36591D01*
X64858Y-38798D01*
X64858Y-38798D01*
G37*
G54D39*
X64858Y-38798D02*
X64743Y-38798D01*
X64610Y-38853D01*
X64508Y-38955D01*
X64453Y-39087D01*
X64453Y-39231D01*
X64508Y-39364D01*
X64512Y-39368D01*
X64512Y-40559D01*
X64381Y-40690D01*
X64381Y-38150D01*
X64381Y-37402D01*
X64344Y-37313D01*
X64276Y-37244D01*
X64187Y-37207D01*
X64090Y-37207D01*
X63578Y-37207D01*
X63489Y-37244D01*
X63420Y-37312D01*
X63383Y-37402D01*
X63383Y-37499D01*
X63383Y-38146D01*
X63323Y-38121D01*
X63267Y-38121D01*
X63206Y-38182D01*
X63206Y-38533D01*
X63457Y-38533D01*
X63518Y-38472D01*
X63518Y-38417D01*
X63578Y-38442D01*
X63674Y-38442D01*
X64186Y-38442D01*
X64276Y-38405D01*
X64344Y-38336D01*
X64381Y-38247D01*
X64381Y-38150D01*
X64381Y-40690D01*
X64051Y-41020D01*
X64026Y-40960D01*
X63924Y-40858D01*
X63792Y-40803D01*
X63684Y-40803D01*
X63584Y-40703D01*
X63518Y-40676D01*
X63518Y-38766D01*
X63518Y-38707D01*
X63457Y-38646D01*
X63206Y-38646D01*
X63206Y-38997D01*
X63267Y-39058D01*
X63323Y-39058D01*
X63412Y-39021D01*
X63481Y-38953D01*
X63518Y-38863D01*
X63518Y-38766D01*
X63518Y-40676D01*
X63452Y-40648D01*
X63308Y-40648D01*
X63175Y-40703D01*
X63080Y-40798D01*
X62161Y-40798D01*
X62176Y-40762D01*
X62176Y-40618D01*
X62121Y-40485D01*
X62019Y-40383D01*
X61887Y-40328D01*
X61743Y-40328D01*
X61610Y-40383D01*
X61592Y-40401D01*
X61566Y-40337D01*
X61529Y-40299D01*
X61566Y-40263D01*
X61603Y-40173D01*
X61603Y-40076D01*
X61603Y-39826D01*
X61566Y-39737D01*
X61498Y-39668D01*
X61408Y-39631D01*
X61311Y-39631D01*
X61182Y-39631D01*
X61120Y-39590D01*
X61005Y-39567D01*
X60926Y-39567D01*
X60886Y-39470D01*
X60784Y-39368D01*
X60652Y-39313D01*
X60508Y-39313D01*
X60375Y-39368D01*
X60273Y-39470D01*
X60218Y-39602D01*
X60218Y-39746D01*
X60238Y-39794D01*
X60217Y-39814D01*
X60182Y-39814D01*
X59931Y-39814D01*
X59679Y-39814D01*
X59563Y-39837D01*
X59465Y-39903D01*
X59400Y-40001D01*
X59377Y-40117D01*
X59399Y-40231D01*
X59397Y-40237D01*
X59412Y-40250D01*
X59454Y-40313D01*
X59410Y-40378D01*
X59397Y-40390D01*
X59399Y-40395D01*
X59377Y-40510D01*
X59396Y-40608D01*
X59377Y-40707D01*
X59396Y-40805D01*
X59377Y-40904D01*
X59396Y-41002D01*
X59377Y-41101D01*
X59396Y-41198D01*
X59377Y-41295D01*
X59396Y-41393D01*
X59377Y-41492D01*
X59395Y-41583D01*
X58451Y-41583D01*
X58451Y-41563D01*
X58396Y-41430D01*
X58294Y-41328D01*
X58162Y-41273D01*
X58046Y-41273D01*
X58020Y-41247D01*
X58020Y-39814D01*
X58112Y-39832D01*
X58210Y-39813D01*
X58308Y-39832D01*
X58406Y-39813D01*
X58505Y-39832D01*
X58603Y-39813D01*
X58702Y-39832D01*
X58800Y-39813D01*
X58899Y-39832D01*
X58976Y-39817D01*
X58988Y-39822D01*
X59085Y-39822D01*
X59203Y-39822D01*
X59292Y-39785D01*
X59320Y-39758D01*
X59327Y-39761D01*
X59471Y-39761D01*
X59604Y-39706D01*
X59706Y-39604D01*
X59761Y-39472D01*
X59761Y-39425D01*
X59782Y-39320D01*
X59782Y-38800D01*
X59782Y-38799D01*
X59759Y-38684D01*
X59693Y-38586D01*
X59693Y-38586D01*
X59538Y-38431D01*
X59440Y-38365D01*
X59375Y-38352D01*
X59495Y-38232D01*
X59758Y-38232D01*
X59783Y-38292D01*
X59851Y-38361D01*
X59941Y-38398D01*
X60038Y-38398D01*
X60288Y-38398D01*
X60377Y-38361D01*
X60415Y-38324D01*
X60451Y-38361D01*
X60541Y-38398D01*
X60638Y-38398D01*
X60888Y-38398D01*
X60977Y-38361D01*
X61046Y-38293D01*
X61083Y-38203D01*
X61083Y-38127D01*
X61218Y-38127D01*
X61218Y-38247D01*
X61255Y-38336D01*
X61323Y-38405D01*
X61412Y-38442D01*
X61470Y-38442D01*
X61503Y-38491D01*
X61816Y-38803D01*
X61914Y-38869D01*
X62030Y-38892D01*
X62193Y-38892D01*
X62218Y-38952D01*
X62286Y-39021D01*
X62376Y-39058D01*
X62473Y-39058D01*
X62723Y-39058D01*
X62812Y-39021D01*
X62850Y-38984D01*
X62887Y-39021D01*
X62976Y-39058D01*
X63032Y-39058D01*
X63093Y-38997D01*
X63093Y-38646D01*
X63085Y-38646D01*
X63085Y-38533D01*
X63093Y-38533D01*
X63093Y-38182D01*
X63032Y-38121D01*
X62976Y-38121D01*
X62887Y-38158D01*
X62849Y-38195D01*
X62813Y-38158D01*
X62723Y-38121D01*
X62626Y-38121D01*
X62376Y-38121D01*
X62287Y-38158D01*
X62218Y-38226D01*
X62216Y-38232D01*
X62216Y-38150D01*
X62216Y-37402D01*
X62179Y-37313D01*
X62111Y-37244D01*
X62021Y-37207D01*
X61925Y-37207D01*
X61413Y-37207D01*
X61323Y-37244D01*
X61255Y-37312D01*
X61218Y-37402D01*
X61218Y-37499D01*
X61218Y-37522D01*
X61001Y-37522D01*
X60978Y-37498D01*
X60888Y-37461D01*
X60791Y-37461D01*
X60541Y-37461D01*
X60452Y-37498D01*
X60414Y-37535D01*
X60378Y-37498D01*
X60288Y-37461D01*
X60191Y-37461D01*
X59941Y-37461D01*
X59931Y-37465D01*
X60373Y-37023D01*
X60439Y-36925D01*
X60448Y-36880D01*
X60460Y-36869D01*
X60496Y-36906D01*
X60586Y-36943D01*
X60683Y-36943D01*
X60933Y-36943D01*
X61022Y-36906D01*
X61061Y-36867D01*
X61218Y-36867D01*
X61218Y-36987D01*
X61255Y-37076D01*
X61323Y-37145D01*
X61412Y-37182D01*
X61509Y-37182D01*
X62021Y-37182D01*
X62110Y-37145D01*
X62179Y-37077D01*
X62216Y-36987D01*
X62216Y-36890D01*
X62216Y-36461D01*
X62279Y-36398D01*
X62281Y-36401D01*
X62371Y-36438D01*
X62468Y-36438D01*
X62718Y-36438D01*
X62807Y-36401D01*
X62845Y-36364D01*
X62882Y-36401D01*
X62971Y-36438D01*
X63027Y-36438D01*
X63088Y-36377D01*
X63088Y-36026D01*
X63080Y-36026D01*
X63080Y-35913D01*
X63088Y-35913D01*
X63088Y-35905D01*
X63201Y-35905D01*
X63201Y-35913D01*
X63452Y-35913D01*
X63513Y-35852D01*
X63513Y-35801D01*
X64068Y-35801D01*
X64233Y-35967D01*
X64187Y-35947D01*
X64090Y-35947D01*
X63578Y-35947D01*
X63489Y-35984D01*
X63447Y-36026D01*
X63201Y-36026D01*
X63201Y-36377D01*
X63262Y-36438D01*
X63318Y-36438D01*
X63383Y-36411D01*
X63383Y-36987D01*
X63420Y-37076D01*
X63488Y-37145D01*
X63578Y-37182D01*
X63674Y-37182D01*
X64186Y-37182D01*
X64276Y-37145D01*
X64344Y-37077D01*
X64381Y-36987D01*
X64381Y-36890D01*
X64381Y-36142D01*
X64362Y-36095D01*
X64858Y-36591D01*
X64858Y-38798D01*
G54D10*
G36*
X68552Y-49631D02*
X68073Y-50110D01*
X68073Y-48823D01*
X68073Y-38823D01*
X67922Y-38458D01*
X67643Y-38178D01*
X67278Y-38026D01*
X66883Y-38026D01*
X66518Y-38177D01*
X66238Y-38456D01*
X66086Y-38821D01*
X66086Y-39216D01*
X66237Y-39581D01*
X66516Y-39861D01*
X66881Y-40013D01*
X67276Y-40013D01*
X67641Y-39862D01*
X67921Y-39583D01*
X68073Y-39218D01*
X68073Y-38823D01*
X68073Y-48823D01*
X67922Y-48458D01*
X67643Y-48178D01*
X67629Y-48172D01*
X67629Y-45693D01*
X67615Y-45477D01*
X67559Y-45341D01*
X67466Y-45313D01*
X67386Y-45393D01*
X67386Y-45233D01*
X67358Y-45140D01*
X67153Y-45070D01*
X66937Y-45084D01*
X66801Y-45140D01*
X66773Y-45233D01*
X67080Y-45539D01*
X67386Y-45233D01*
X67386Y-45393D01*
X67160Y-45620D01*
X67466Y-45926D01*
X67559Y-45898D01*
X67629Y-45693D01*
X67629Y-48172D01*
X67386Y-48071D01*
X67386Y-46006D01*
X67080Y-45700D01*
X66773Y-46006D01*
X66801Y-46099D01*
X67006Y-46169D01*
X67222Y-46155D01*
X67358Y-46099D01*
X67386Y-46006D01*
X67386Y-48071D01*
X67278Y-48026D01*
X66883Y-48026D01*
X66518Y-48177D01*
X66238Y-48456D01*
X66086Y-48821D01*
X66086Y-49216D01*
X66237Y-49581D01*
X66516Y-49861D01*
X66881Y-50013D01*
X67276Y-50013D01*
X67641Y-49862D01*
X67921Y-49583D01*
X68073Y-49218D01*
X68073Y-48823D01*
X68073Y-50110D01*
X67946Y-50237D01*
X65269Y-50237D01*
X65269Y-50130D01*
X65208Y-50069D01*
X64846Y-50069D01*
X64846Y-50077D01*
X64733Y-50077D01*
X64733Y-50069D01*
X64371Y-50069D01*
X64310Y-50130D01*
X64310Y-50237D01*
X64062Y-50237D01*
X64062Y-49831D01*
X64025Y-49742D01*
X63957Y-49673D01*
X63867Y-49636D01*
X63830Y-49636D01*
X63979Y-49488D01*
X64062Y-49288D01*
X64062Y-49072D01*
X63980Y-48872D01*
X63827Y-48719D01*
X63821Y-48717D01*
X63821Y-48554D01*
X63798Y-48438D01*
X63798Y-48438D01*
X63733Y-48340D01*
X63476Y-48083D01*
X63476Y-48078D01*
X63442Y-47997D01*
X64230Y-47997D01*
X64294Y-47997D01*
X64298Y-48007D01*
X64360Y-48070D01*
X64298Y-48131D01*
X64261Y-48221D01*
X64261Y-48318D01*
X64261Y-48668D01*
X64298Y-48757D01*
X64350Y-48809D01*
X64347Y-48812D01*
X64310Y-48902D01*
X64310Y-48999D01*
X64310Y-49471D01*
X64347Y-49560D01*
X64386Y-49600D01*
X64347Y-49639D01*
X64310Y-49728D01*
X64310Y-49895D01*
X64371Y-49956D01*
X64733Y-49956D01*
X64733Y-49948D01*
X64846Y-49948D01*
X64846Y-49956D01*
X65208Y-49956D01*
X65269Y-49895D01*
X65269Y-49728D01*
X65232Y-49639D01*
X65193Y-49599D01*
X65232Y-49561D01*
X65269Y-49471D01*
X65269Y-49374D01*
X65269Y-48902D01*
X65232Y-48813D01*
X65219Y-48800D01*
X65261Y-48758D01*
X65298Y-48668D01*
X65298Y-48571D01*
X65298Y-48221D01*
X65261Y-48132D01*
X65199Y-48069D01*
X65261Y-48008D01*
X65298Y-47918D01*
X65298Y-47821D01*
X65298Y-47471D01*
X65261Y-47382D01*
X65193Y-47313D01*
X65103Y-47276D01*
X65006Y-47276D01*
X64456Y-47276D01*
X64367Y-47313D01*
X64298Y-47381D01*
X64294Y-47392D01*
X64230Y-47392D01*
X63252Y-47392D01*
X63207Y-47373D01*
X63063Y-47373D01*
X62930Y-47428D01*
X62828Y-47530D01*
X62773Y-47662D01*
X62773Y-47806D01*
X62824Y-47929D01*
X62808Y-47945D01*
X62753Y-48077D01*
X62753Y-48221D01*
X62808Y-48354D01*
X62910Y-48456D01*
X63042Y-48511D01*
X63048Y-48511D01*
X63216Y-48679D01*
X63216Y-48717D01*
X63211Y-48719D01*
X63058Y-48871D01*
X63019Y-48967D01*
X62980Y-48872D01*
X62827Y-48719D01*
X62627Y-48636D01*
X62411Y-48636D01*
X62317Y-48675D01*
X62317Y-47683D01*
X62361Y-47577D01*
X62361Y-47433D01*
X62306Y-47300D01*
X62204Y-47198D01*
X62072Y-47143D01*
X62013Y-47143D01*
X61991Y-47090D01*
X61889Y-46988D01*
X61757Y-46933D01*
X61678Y-46933D01*
X61666Y-46905D01*
X61564Y-46803D01*
X61432Y-46748D01*
X61377Y-46748D01*
X61376Y-46745D01*
X61274Y-46643D01*
X61142Y-46588D01*
X61131Y-46588D01*
X61121Y-46565D01*
X61052Y-46496D01*
X61580Y-46496D01*
X61669Y-46459D01*
X61738Y-46391D01*
X61775Y-46301D01*
X61775Y-46204D01*
X61775Y-45968D01*
X61740Y-45884D01*
X61775Y-45801D01*
X61775Y-45704D01*
X61775Y-45468D01*
X61740Y-45385D01*
X61775Y-45301D01*
X61775Y-45252D01*
X61714Y-45191D01*
X61283Y-45191D01*
X61283Y-45199D01*
X61170Y-45199D01*
X61170Y-45191D01*
X60739Y-45191D01*
X60678Y-45252D01*
X60678Y-45263D01*
X60645Y-45249D01*
X60548Y-45249D01*
X60729Y-45068D01*
X60739Y-45078D01*
X61170Y-45078D01*
X61170Y-45070D01*
X61283Y-45070D01*
X61283Y-45078D01*
X61714Y-45078D01*
X61775Y-45017D01*
X61775Y-44968D01*
X61740Y-44884D01*
X61775Y-44801D01*
X61775Y-44704D01*
X61775Y-44468D01*
X61738Y-44379D01*
X61670Y-44310D01*
X61580Y-44273D01*
X61483Y-44273D01*
X60873Y-44273D01*
X60784Y-44310D01*
X60762Y-44332D01*
X60735Y-44332D01*
X60619Y-44355D01*
X60597Y-44370D01*
X60771Y-44196D01*
X60783Y-44209D01*
X60873Y-44246D01*
X60970Y-44246D01*
X61580Y-44246D01*
X61669Y-44209D01*
X61738Y-44141D01*
X61775Y-44051D01*
X61775Y-43954D01*
X61775Y-43718D01*
X61770Y-43707D01*
X61940Y-43707D01*
X62063Y-43682D01*
X62167Y-43612D01*
X62199Y-43580D01*
X62224Y-43580D01*
X62371Y-43519D01*
X62484Y-43407D01*
X62545Y-43260D01*
X62545Y-43100D01*
X62484Y-42953D01*
X62372Y-42840D01*
X62225Y-42779D01*
X62065Y-42779D01*
X61918Y-42840D01*
X61805Y-42952D01*
X61775Y-43024D01*
X61775Y-43002D01*
X61714Y-42941D01*
X61283Y-42941D01*
X61283Y-42949D01*
X61170Y-42949D01*
X61170Y-42941D01*
X61162Y-42941D01*
X61162Y-42828D01*
X61170Y-42828D01*
X61170Y-42820D01*
X61283Y-42820D01*
X61283Y-42828D01*
X61714Y-42828D01*
X61775Y-42767D01*
X61775Y-42718D01*
X61740Y-42634D01*
X61775Y-42551D01*
X61775Y-42454D01*
X61775Y-42218D01*
X61738Y-42129D01*
X61670Y-42060D01*
X61580Y-42023D01*
X61483Y-42023D01*
X60873Y-42023D01*
X60784Y-42060D01*
X60752Y-42092D01*
X60684Y-42105D01*
X60586Y-42171D01*
X60483Y-42273D01*
X60465Y-42181D01*
X60484Y-42083D01*
X60465Y-41984D01*
X60484Y-41886D01*
X60466Y-41794D01*
X64008Y-41794D01*
X64123Y-41771D01*
X64123Y-41771D01*
X64221Y-41705D01*
X64858Y-41069D01*
X64858Y-41288D01*
X63901Y-42245D01*
X63901Y-42218D01*
X63864Y-42129D01*
X63796Y-42060D01*
X63706Y-42023D01*
X63609Y-42023D01*
X62999Y-42023D01*
X62910Y-42060D01*
X62841Y-42128D01*
X62804Y-42218D01*
X62804Y-42315D01*
X62804Y-42551D01*
X62839Y-42635D01*
X62804Y-42718D01*
X62804Y-42815D01*
X62804Y-43051D01*
X62839Y-43135D01*
X62804Y-43218D01*
X62804Y-43315D01*
X62804Y-43551D01*
X62839Y-43635D01*
X62804Y-43718D01*
X62804Y-43815D01*
X62804Y-44051D01*
X62841Y-44140D01*
X62909Y-44209D01*
X62999Y-44246D01*
X63096Y-44246D01*
X63706Y-44246D01*
X63711Y-44244D01*
X63705Y-44273D01*
X63609Y-44273D01*
X62999Y-44273D01*
X62910Y-44310D01*
X62841Y-44378D01*
X62804Y-44468D01*
X62804Y-44565D01*
X62804Y-44801D01*
X62839Y-44885D01*
X62804Y-44968D01*
X62804Y-45065D01*
X62804Y-45301D01*
X62839Y-45385D01*
X62804Y-45468D01*
X62804Y-45565D01*
X62804Y-45801D01*
X62839Y-45885D01*
X62804Y-45968D01*
X62804Y-46065D01*
X62804Y-46301D01*
X62841Y-46390D01*
X62909Y-46459D01*
X62999Y-46496D01*
X63096Y-46496D01*
X63698Y-46496D01*
X63698Y-46705D01*
X63724Y-46835D01*
X63798Y-46946D01*
X63993Y-47141D01*
X63993Y-47141D01*
X64104Y-47215D01*
X64104Y-47215D01*
X64208Y-47236D01*
X64234Y-47241D01*
X64234Y-47241D01*
X64235Y-47241D01*
X64352Y-47241D01*
X64416Y-47268D01*
X64513Y-47268D01*
X64963Y-47268D01*
X65027Y-47241D01*
X65065Y-47241D01*
X65195Y-47215D01*
X65306Y-47141D01*
X65696Y-46751D01*
X65696Y-46751D01*
X65696Y-46751D01*
X65724Y-46710D01*
X65731Y-46713D01*
X65828Y-46713D01*
X66428Y-46713D01*
X66517Y-46676D01*
X66586Y-46608D01*
X66623Y-46518D01*
X66623Y-46421D01*
X66623Y-45904D01*
X66693Y-45926D01*
X66999Y-45620D01*
X66693Y-45313D01*
X66600Y-45341D01*
X66530Y-45546D01*
X66539Y-45685D01*
X66518Y-45663D01*
X66428Y-45626D01*
X66331Y-45626D01*
X65796Y-45626D01*
X65796Y-45621D01*
X65853Y-45564D01*
X65971Y-45613D01*
X66187Y-45613D01*
X66387Y-45530D01*
X66540Y-45378D01*
X66623Y-45178D01*
X66623Y-44962D01*
X66581Y-44861D01*
X66653Y-44861D01*
X66771Y-44980D01*
X66971Y-45063D01*
X67187Y-45063D01*
X67387Y-44980D01*
X67540Y-44828D01*
X67623Y-44628D01*
X67623Y-44412D01*
X67540Y-44212D01*
X67388Y-44059D01*
X67232Y-43994D01*
X67387Y-43930D01*
X67540Y-43778D01*
X67623Y-43578D01*
X67623Y-43362D01*
X67623Y-42262D01*
X67540Y-42062D01*
X67388Y-41909D01*
X67188Y-41826D01*
X66972Y-41826D01*
X66772Y-41909D01*
X66619Y-42061D01*
X66536Y-42261D01*
X66536Y-42477D01*
X66619Y-42677D01*
X66771Y-42830D01*
X66971Y-42913D01*
X67187Y-42913D01*
X67387Y-42830D01*
X67540Y-42678D01*
X67623Y-42478D01*
X67623Y-42262D01*
X67623Y-43362D01*
X67540Y-43162D01*
X67388Y-43009D01*
X67188Y-42926D01*
X66972Y-42926D01*
X66772Y-43009D01*
X66623Y-43158D01*
X66623Y-42812D01*
X66540Y-42612D01*
X66388Y-42459D01*
X66188Y-42376D01*
X65972Y-42376D01*
X65772Y-42459D01*
X65619Y-42611D01*
X65536Y-42811D01*
X65536Y-43027D01*
X65619Y-43227D01*
X65771Y-43380D01*
X65920Y-43441D01*
X65801Y-43490D01*
X65773Y-43583D01*
X66080Y-43889D01*
X66386Y-43583D01*
X66358Y-43490D01*
X66228Y-43446D01*
X66387Y-43380D01*
X66540Y-43228D01*
X66623Y-43028D01*
X66623Y-42812D01*
X66623Y-43158D01*
X66619Y-43161D01*
X66536Y-43361D01*
X66536Y-43577D01*
X66619Y-43777D01*
X66771Y-43930D01*
X66927Y-43995D01*
X66772Y-44059D01*
X66653Y-44178D01*
X66582Y-44178D01*
X66629Y-44043D01*
X66615Y-43827D01*
X66559Y-43691D01*
X66466Y-43663D01*
X66160Y-43970D01*
X66165Y-43975D01*
X66085Y-44055D01*
X66080Y-44050D01*
X66074Y-44055D01*
X65994Y-43975D01*
X65999Y-43970D01*
X65693Y-43663D01*
X65600Y-43691D01*
X65530Y-43896D01*
X65540Y-44052D01*
X65426Y-43938D01*
X65315Y-43864D01*
X65303Y-43861D01*
X65303Y-43831D01*
X65266Y-43742D01*
X65198Y-43673D01*
X65108Y-43636D01*
X65011Y-43636D01*
X64211Y-43636D01*
X64122Y-43673D01*
X64053Y-43741D01*
X64016Y-43831D01*
X64016Y-43879D01*
X63928Y-43938D01*
X63928Y-43938D01*
X63901Y-43965D01*
X63901Y-43954D01*
X63901Y-43718D01*
X63890Y-43691D01*
X63986Y-43626D01*
X65580Y-42033D01*
X65619Y-42127D01*
X65771Y-42280D01*
X65971Y-42363D01*
X66187Y-42363D01*
X66387Y-42280D01*
X66540Y-42128D01*
X66623Y-41928D01*
X66623Y-41712D01*
X66540Y-41512D01*
X66388Y-41359D01*
X66188Y-41276D01*
X65972Y-41276D01*
X65841Y-41330D01*
X65841Y-35961D01*
X65921Y-35961D01*
X66054Y-35906D01*
X66156Y-35804D01*
X66211Y-35672D01*
X66211Y-35528D01*
X66156Y-35395D01*
X66140Y-35379D01*
X66147Y-35376D01*
X66210Y-35314D01*
X66271Y-35376D01*
X66361Y-35413D01*
X66458Y-35413D01*
X66808Y-35413D01*
X66897Y-35376D01*
X66957Y-35316D01*
X66962Y-35322D01*
X67052Y-35359D01*
X67149Y-35359D01*
X67621Y-35359D01*
X67710Y-35322D01*
X67750Y-35283D01*
X67789Y-35322D01*
X67878Y-35359D01*
X68045Y-35359D01*
X68106Y-35298D01*
X68106Y-34936D01*
X68098Y-34936D01*
X68098Y-34823D01*
X68106Y-34823D01*
X68106Y-34461D01*
X68045Y-34400D01*
X67878Y-34400D01*
X67789Y-34437D01*
X67749Y-34476D01*
X67711Y-34437D01*
X67621Y-34400D01*
X67524Y-34400D01*
X67052Y-34400D01*
X66963Y-34437D01*
X66942Y-34458D01*
X66898Y-34413D01*
X66808Y-34376D01*
X66711Y-34376D01*
X66361Y-34376D01*
X66272Y-34413D01*
X66209Y-34475D01*
X66148Y-34413D01*
X66058Y-34376D01*
X65961Y-34376D01*
X65611Y-34376D01*
X65522Y-34413D01*
X65453Y-34481D01*
X65416Y-34571D01*
X65416Y-34668D01*
X65416Y-35103D01*
X64856Y-34543D01*
X64745Y-34469D01*
X64615Y-34443D01*
X64541Y-34443D01*
X64541Y-34310D01*
X64515Y-34179D01*
X64441Y-34068D01*
X64361Y-33988D01*
X64788Y-33988D01*
X64877Y-33951D01*
X64946Y-33883D01*
X64983Y-33793D01*
X64983Y-33696D01*
X64983Y-33096D01*
X64946Y-33007D01*
X64878Y-32938D01*
X64788Y-32901D01*
X64691Y-32901D01*
X64439Y-32901D01*
X64439Y-32518D01*
X64425Y-32302D01*
X64369Y-32166D01*
X64276Y-32138D01*
X64196Y-32218D01*
X64196Y-32058D01*
X64168Y-31965D01*
X63963Y-31895D01*
X63747Y-31909D01*
X63611Y-31965D01*
X63583Y-32058D01*
X63890Y-32364D01*
X64196Y-32058D01*
X64196Y-32218D01*
X63970Y-32445D01*
X64276Y-32751D01*
X64369Y-32723D01*
X64439Y-32518D01*
X64439Y-32901D01*
X64174Y-32901D01*
X64196Y-32831D01*
X63890Y-32525D01*
X63809Y-32605D01*
X63809Y-32445D01*
X63503Y-32138D01*
X63410Y-32166D01*
X63340Y-32371D01*
X63354Y-32587D01*
X63410Y-32723D01*
X63503Y-32751D01*
X63809Y-32445D01*
X63809Y-32605D01*
X63583Y-32831D01*
X63611Y-32924D01*
X63816Y-32994D01*
X63955Y-32985D01*
X63933Y-33006D01*
X63896Y-33096D01*
X63896Y-33193D01*
X63896Y-33523D01*
X63883Y-33509D01*
X63883Y-33337D01*
X63800Y-33137D01*
X63648Y-32984D01*
X63448Y-32901D01*
X63232Y-32901D01*
X63032Y-32984D01*
X62879Y-33136D01*
X62796Y-33336D01*
X62796Y-33552D01*
X62879Y-33752D01*
X63031Y-33905D01*
X63231Y-33988D01*
X63395Y-33988D01*
X63723Y-34316D01*
X63676Y-34316D01*
X63426Y-34316D01*
X63337Y-34353D01*
X63268Y-34421D01*
X63260Y-34443D01*
X63223Y-34443D01*
X63223Y-34336D01*
X63186Y-34247D01*
X63118Y-34178D01*
X63028Y-34141D01*
X62931Y-34141D01*
X62789Y-34141D01*
X62789Y-33518D01*
X62775Y-33302D01*
X62719Y-33166D01*
X62626Y-33138D01*
X62320Y-33445D01*
X62626Y-33751D01*
X62719Y-33723D01*
X62789Y-33518D01*
X62789Y-34141D01*
X62331Y-34141D01*
X62242Y-34178D01*
X62173Y-34246D01*
X62136Y-34336D01*
X62136Y-34433D01*
X62136Y-35118D01*
X61923Y-35118D01*
X61923Y-34336D01*
X61886Y-34247D01*
X61818Y-34178D01*
X61787Y-34166D01*
X61956Y-33996D01*
X61956Y-33996D01*
X61956Y-33996D01*
X61997Y-33936D01*
X61997Y-33936D01*
X62166Y-33994D01*
X62382Y-33980D01*
X62518Y-33924D01*
X62546Y-33831D01*
X62240Y-33525D01*
X62234Y-33530D01*
X62154Y-33450D01*
X62159Y-33445D01*
X62154Y-33439D01*
X62234Y-33359D01*
X62240Y-33364D01*
X62546Y-33058D01*
X62544Y-33051D01*
X62650Y-33030D01*
X62714Y-32988D01*
X62897Y-32988D01*
X63097Y-32905D01*
X63250Y-32753D01*
X63333Y-32553D01*
X63333Y-32337D01*
X63250Y-32137D01*
X63098Y-31984D01*
X62898Y-31901D01*
X62682Y-31901D01*
X62482Y-31984D01*
X62329Y-32136D01*
X62264Y-32292D01*
X62200Y-32137D01*
X62048Y-31984D01*
X61848Y-31901D01*
X61632Y-31901D01*
X61432Y-31984D01*
X61279Y-32136D01*
X61196Y-32336D01*
X61196Y-32552D01*
X61279Y-32752D01*
X61431Y-32905D01*
X61509Y-32937D01*
X61473Y-32973D01*
X61472Y-32974D01*
X61298Y-32901D01*
X61183Y-32901D01*
X61183Y-32337D01*
X61100Y-32137D01*
X60948Y-31984D01*
X60748Y-31901D01*
X60532Y-31901D01*
X60332Y-31984D01*
X60179Y-32136D01*
X60096Y-32336D01*
X60096Y-32552D01*
X60179Y-32752D01*
X60331Y-32905D01*
X60531Y-32988D01*
X60747Y-32988D01*
X60947Y-32905D01*
X61100Y-32753D01*
X61183Y-32553D01*
X61183Y-32337D01*
X61183Y-32901D01*
X61082Y-32901D01*
X60882Y-32984D01*
X60729Y-33136D01*
X60646Y-33336D01*
X60646Y-33552D01*
X60729Y-33752D01*
X60881Y-33905D01*
X61060Y-33979D01*
X61038Y-34090D01*
X61038Y-34141D01*
X61031Y-34141D01*
X60942Y-34178D01*
X60873Y-34246D01*
X60836Y-34336D01*
X60836Y-34433D01*
X60836Y-35233D01*
X60873Y-35322D01*
X60941Y-35391D01*
X61031Y-35428D01*
X61057Y-35428D01*
X61064Y-35460D01*
X61138Y-35571D01*
X61268Y-35701D01*
X61268Y-35701D01*
X61379Y-35775D01*
X61510Y-35801D01*
X62020Y-35801D01*
X61874Y-35947D01*
X61413Y-35947D01*
X61323Y-35984D01*
X61255Y-36053D01*
X61218Y-36142D01*
X61218Y-36239D01*
X61218Y-36262D01*
X61128Y-36262D01*
X61128Y-36201D01*
X61091Y-36112D01*
X61023Y-36043D01*
X60933Y-36006D01*
X60836Y-36006D01*
X60633Y-36006D01*
X60633Y-33337D01*
X60550Y-33137D01*
X60398Y-32984D01*
X60198Y-32901D01*
X59982Y-32901D01*
X59782Y-32984D01*
X59629Y-33136D01*
X59546Y-33336D01*
X59546Y-33552D01*
X59629Y-33752D01*
X59781Y-33905D01*
X59981Y-33988D01*
X60197Y-33988D01*
X60397Y-33905D01*
X60550Y-33753D01*
X60633Y-33553D01*
X60633Y-33337D01*
X60633Y-36006D01*
X60586Y-36006D01*
X60497Y-36043D01*
X60459Y-36080D01*
X60423Y-36043D01*
X60333Y-36006D01*
X60236Y-36006D01*
X59986Y-36006D01*
X59897Y-36043D01*
X59828Y-36111D01*
X59791Y-36201D01*
X59791Y-36298D01*
X59791Y-36748D01*
X59792Y-36749D01*
X58638Y-37904D01*
X58638Y-37636D01*
X58601Y-37547D01*
X58533Y-37478D01*
X58532Y-37478D01*
X58532Y-36847D01*
X58673Y-36706D01*
X58753Y-36514D01*
X58753Y-36306D01*
X58673Y-36113D01*
X58526Y-35966D01*
X58502Y-35956D01*
X58502Y-35266D01*
X58531Y-35238D01*
X58568Y-35148D01*
X58568Y-35051D01*
X58568Y-34601D01*
X58531Y-34512D01*
X58463Y-34443D01*
X58373Y-34406D01*
X58283Y-34406D01*
X58283Y-32248D01*
X58132Y-31883D01*
X57853Y-31603D01*
X57488Y-31451D01*
X57093Y-31451D01*
X56728Y-31602D01*
X56448Y-31881D01*
X56296Y-32246D01*
X56296Y-32641D01*
X56447Y-33006D01*
X56726Y-33286D01*
X57091Y-33438D01*
X57486Y-33438D01*
X57851Y-33287D01*
X58131Y-33008D01*
X58283Y-32643D01*
X58283Y-32248D01*
X58283Y-34406D01*
X58276Y-34406D01*
X58026Y-34406D01*
X57937Y-34443D01*
X57900Y-34480D01*
X57862Y-34443D01*
X57773Y-34406D01*
X57717Y-34406D01*
X57656Y-34467D01*
X57656Y-34818D01*
X57664Y-34818D01*
X57664Y-34931D01*
X57656Y-34931D01*
X57656Y-35282D01*
X57717Y-35343D01*
X57773Y-35343D01*
X57862Y-35306D01*
X57897Y-35271D01*
X57897Y-36002D01*
X57786Y-36113D01*
X57706Y-36305D01*
X57706Y-36513D01*
X57786Y-36706D01*
X57927Y-36847D01*
X57927Y-37476D01*
X57843Y-37441D01*
X57746Y-37441D01*
X57543Y-37441D01*
X57543Y-35282D01*
X57543Y-34931D01*
X57543Y-34818D01*
X57543Y-34467D01*
X57482Y-34406D01*
X57426Y-34406D01*
X57337Y-34443D01*
X57268Y-34511D01*
X57231Y-34601D01*
X57231Y-34698D01*
X57231Y-34757D01*
X57292Y-34818D01*
X57543Y-34818D01*
X57543Y-34931D01*
X57292Y-34931D01*
X57231Y-34992D01*
X57231Y-35051D01*
X57231Y-35148D01*
X57268Y-35238D01*
X57337Y-35306D01*
X57426Y-35343D01*
X57482Y-35343D01*
X57543Y-35282D01*
X57543Y-37441D01*
X57496Y-37441D01*
X57407Y-37478D01*
X57338Y-37546D01*
X57301Y-37636D01*
X57301Y-37733D01*
X57301Y-37824D01*
X57198Y-37720D01*
X57198Y-37616D01*
X57188Y-37592D01*
X57188Y-35026D01*
X57188Y-34673D01*
X57188Y-34576D01*
X57151Y-34486D01*
X57082Y-34418D01*
X56993Y-34381D01*
X56937Y-34381D01*
X56876Y-34442D01*
X56876Y-34793D01*
X57127Y-34793D01*
X57188Y-34732D01*
X57188Y-34673D01*
X57188Y-35026D01*
X57188Y-34967D01*
X57127Y-34906D01*
X56876Y-34906D01*
X56876Y-35257D01*
X56937Y-35318D01*
X56993Y-35318D01*
X57082Y-35281D01*
X57151Y-35213D01*
X57188Y-35123D01*
X57188Y-35026D01*
X57188Y-37592D01*
X57161Y-37527D01*
X57093Y-37458D01*
X57003Y-37421D01*
X56906Y-37421D01*
X56656Y-37421D01*
X56567Y-37458D01*
X56532Y-37493D01*
X56532Y-36847D01*
X56673Y-36706D01*
X56753Y-36514D01*
X56753Y-36306D01*
X56673Y-36113D01*
X56526Y-35966D01*
X56522Y-35964D01*
X56522Y-35246D01*
X56557Y-35281D01*
X56646Y-35318D01*
X56702Y-35318D01*
X56763Y-35257D01*
X56763Y-34906D01*
X56755Y-34906D01*
X56755Y-34793D01*
X56763Y-34793D01*
X56763Y-34442D01*
X56702Y-34381D01*
X56646Y-34381D01*
X56557Y-34418D01*
X56519Y-34455D01*
X56483Y-34418D01*
X56393Y-34381D01*
X56296Y-34381D01*
X56046Y-34381D01*
X55957Y-34418D01*
X55888Y-34486D01*
X55851Y-34576D01*
X55851Y-34673D01*
X55851Y-35123D01*
X55888Y-35212D01*
X55917Y-35241D01*
X55917Y-35982D01*
X55786Y-36113D01*
X55706Y-36305D01*
X55706Y-36513D01*
X55786Y-36706D01*
X55927Y-36847D01*
X55927Y-37498D01*
X55898Y-37526D01*
X55861Y-37616D01*
X55861Y-37713D01*
X55861Y-38017D01*
X55810Y-38017D01*
X55518Y-37725D01*
X55518Y-35026D01*
X55518Y-34676D01*
X55481Y-34587D01*
X55419Y-34524D01*
X55481Y-34463D01*
X55518Y-34373D01*
X55518Y-34276D01*
X55518Y-33926D01*
X55481Y-33837D01*
X55413Y-33768D01*
X55323Y-33731D01*
X55226Y-33731D01*
X54676Y-33731D01*
X54587Y-33768D01*
X54518Y-33836D01*
X54514Y-33847D01*
X54439Y-33847D01*
X54439Y-33832D01*
X54402Y-33743D01*
X54334Y-33674D01*
X54244Y-33637D01*
X54147Y-33637D01*
X53675Y-33637D01*
X53586Y-33674D01*
X53517Y-33742D01*
X53480Y-33832D01*
X53480Y-33929D01*
X53480Y-34401D01*
X53517Y-34490D01*
X53556Y-34530D01*
X53517Y-34569D01*
X53480Y-34658D01*
X53480Y-34825D01*
X53541Y-34886D01*
X53903Y-34886D01*
X53903Y-34878D01*
X54016Y-34878D01*
X54016Y-34886D01*
X54378Y-34886D01*
X54439Y-34825D01*
X54439Y-34658D01*
X54402Y-34569D01*
X54363Y-34529D01*
X54402Y-34491D01*
X54418Y-34452D01*
X54514Y-34452D01*
X54518Y-34462D01*
X54580Y-34525D01*
X54518Y-34586D01*
X54481Y-34676D01*
X54481Y-34773D01*
X54481Y-35123D01*
X54518Y-35212D01*
X54586Y-35281D01*
X54660Y-35311D01*
X54439Y-35533D01*
X54439Y-35227D01*
X54439Y-35060D01*
X54378Y-34999D01*
X54016Y-34999D01*
X54016Y-35361D01*
X54077Y-35422D01*
X54147Y-35422D01*
X54244Y-35422D01*
X54334Y-35385D01*
X54402Y-35316D01*
X54439Y-35227D01*
X54439Y-35533D01*
X54303Y-35668D01*
X54298Y-35668D01*
X54165Y-35723D01*
X54063Y-35825D01*
X54008Y-35957D01*
X54008Y-36101D01*
X54063Y-36234D01*
X54165Y-36336D01*
X54297Y-36391D01*
X54441Y-36391D01*
X54574Y-36336D01*
X54676Y-36234D01*
X54731Y-36102D01*
X54731Y-36096D01*
X55213Y-35613D01*
X55279Y-35515D01*
X55302Y-35400D01*
X55302Y-35318D01*
X55323Y-35318D01*
X55412Y-35281D01*
X55481Y-35213D01*
X55518Y-35123D01*
X55518Y-35026D01*
X55518Y-37725D01*
X55253Y-37461D01*
X55155Y-37395D01*
X55040Y-37372D01*
X53903Y-37372D01*
X53903Y-35361D01*
X53903Y-34999D01*
X53541Y-34999D01*
X53480Y-35060D01*
X53480Y-35227D01*
X53517Y-35316D01*
X53585Y-35385D01*
X53675Y-35422D01*
X53772Y-35422D01*
X53842Y-35422D01*
X53903Y-35361D01*
X53903Y-37372D01*
X52465Y-37372D01*
X51797Y-37372D01*
X51797Y-37115D01*
X51760Y-37026D01*
X51692Y-36957D01*
X51659Y-36944D01*
X51659Y-35966D01*
X51691Y-35952D01*
X51760Y-35884D01*
X51797Y-35794D01*
X51797Y-35698D01*
X51797Y-35452D01*
X52033Y-35452D01*
X52061Y-35481D01*
X52151Y-35518D01*
X52248Y-35518D01*
X52698Y-35518D01*
X52787Y-35481D01*
X52856Y-35413D01*
X52893Y-35323D01*
X52893Y-35226D01*
X52893Y-34976D01*
X52856Y-34887D01*
X52819Y-34850D01*
X52856Y-34812D01*
X52893Y-34723D01*
X52893Y-34376D01*
X52856Y-34287D01*
X52788Y-34218D01*
X52698Y-34181D01*
X52601Y-34181D01*
X52542Y-34181D01*
X52481Y-34242D01*
X52481Y-34493D01*
X52832Y-34493D01*
X52893Y-34432D01*
X52893Y-34376D01*
X52893Y-34723D01*
X52893Y-34667D01*
X52832Y-34606D01*
X52481Y-34606D01*
X52481Y-34614D01*
X52368Y-34614D01*
X52368Y-34606D01*
X52368Y-34493D01*
X52368Y-34242D01*
X52307Y-34181D01*
X52248Y-34181D01*
X52151Y-34181D01*
X52061Y-34218D01*
X51993Y-34287D01*
X51956Y-34376D01*
X51956Y-34432D01*
X52017Y-34493D01*
X52368Y-34493D01*
X52368Y-34606D01*
X52017Y-34606D01*
X51956Y-34667D01*
X51956Y-34723D01*
X51993Y-34812D01*
X52028Y-34847D01*
X51797Y-34847D01*
X51797Y-34438D01*
X51760Y-34348D01*
X51692Y-34280D01*
X51602Y-34243D01*
X51506Y-34243D01*
X51112Y-34243D01*
X51022Y-34280D01*
X50954Y-34348D01*
X50917Y-34437D01*
X50917Y-34534D01*
X50917Y-35794D01*
X50954Y-35883D01*
X51022Y-35952D01*
X51055Y-35965D01*
X51055Y-36943D01*
X51022Y-36957D01*
X50954Y-37025D01*
X50917Y-37115D01*
X50917Y-37211D01*
X50917Y-38471D01*
X50954Y-38561D01*
X51022Y-38629D01*
X51055Y-38643D01*
X51055Y-38727D01*
X51078Y-38843D01*
X51143Y-38941D01*
X51222Y-39020D01*
X51152Y-39049D01*
X50999Y-39201D01*
X50916Y-39401D01*
X50916Y-39617D01*
X50999Y-39817D01*
X51151Y-39970D01*
X51247Y-40009D01*
X51152Y-40049D01*
X51042Y-40158D01*
X51042Y-40155D01*
X51042Y-40154D01*
X51022Y-40050D01*
X50962Y-39962D01*
X50962Y-39962D01*
X50262Y-39262D01*
X50222Y-39221D01*
X50222Y-38471D01*
X50222Y-37115D01*
X50222Y-35794D01*
X50222Y-34438D01*
X50185Y-34348D01*
X50117Y-34280D01*
X50028Y-34243D01*
X49931Y-34243D01*
X49900Y-34243D01*
X49839Y-34304D01*
X49839Y-35059D01*
X50161Y-35059D01*
X50222Y-34998D01*
X50222Y-34438D01*
X50222Y-35794D01*
X50222Y-35233D01*
X50161Y-35173D01*
X49839Y-35173D01*
X49839Y-35928D01*
X49900Y-35989D01*
X49931Y-35989D01*
X50028Y-35989D01*
X50117Y-35952D01*
X50185Y-35883D01*
X50222Y-35794D01*
X50222Y-37115D01*
X50185Y-37026D01*
X50117Y-36957D01*
X50028Y-36920D01*
X49931Y-36920D01*
X49900Y-36920D01*
X49839Y-36981D01*
X49839Y-37736D01*
X50161Y-37736D01*
X50222Y-37676D01*
X50222Y-37115D01*
X50222Y-38471D01*
X50222Y-37911D01*
X50161Y-37850D01*
X49839Y-37850D01*
X49839Y-38605D01*
X49900Y-38666D01*
X49931Y-38666D01*
X50028Y-38666D01*
X50117Y-38629D01*
X50185Y-38561D01*
X50222Y-38471D01*
X50222Y-39221D01*
X49666Y-38665D01*
X49725Y-38605D01*
X49725Y-37850D01*
X49718Y-37850D01*
X49718Y-37736D01*
X49725Y-37736D01*
X49725Y-36981D01*
X49665Y-36920D01*
X49633Y-36920D01*
X49537Y-36920D01*
X49447Y-36957D01*
X49412Y-36992D01*
X49412Y-35917D01*
X49447Y-35952D01*
X49537Y-35989D01*
X49633Y-35989D01*
X49665Y-35989D01*
X49725Y-35928D01*
X49725Y-35173D01*
X49718Y-35173D01*
X49718Y-35059D01*
X49725Y-35059D01*
X49725Y-34304D01*
X49665Y-34243D01*
X49633Y-34243D01*
X49537Y-34243D01*
X49447Y-34280D01*
X49412Y-34315D01*
X49412Y-31373D01*
X49459Y-31487D01*
X49612Y-31640D01*
X49812Y-31723D01*
X50028Y-31723D01*
X50228Y-31640D01*
X50381Y-31488D01*
X50419Y-31394D01*
X50458Y-31487D01*
X50611Y-31640D01*
X50810Y-31723D01*
X51026Y-31723D01*
X51226Y-31640D01*
X51379Y-31488D01*
X51419Y-31392D01*
X51458Y-31487D01*
X51611Y-31640D01*
X51810Y-31723D01*
X52026Y-31723D01*
X52226Y-31640D01*
X52379Y-31488D01*
X52419Y-31392D01*
X52458Y-31487D01*
X52611Y-31640D01*
X52810Y-31723D01*
X53026Y-31723D01*
X53226Y-31640D01*
X53379Y-31488D01*
X53419Y-31392D01*
X53458Y-31487D01*
X53611Y-31640D01*
X53810Y-31723D01*
X54026Y-31723D01*
X54226Y-31640D01*
X54375Y-31491D01*
X54375Y-31528D01*
X54412Y-31617D01*
X54481Y-31686D01*
X54570Y-31723D01*
X54667Y-31723D01*
X55267Y-31723D01*
X55356Y-31686D01*
X55425Y-31618D01*
X55462Y-31528D01*
X55462Y-31431D01*
X55462Y-31102D01*
X68181Y-31102D01*
X68552Y-31473D01*
X68552Y-34453D01*
X68536Y-34437D01*
X68447Y-34400D01*
X68283Y-34400D01*
X68283Y-32248D01*
X68132Y-31883D01*
X67853Y-31603D01*
X67488Y-31451D01*
X67093Y-31451D01*
X66728Y-31602D01*
X66448Y-31881D01*
X66296Y-32246D01*
X66296Y-32641D01*
X66447Y-33006D01*
X66726Y-33286D01*
X67091Y-33438D01*
X67486Y-33438D01*
X67851Y-33287D01*
X68131Y-33008D01*
X68283Y-32643D01*
X68283Y-32248D01*
X68283Y-34400D01*
X68280Y-34400D01*
X68219Y-34461D01*
X68219Y-34823D01*
X68227Y-34823D01*
X68227Y-34936D01*
X68219Y-34936D01*
X68219Y-35298D01*
X68280Y-35359D01*
X68447Y-35359D01*
X68536Y-35322D01*
X68552Y-35306D01*
X68552Y-49631D01*
X68552Y-49631D01*
G37*
G54D39*
X68552Y-49631D02*
X68073Y-50110D01*
X68073Y-48823D01*
X68073Y-38823D01*
X67922Y-38458D01*
X67643Y-38178D01*
X67278Y-38026D01*
X66883Y-38026D01*
X66518Y-38177D01*
X66238Y-38456D01*
X66086Y-38821D01*
X66086Y-39216D01*
X66237Y-39581D01*
X66516Y-39861D01*
X66881Y-40013D01*
X67276Y-40013D01*
X67641Y-39862D01*
X67921Y-39583D01*
X68073Y-39218D01*
X68073Y-38823D01*
X68073Y-48823D01*
X67922Y-48458D01*
X67643Y-48178D01*
X67629Y-48172D01*
X67629Y-45693D01*
X67615Y-45477D01*
X67559Y-45341D01*
X67466Y-45313D01*
X67386Y-45393D01*
X67386Y-45233D01*
X67358Y-45140D01*
X67153Y-45070D01*
X66937Y-45084D01*
X66801Y-45140D01*
X66773Y-45233D01*
X67080Y-45539D01*
X67386Y-45233D01*
X67386Y-45393D01*
X67160Y-45620D01*
X67466Y-45926D01*
X67559Y-45898D01*
X67629Y-45693D01*
X67629Y-48172D01*
X67386Y-48071D01*
X67386Y-46006D01*
X67080Y-45700D01*
X66773Y-46006D01*
X66801Y-46099D01*
X67006Y-46169D01*
X67222Y-46155D01*
X67358Y-46099D01*
X67386Y-46006D01*
X67386Y-48071D01*
X67278Y-48026D01*
X66883Y-48026D01*
X66518Y-48177D01*
X66238Y-48456D01*
X66086Y-48821D01*
X66086Y-49216D01*
X66237Y-49581D01*
X66516Y-49861D01*
X66881Y-50013D01*
X67276Y-50013D01*
X67641Y-49862D01*
X67921Y-49583D01*
X68073Y-49218D01*
X68073Y-48823D01*
X68073Y-50110D01*
X67946Y-50237D01*
X65269Y-50237D01*
X65269Y-50130D01*
X65208Y-50069D01*
X64846Y-50069D01*
X64846Y-50077D01*
X64733Y-50077D01*
X64733Y-50069D01*
X64371Y-50069D01*
X64310Y-50130D01*
X64310Y-50237D01*
X64062Y-50237D01*
X64062Y-49831D01*
X64025Y-49742D01*
X63957Y-49673D01*
X63867Y-49636D01*
X63830Y-49636D01*
X63979Y-49488D01*
X64062Y-49288D01*
X64062Y-49072D01*
X63980Y-48872D01*
X63827Y-48719D01*
X63821Y-48717D01*
X63821Y-48554D01*
X63798Y-48438D01*
X63798Y-48438D01*
X63733Y-48340D01*
X63476Y-48083D01*
X63476Y-48078D01*
X63442Y-47997D01*
X64230Y-47997D01*
X64294Y-47997D01*
X64298Y-48007D01*
X64360Y-48070D01*
X64298Y-48131D01*
X64261Y-48221D01*
X64261Y-48318D01*
X64261Y-48668D01*
X64298Y-48757D01*
X64350Y-48809D01*
X64347Y-48812D01*
X64310Y-48902D01*
X64310Y-48999D01*
X64310Y-49471D01*
X64347Y-49560D01*
X64386Y-49600D01*
X64347Y-49639D01*
X64310Y-49728D01*
X64310Y-49895D01*
X64371Y-49956D01*
X64733Y-49956D01*
X64733Y-49948D01*
X64846Y-49948D01*
X64846Y-49956D01*
X65208Y-49956D01*
X65269Y-49895D01*
X65269Y-49728D01*
X65232Y-49639D01*
X65193Y-49599D01*
X65232Y-49561D01*
X65269Y-49471D01*
X65269Y-49374D01*
X65269Y-48902D01*
X65232Y-48813D01*
X65219Y-48800D01*
X65261Y-48758D01*
X65298Y-48668D01*
X65298Y-48571D01*
X65298Y-48221D01*
X65261Y-48132D01*
X65199Y-48069D01*
X65261Y-48008D01*
X65298Y-47918D01*
X65298Y-47821D01*
X65298Y-47471D01*
X65261Y-47382D01*
X65193Y-47313D01*
X65103Y-47276D01*
X65006Y-47276D01*
X64456Y-47276D01*
X64367Y-47313D01*
X64298Y-47381D01*
X64294Y-47392D01*
X64230Y-47392D01*
X63252Y-47392D01*
X63207Y-47373D01*
X63063Y-47373D01*
X62930Y-47428D01*
X62828Y-47530D01*
X62773Y-47662D01*
X62773Y-47806D01*
X62824Y-47929D01*
X62808Y-47945D01*
X62753Y-48077D01*
X62753Y-48221D01*
X62808Y-48354D01*
X62910Y-48456D01*
X63042Y-48511D01*
X63048Y-48511D01*
X63216Y-48679D01*
X63216Y-48717D01*
X63211Y-48719D01*
X63058Y-48871D01*
X63019Y-48967D01*
X62980Y-48872D01*
X62827Y-48719D01*
X62627Y-48636D01*
X62411Y-48636D01*
X62317Y-48675D01*
X62317Y-47683D01*
X62361Y-47577D01*
X62361Y-47433D01*
X62306Y-47300D01*
X62204Y-47198D01*
X62072Y-47143D01*
X62013Y-47143D01*
X61991Y-47090D01*
X61889Y-46988D01*
X61757Y-46933D01*
X61678Y-46933D01*
X61666Y-46905D01*
X61564Y-46803D01*
X61432Y-46748D01*
X61377Y-46748D01*
X61376Y-46745D01*
X61274Y-46643D01*
X61142Y-46588D01*
X61131Y-46588D01*
X61121Y-46565D01*
X61052Y-46496D01*
X61580Y-46496D01*
X61669Y-46459D01*
X61738Y-46391D01*
X61775Y-46301D01*
X61775Y-46204D01*
X61775Y-45968D01*
X61740Y-45884D01*
X61775Y-45801D01*
X61775Y-45704D01*
X61775Y-45468D01*
X61740Y-45385D01*
X61775Y-45301D01*
X61775Y-45252D01*
X61714Y-45191D01*
X61283Y-45191D01*
X61283Y-45199D01*
X61170Y-45199D01*
X61170Y-45191D01*
X60739Y-45191D01*
X60678Y-45252D01*
X60678Y-45263D01*
X60645Y-45249D01*
X60548Y-45249D01*
X60729Y-45068D01*
X60739Y-45078D01*
X61170Y-45078D01*
X61170Y-45070D01*
X61283Y-45070D01*
X61283Y-45078D01*
X61714Y-45078D01*
X61775Y-45017D01*
X61775Y-44968D01*
X61740Y-44884D01*
X61775Y-44801D01*
X61775Y-44704D01*
X61775Y-44468D01*
X61738Y-44379D01*
X61670Y-44310D01*
X61580Y-44273D01*
X61483Y-44273D01*
X60873Y-44273D01*
X60784Y-44310D01*
X60762Y-44332D01*
X60735Y-44332D01*
X60619Y-44355D01*
X60597Y-44370D01*
X60771Y-44196D01*
X60783Y-44209D01*
X60873Y-44246D01*
X60970Y-44246D01*
X61580Y-44246D01*
X61669Y-44209D01*
X61738Y-44141D01*
X61775Y-44051D01*
X61775Y-43954D01*
X61775Y-43718D01*
X61770Y-43707D01*
X61940Y-43707D01*
X62063Y-43682D01*
X62167Y-43612D01*
X62199Y-43580D01*
X62224Y-43580D01*
X62371Y-43519D01*
X62484Y-43407D01*
X62545Y-43260D01*
X62545Y-43100D01*
X62484Y-42953D01*
X62372Y-42840D01*
X62225Y-42779D01*
X62065Y-42779D01*
X61918Y-42840D01*
X61805Y-42952D01*
X61775Y-43024D01*
X61775Y-43002D01*
X61714Y-42941D01*
X61283Y-42941D01*
X61283Y-42949D01*
X61170Y-42949D01*
X61170Y-42941D01*
X61162Y-42941D01*
X61162Y-42828D01*
X61170Y-42828D01*
X61170Y-42820D01*
X61283Y-42820D01*
X61283Y-42828D01*
X61714Y-42828D01*
X61775Y-42767D01*
X61775Y-42718D01*
X61740Y-42634D01*
X61775Y-42551D01*
X61775Y-42454D01*
X61775Y-42218D01*
X61738Y-42129D01*
X61670Y-42060D01*
X61580Y-42023D01*
X61483Y-42023D01*
X60873Y-42023D01*
X60784Y-42060D01*
X60752Y-42092D01*
X60684Y-42105D01*
X60586Y-42171D01*
X60483Y-42273D01*
X60465Y-42181D01*
X60484Y-42083D01*
X60465Y-41984D01*
X60484Y-41886D01*
X60466Y-41794D01*
X64008Y-41794D01*
X64123Y-41771D01*
X64123Y-41771D01*
X64221Y-41705D01*
X64858Y-41069D01*
X64858Y-41288D01*
X63901Y-42245D01*
X63901Y-42218D01*
X63864Y-42129D01*
X63796Y-42060D01*
X63706Y-42023D01*
X63609Y-42023D01*
X62999Y-42023D01*
X62910Y-42060D01*
X62841Y-42128D01*
X62804Y-42218D01*
X62804Y-42315D01*
X62804Y-42551D01*
X62839Y-42635D01*
X62804Y-42718D01*
X62804Y-42815D01*
X62804Y-43051D01*
X62839Y-43135D01*
X62804Y-43218D01*
X62804Y-43315D01*
X62804Y-43551D01*
X62839Y-43635D01*
X62804Y-43718D01*
X62804Y-43815D01*
X62804Y-44051D01*
X62841Y-44140D01*
X62909Y-44209D01*
X62999Y-44246D01*
X63096Y-44246D01*
X63706Y-44246D01*
X63711Y-44244D01*
X63705Y-44273D01*
X63609Y-44273D01*
X62999Y-44273D01*
X62910Y-44310D01*
X62841Y-44378D01*
X62804Y-44468D01*
X62804Y-44565D01*
X62804Y-44801D01*
X62839Y-44885D01*
X62804Y-44968D01*
X62804Y-45065D01*
X62804Y-45301D01*
X62839Y-45385D01*
X62804Y-45468D01*
X62804Y-45565D01*
X62804Y-45801D01*
X62839Y-45885D01*
X62804Y-45968D01*
X62804Y-46065D01*
X62804Y-46301D01*
X62841Y-46390D01*
X62909Y-46459D01*
X62999Y-46496D01*
X63096Y-46496D01*
X63698Y-46496D01*
X63698Y-46705D01*
X63724Y-46835D01*
X63798Y-46946D01*
X63993Y-47141D01*
X63993Y-47141D01*
X64104Y-47215D01*
X64104Y-47215D01*
X64208Y-47236D01*
X64234Y-47241D01*
X64234Y-47241D01*
X64235Y-47241D01*
X64352Y-47241D01*
X64416Y-47268D01*
X64513Y-47268D01*
X64963Y-47268D01*
X65027Y-47241D01*
X65065Y-47241D01*
X65195Y-47215D01*
X65306Y-47141D01*
X65696Y-46751D01*
X65696Y-46751D01*
X65696Y-46751D01*
X65724Y-46710D01*
X65731Y-46713D01*
X65828Y-46713D01*
X66428Y-46713D01*
X66517Y-46676D01*
X66586Y-46608D01*
X66623Y-46518D01*
X66623Y-46421D01*
X66623Y-45904D01*
X66693Y-45926D01*
X66999Y-45620D01*
X66693Y-45313D01*
X66600Y-45341D01*
X66530Y-45546D01*
X66539Y-45685D01*
X66518Y-45663D01*
X66428Y-45626D01*
X66331Y-45626D01*
X65796Y-45626D01*
X65796Y-45621D01*
X65853Y-45564D01*
X65971Y-45613D01*
X66187Y-45613D01*
X66387Y-45530D01*
X66540Y-45378D01*
X66623Y-45178D01*
X66623Y-44962D01*
X66581Y-44861D01*
X66653Y-44861D01*
X66771Y-44980D01*
X66971Y-45063D01*
X67187Y-45063D01*
X67387Y-44980D01*
X67540Y-44828D01*
X67623Y-44628D01*
X67623Y-44412D01*
X67540Y-44212D01*
X67388Y-44059D01*
X67232Y-43994D01*
X67387Y-43930D01*
X67540Y-43778D01*
X67623Y-43578D01*
X67623Y-43362D01*
X67623Y-42262D01*
X67540Y-42062D01*
X67388Y-41909D01*
X67188Y-41826D01*
X66972Y-41826D01*
X66772Y-41909D01*
X66619Y-42061D01*
X66536Y-42261D01*
X66536Y-42477D01*
X66619Y-42677D01*
X66771Y-42830D01*
X66971Y-42913D01*
X67187Y-42913D01*
X67387Y-42830D01*
X67540Y-42678D01*
X67623Y-42478D01*
X67623Y-42262D01*
X67623Y-43362D01*
X67540Y-43162D01*
X67388Y-43009D01*
X67188Y-42926D01*
X66972Y-42926D01*
X66772Y-43009D01*
X66623Y-43158D01*
X66623Y-42812D01*
X66540Y-42612D01*
X66388Y-42459D01*
X66188Y-42376D01*
X65972Y-42376D01*
X65772Y-42459D01*
X65619Y-42611D01*
X65536Y-42811D01*
X65536Y-43027D01*
X65619Y-43227D01*
X65771Y-43380D01*
X65920Y-43441D01*
X65801Y-43490D01*
X65773Y-43583D01*
X66080Y-43889D01*
X66386Y-43583D01*
X66358Y-43490D01*
X66228Y-43446D01*
X66387Y-43380D01*
X66540Y-43228D01*
X66623Y-43028D01*
X66623Y-42812D01*
X66623Y-43158D01*
X66619Y-43161D01*
X66536Y-43361D01*
X66536Y-43577D01*
X66619Y-43777D01*
X66771Y-43930D01*
X66927Y-43995D01*
X66772Y-44059D01*
X66653Y-44178D01*
X66582Y-44178D01*
X66629Y-44043D01*
X66615Y-43827D01*
X66559Y-43691D01*
X66466Y-43663D01*
X66160Y-43970D01*
X66165Y-43975D01*
X66085Y-44055D01*
X66080Y-44050D01*
X66074Y-44055D01*
X65994Y-43975D01*
X65999Y-43970D01*
X65693Y-43663D01*
X65600Y-43691D01*
X65530Y-43896D01*
X65540Y-44052D01*
X65426Y-43938D01*
X65315Y-43864D01*
X65303Y-43861D01*
X65303Y-43831D01*
X65266Y-43742D01*
X65198Y-43673D01*
X65108Y-43636D01*
X65011Y-43636D01*
X64211Y-43636D01*
X64122Y-43673D01*
X64053Y-43741D01*
X64016Y-43831D01*
X64016Y-43879D01*
X63928Y-43938D01*
X63928Y-43938D01*
X63901Y-43965D01*
X63901Y-43954D01*
X63901Y-43718D01*
X63890Y-43691D01*
X63986Y-43626D01*
X65580Y-42033D01*
X65619Y-42127D01*
X65771Y-42280D01*
X65971Y-42363D01*
X66187Y-42363D01*
X66387Y-42280D01*
X66540Y-42128D01*
X66623Y-41928D01*
X66623Y-41712D01*
X66540Y-41512D01*
X66388Y-41359D01*
X66188Y-41276D01*
X65972Y-41276D01*
X65841Y-41330D01*
X65841Y-35961D01*
X65921Y-35961D01*
X66054Y-35906D01*
X66156Y-35804D01*
X66211Y-35672D01*
X66211Y-35528D01*
X66156Y-35395D01*
X66140Y-35379D01*
X66147Y-35376D01*
X66210Y-35314D01*
X66271Y-35376D01*
X66361Y-35413D01*
X66458Y-35413D01*
X66808Y-35413D01*
X66897Y-35376D01*
X66957Y-35316D01*
X66962Y-35322D01*
X67052Y-35359D01*
X67149Y-35359D01*
X67621Y-35359D01*
X67710Y-35322D01*
X67750Y-35283D01*
X67789Y-35322D01*
X67878Y-35359D01*
X68045Y-35359D01*
X68106Y-35298D01*
X68106Y-34936D01*
X68098Y-34936D01*
X68098Y-34823D01*
X68106Y-34823D01*
X68106Y-34461D01*
X68045Y-34400D01*
X67878Y-34400D01*
X67789Y-34437D01*
X67749Y-34476D01*
X67711Y-34437D01*
X67621Y-34400D01*
X67524Y-34400D01*
X67052Y-34400D01*
X66963Y-34437D01*
X66942Y-34458D01*
X66898Y-34413D01*
X66808Y-34376D01*
X66711Y-34376D01*
X66361Y-34376D01*
X66272Y-34413D01*
X66209Y-34475D01*
X66148Y-34413D01*
X66058Y-34376D01*
X65961Y-34376D01*
X65611Y-34376D01*
X65522Y-34413D01*
X65453Y-34481D01*
X65416Y-34571D01*
X65416Y-34668D01*
X65416Y-35103D01*
X64856Y-34543D01*
X64745Y-34469D01*
X64615Y-34443D01*
X64541Y-34443D01*
X64541Y-34310D01*
X64515Y-34179D01*
X64441Y-34068D01*
X64361Y-33988D01*
X64788Y-33988D01*
X64877Y-33951D01*
X64946Y-33883D01*
X64983Y-33793D01*
X64983Y-33696D01*
X64983Y-33096D01*
X64946Y-33007D01*
X64878Y-32938D01*
X64788Y-32901D01*
X64691Y-32901D01*
X64439Y-32901D01*
X64439Y-32518D01*
X64425Y-32302D01*
X64369Y-32166D01*
X64276Y-32138D01*
X64196Y-32218D01*
X64196Y-32058D01*
X64168Y-31965D01*
X63963Y-31895D01*
X63747Y-31909D01*
X63611Y-31965D01*
X63583Y-32058D01*
X63890Y-32364D01*
X64196Y-32058D01*
X64196Y-32218D01*
X63970Y-32445D01*
X64276Y-32751D01*
X64369Y-32723D01*
X64439Y-32518D01*
X64439Y-32901D01*
X64174Y-32901D01*
X64196Y-32831D01*
X63890Y-32525D01*
X63809Y-32605D01*
X63809Y-32445D01*
X63503Y-32138D01*
X63410Y-32166D01*
X63340Y-32371D01*
X63354Y-32587D01*
X63410Y-32723D01*
X63503Y-32751D01*
X63809Y-32445D01*
X63809Y-32605D01*
X63583Y-32831D01*
X63611Y-32924D01*
X63816Y-32994D01*
X63955Y-32985D01*
X63933Y-33006D01*
X63896Y-33096D01*
X63896Y-33193D01*
X63896Y-33523D01*
X63883Y-33509D01*
X63883Y-33337D01*
X63800Y-33137D01*
X63648Y-32984D01*
X63448Y-32901D01*
X63232Y-32901D01*
X63032Y-32984D01*
X62879Y-33136D01*
X62796Y-33336D01*
X62796Y-33552D01*
X62879Y-33752D01*
X63031Y-33905D01*
X63231Y-33988D01*
X63395Y-33988D01*
X63723Y-34316D01*
X63676Y-34316D01*
X63426Y-34316D01*
X63337Y-34353D01*
X63268Y-34421D01*
X63260Y-34443D01*
X63223Y-34443D01*
X63223Y-34336D01*
X63186Y-34247D01*
X63118Y-34178D01*
X63028Y-34141D01*
X62931Y-34141D01*
X62789Y-34141D01*
X62789Y-33518D01*
X62775Y-33302D01*
X62719Y-33166D01*
X62626Y-33138D01*
X62320Y-33445D01*
X62626Y-33751D01*
X62719Y-33723D01*
X62789Y-33518D01*
X62789Y-34141D01*
X62331Y-34141D01*
X62242Y-34178D01*
X62173Y-34246D01*
X62136Y-34336D01*
X62136Y-34433D01*
X62136Y-35118D01*
X61923Y-35118D01*
X61923Y-34336D01*
X61886Y-34247D01*
X61818Y-34178D01*
X61787Y-34166D01*
X61956Y-33996D01*
X61956Y-33996D01*
X61956Y-33996D01*
X61997Y-33936D01*
X61997Y-33936D01*
X62166Y-33994D01*
X62382Y-33980D01*
X62518Y-33924D01*
X62546Y-33831D01*
X62240Y-33525D01*
X62234Y-33530D01*
X62154Y-33450D01*
X62159Y-33445D01*
X62154Y-33439D01*
X62234Y-33359D01*
X62240Y-33364D01*
X62546Y-33058D01*
X62544Y-33051D01*
X62650Y-33030D01*
X62714Y-32988D01*
X62897Y-32988D01*
X63097Y-32905D01*
X63250Y-32753D01*
X63333Y-32553D01*
X63333Y-32337D01*
X63250Y-32137D01*
X63098Y-31984D01*
X62898Y-31901D01*
X62682Y-31901D01*
X62482Y-31984D01*
X62329Y-32136D01*
X62264Y-32292D01*
X62200Y-32137D01*
X62048Y-31984D01*
X61848Y-31901D01*
X61632Y-31901D01*
X61432Y-31984D01*
X61279Y-32136D01*
X61196Y-32336D01*
X61196Y-32552D01*
X61279Y-32752D01*
X61431Y-32905D01*
X61509Y-32937D01*
X61473Y-32973D01*
X61472Y-32974D01*
X61298Y-32901D01*
X61183Y-32901D01*
X61183Y-32337D01*
X61100Y-32137D01*
X60948Y-31984D01*
X60748Y-31901D01*
X60532Y-31901D01*
X60332Y-31984D01*
X60179Y-32136D01*
X60096Y-32336D01*
X60096Y-32552D01*
X60179Y-32752D01*
X60331Y-32905D01*
X60531Y-32988D01*
X60747Y-32988D01*
X60947Y-32905D01*
X61100Y-32753D01*
X61183Y-32553D01*
X61183Y-32337D01*
X61183Y-32901D01*
X61082Y-32901D01*
X60882Y-32984D01*
X60729Y-33136D01*
X60646Y-33336D01*
X60646Y-33552D01*
X60729Y-33752D01*
X60881Y-33905D01*
X61060Y-33979D01*
X61038Y-34090D01*
X61038Y-34141D01*
X61031Y-34141D01*
X60942Y-34178D01*
X60873Y-34246D01*
X60836Y-34336D01*
X60836Y-34433D01*
X60836Y-35233D01*
X60873Y-35322D01*
X60941Y-35391D01*
X61031Y-35428D01*
X61057Y-35428D01*
X61064Y-35460D01*
X61138Y-35571D01*
X61268Y-35701D01*
X61268Y-35701D01*
X61379Y-35775D01*
X61510Y-35801D01*
X62020Y-35801D01*
X61874Y-35947D01*
X61413Y-35947D01*
X61323Y-35984D01*
X61255Y-36053D01*
X61218Y-36142D01*
X61218Y-36239D01*
X61218Y-36262D01*
X61128Y-36262D01*
X61128Y-36201D01*
X61091Y-36112D01*
X61023Y-36043D01*
X60933Y-36006D01*
X60836Y-36006D01*
X60633Y-36006D01*
X60633Y-33337D01*
X60550Y-33137D01*
X60398Y-32984D01*
X60198Y-32901D01*
X59982Y-32901D01*
X59782Y-32984D01*
X59629Y-33136D01*
X59546Y-33336D01*
X59546Y-33552D01*
X59629Y-33752D01*
X59781Y-33905D01*
X59981Y-33988D01*
X60197Y-33988D01*
X60397Y-33905D01*
X60550Y-33753D01*
X60633Y-33553D01*
X60633Y-33337D01*
X60633Y-36006D01*
X60586Y-36006D01*
X60497Y-36043D01*
X60459Y-36080D01*
X60423Y-36043D01*
X60333Y-36006D01*
X60236Y-36006D01*
X59986Y-36006D01*
X59897Y-36043D01*
X59828Y-36111D01*
X59791Y-36201D01*
X59791Y-36298D01*
X59791Y-36748D01*
X59792Y-36749D01*
X58638Y-37904D01*
X58638Y-37636D01*
X58601Y-37547D01*
X58533Y-37478D01*
X58532Y-37478D01*
X58532Y-36847D01*
X58673Y-36706D01*
X58753Y-36514D01*
X58753Y-36306D01*
X58673Y-36113D01*
X58526Y-35966D01*
X58502Y-35956D01*
X58502Y-35266D01*
X58531Y-35238D01*
X58568Y-35148D01*
X58568Y-35051D01*
X58568Y-34601D01*
X58531Y-34512D01*
X58463Y-34443D01*
X58373Y-34406D01*
X58283Y-34406D01*
X58283Y-32248D01*
X58132Y-31883D01*
X57853Y-31603D01*
X57488Y-31451D01*
X57093Y-31451D01*
X56728Y-31602D01*
X56448Y-31881D01*
X56296Y-32246D01*
X56296Y-32641D01*
X56447Y-33006D01*
X56726Y-33286D01*
X57091Y-33438D01*
X57486Y-33438D01*
X57851Y-33287D01*
X58131Y-33008D01*
X58283Y-32643D01*
X58283Y-32248D01*
X58283Y-34406D01*
X58276Y-34406D01*
X58026Y-34406D01*
X57937Y-34443D01*
X57900Y-34480D01*
X57862Y-34443D01*
X57773Y-34406D01*
X57717Y-34406D01*
X57656Y-34467D01*
X57656Y-34818D01*
X57664Y-34818D01*
X57664Y-34931D01*
X57656Y-34931D01*
X57656Y-35282D01*
X57717Y-35343D01*
X57773Y-35343D01*
X57862Y-35306D01*
X57897Y-35271D01*
X57897Y-36002D01*
X57786Y-36113D01*
X57706Y-36305D01*
X57706Y-36513D01*
X57786Y-36706D01*
X57927Y-36847D01*
X57927Y-37476D01*
X57843Y-37441D01*
X57746Y-37441D01*
X57543Y-37441D01*
X57543Y-35282D01*
X57543Y-34931D01*
X57543Y-34818D01*
X57543Y-34467D01*
X57482Y-34406D01*
X57426Y-34406D01*
X57337Y-34443D01*
X57268Y-34511D01*
X57231Y-34601D01*
X57231Y-34698D01*
X57231Y-34757D01*
X57292Y-34818D01*
X57543Y-34818D01*
X57543Y-34931D01*
X57292Y-34931D01*
X57231Y-34992D01*
X57231Y-35051D01*
X57231Y-35148D01*
X57268Y-35238D01*
X57337Y-35306D01*
X57426Y-35343D01*
X57482Y-35343D01*
X57543Y-35282D01*
X57543Y-37441D01*
X57496Y-37441D01*
X57407Y-37478D01*
X57338Y-37546D01*
X57301Y-37636D01*
X57301Y-37733D01*
X57301Y-37824D01*
X57198Y-37720D01*
X57198Y-37616D01*
X57188Y-37592D01*
X57188Y-35026D01*
X57188Y-34673D01*
X57188Y-34576D01*
X57151Y-34486D01*
X57082Y-34418D01*
X56993Y-34381D01*
X56937Y-34381D01*
X56876Y-34442D01*
X56876Y-34793D01*
X57127Y-34793D01*
X57188Y-34732D01*
X57188Y-34673D01*
X57188Y-35026D01*
X57188Y-34967D01*
X57127Y-34906D01*
X56876Y-34906D01*
X56876Y-35257D01*
X56937Y-35318D01*
X56993Y-35318D01*
X57082Y-35281D01*
X57151Y-35213D01*
X57188Y-35123D01*
X57188Y-35026D01*
X57188Y-37592D01*
X57161Y-37527D01*
X57093Y-37458D01*
X57003Y-37421D01*
X56906Y-37421D01*
X56656Y-37421D01*
X56567Y-37458D01*
X56532Y-37493D01*
X56532Y-36847D01*
X56673Y-36706D01*
X56753Y-36514D01*
X56753Y-36306D01*
X56673Y-36113D01*
X56526Y-35966D01*
X56522Y-35964D01*
X56522Y-35246D01*
X56557Y-35281D01*
X56646Y-35318D01*
X56702Y-35318D01*
X56763Y-35257D01*
X56763Y-34906D01*
X56755Y-34906D01*
X56755Y-34793D01*
X56763Y-34793D01*
X56763Y-34442D01*
X56702Y-34381D01*
X56646Y-34381D01*
X56557Y-34418D01*
X56519Y-34455D01*
X56483Y-34418D01*
X56393Y-34381D01*
X56296Y-34381D01*
X56046Y-34381D01*
X55957Y-34418D01*
X55888Y-34486D01*
X55851Y-34576D01*
X55851Y-34673D01*
X55851Y-35123D01*
X55888Y-35212D01*
X55917Y-35241D01*
X55917Y-35982D01*
X55786Y-36113D01*
X55706Y-36305D01*
X55706Y-36513D01*
X55786Y-36706D01*
X55927Y-36847D01*
X55927Y-37498D01*
X55898Y-37526D01*
X55861Y-37616D01*
X55861Y-37713D01*
X55861Y-38017D01*
X55810Y-38017D01*
X55518Y-37725D01*
X55518Y-35026D01*
X55518Y-34676D01*
X55481Y-34587D01*
X55419Y-34524D01*
X55481Y-34463D01*
X55518Y-34373D01*
X55518Y-34276D01*
X55518Y-33926D01*
X55481Y-33837D01*
X55413Y-33768D01*
X55323Y-33731D01*
X55226Y-33731D01*
X54676Y-33731D01*
X54587Y-33768D01*
X54518Y-33836D01*
X54514Y-33847D01*
X54439Y-33847D01*
X54439Y-33832D01*
X54402Y-33743D01*
X54334Y-33674D01*
X54244Y-33637D01*
X54147Y-33637D01*
X53675Y-33637D01*
X53586Y-33674D01*
X53517Y-33742D01*
X53480Y-33832D01*
X53480Y-33929D01*
X53480Y-34401D01*
X53517Y-34490D01*
X53556Y-34530D01*
X53517Y-34569D01*
X53480Y-34658D01*
X53480Y-34825D01*
X53541Y-34886D01*
X53903Y-34886D01*
X53903Y-34878D01*
X54016Y-34878D01*
X54016Y-34886D01*
X54378Y-34886D01*
X54439Y-34825D01*
X54439Y-34658D01*
X54402Y-34569D01*
X54363Y-34529D01*
X54402Y-34491D01*
X54418Y-34452D01*
X54514Y-34452D01*
X54518Y-34462D01*
X54580Y-34525D01*
X54518Y-34586D01*
X54481Y-34676D01*
X54481Y-34773D01*
X54481Y-35123D01*
X54518Y-35212D01*
X54586Y-35281D01*
X54660Y-35311D01*
X54439Y-35533D01*
X54439Y-35227D01*
X54439Y-35060D01*
X54378Y-34999D01*
X54016Y-34999D01*
X54016Y-35361D01*
X54077Y-35422D01*
X54147Y-35422D01*
X54244Y-35422D01*
X54334Y-35385D01*
X54402Y-35316D01*
X54439Y-35227D01*
X54439Y-35533D01*
X54303Y-35668D01*
X54298Y-35668D01*
X54165Y-35723D01*
X54063Y-35825D01*
X54008Y-35957D01*
X54008Y-36101D01*
X54063Y-36234D01*
X54165Y-36336D01*
X54297Y-36391D01*
X54441Y-36391D01*
X54574Y-36336D01*
X54676Y-36234D01*
X54731Y-36102D01*
X54731Y-36096D01*
X55213Y-35613D01*
X55279Y-35515D01*
X55302Y-35400D01*
X55302Y-35318D01*
X55323Y-35318D01*
X55412Y-35281D01*
X55481Y-35213D01*
X55518Y-35123D01*
X55518Y-35026D01*
X55518Y-37725D01*
X55253Y-37461D01*
X55155Y-37395D01*
X55040Y-37372D01*
X53903Y-37372D01*
X53903Y-35361D01*
X53903Y-34999D01*
X53541Y-34999D01*
X53480Y-35060D01*
X53480Y-35227D01*
X53517Y-35316D01*
X53585Y-35385D01*
X53675Y-35422D01*
X53772Y-35422D01*
X53842Y-35422D01*
X53903Y-35361D01*
X53903Y-37372D01*
X52465Y-37372D01*
X51797Y-37372D01*
X51797Y-37115D01*
X51760Y-37026D01*
X51692Y-36957D01*
X51659Y-36944D01*
X51659Y-35966D01*
X51691Y-35952D01*
X51760Y-35884D01*
X51797Y-35794D01*
X51797Y-35698D01*
X51797Y-35452D01*
X52033Y-35452D01*
X52061Y-35481D01*
X52151Y-35518D01*
X52248Y-35518D01*
X52698Y-35518D01*
X52787Y-35481D01*
X52856Y-35413D01*
X52893Y-35323D01*
X52893Y-35226D01*
X52893Y-34976D01*
X52856Y-34887D01*
X52819Y-34850D01*
X52856Y-34812D01*
X52893Y-34723D01*
X52893Y-34376D01*
X52856Y-34287D01*
X52788Y-34218D01*
X52698Y-34181D01*
X52601Y-34181D01*
X52542Y-34181D01*
X52481Y-34242D01*
X52481Y-34493D01*
X52832Y-34493D01*
X52893Y-34432D01*
X52893Y-34376D01*
X52893Y-34723D01*
X52893Y-34667D01*
X52832Y-34606D01*
X52481Y-34606D01*
X52481Y-34614D01*
X52368Y-34614D01*
X52368Y-34606D01*
X52368Y-34493D01*
X52368Y-34242D01*
X52307Y-34181D01*
X52248Y-34181D01*
X52151Y-34181D01*
X52061Y-34218D01*
X51993Y-34287D01*
X51956Y-34376D01*
X51956Y-34432D01*
X52017Y-34493D01*
X52368Y-34493D01*
X52368Y-34606D01*
X52017Y-34606D01*
X51956Y-34667D01*
X51956Y-34723D01*
X51993Y-34812D01*
X52028Y-34847D01*
X51797Y-34847D01*
X51797Y-34438D01*
X51760Y-34348D01*
X51692Y-34280D01*
X51602Y-34243D01*
X51506Y-34243D01*
X51112Y-34243D01*
X51022Y-34280D01*
X50954Y-34348D01*
X50917Y-34437D01*
X50917Y-34534D01*
X50917Y-35794D01*
X50954Y-35883D01*
X51022Y-35952D01*
X51055Y-35965D01*
X51055Y-36943D01*
X51022Y-36957D01*
X50954Y-37025D01*
X50917Y-37115D01*
X50917Y-37211D01*
X50917Y-38471D01*
X50954Y-38561D01*
X51022Y-38629D01*
X51055Y-38643D01*
X51055Y-38727D01*
X51078Y-38843D01*
X51143Y-38941D01*
X51222Y-39020D01*
X51152Y-39049D01*
X50999Y-39201D01*
X50916Y-39401D01*
X50916Y-39617D01*
X50999Y-39817D01*
X51151Y-39970D01*
X51247Y-40009D01*
X51152Y-40049D01*
X51042Y-40158D01*
X51042Y-40155D01*
X51042Y-40154D01*
X51022Y-40050D01*
X50962Y-39962D01*
X50962Y-39962D01*
X50262Y-39262D01*
X50222Y-39221D01*
X50222Y-38471D01*
X50222Y-37115D01*
X50222Y-35794D01*
X50222Y-34438D01*
X50185Y-34348D01*
X50117Y-34280D01*
X50028Y-34243D01*
X49931Y-34243D01*
X49900Y-34243D01*
X49839Y-34304D01*
X49839Y-35059D01*
X50161Y-35059D01*
X50222Y-34998D01*
X50222Y-34438D01*
X50222Y-35794D01*
X50222Y-35233D01*
X50161Y-35173D01*
X49839Y-35173D01*
X49839Y-35928D01*
X49900Y-35989D01*
X49931Y-35989D01*
X50028Y-35989D01*
X50117Y-35952D01*
X50185Y-35883D01*
X50222Y-35794D01*
X50222Y-37115D01*
X50185Y-37026D01*
X50117Y-36957D01*
X50028Y-36920D01*
X49931Y-36920D01*
X49900Y-36920D01*
X49839Y-36981D01*
X49839Y-37736D01*
X50161Y-37736D01*
X50222Y-37676D01*
X50222Y-37115D01*
X50222Y-38471D01*
X50222Y-37911D01*
X50161Y-37850D01*
X49839Y-37850D01*
X49839Y-38605D01*
X49900Y-38666D01*
X49931Y-38666D01*
X50028Y-38666D01*
X50117Y-38629D01*
X50185Y-38561D01*
X50222Y-38471D01*
X50222Y-39221D01*
X49666Y-38665D01*
X49725Y-38605D01*
X49725Y-37850D01*
X49718Y-37850D01*
X49718Y-37736D01*
X49725Y-37736D01*
X49725Y-36981D01*
X49665Y-36920D01*
X49633Y-36920D01*
X49537Y-36920D01*
X49447Y-36957D01*
X49412Y-36992D01*
X49412Y-35917D01*
X49447Y-35952D01*
X49537Y-35989D01*
X49633Y-35989D01*
X49665Y-35989D01*
X49725Y-35928D01*
X49725Y-35173D01*
X49718Y-35173D01*
X49718Y-35059D01*
X49725Y-35059D01*
X49725Y-34304D01*
X49665Y-34243D01*
X49633Y-34243D01*
X49537Y-34243D01*
X49447Y-34280D01*
X49412Y-34315D01*
X49412Y-31373D01*
X49459Y-31487D01*
X49612Y-31640D01*
X49812Y-31723D01*
X50028Y-31723D01*
X50228Y-31640D01*
X50381Y-31488D01*
X50419Y-31394D01*
X50458Y-31487D01*
X50611Y-31640D01*
X50810Y-31723D01*
X51026Y-31723D01*
X51226Y-31640D01*
X51379Y-31488D01*
X51419Y-31392D01*
X51458Y-31487D01*
X51611Y-31640D01*
X51810Y-31723D01*
X52026Y-31723D01*
X52226Y-31640D01*
X52379Y-31488D01*
X52419Y-31392D01*
X52458Y-31487D01*
X52611Y-31640D01*
X52810Y-31723D01*
X53026Y-31723D01*
X53226Y-31640D01*
X53379Y-31488D01*
X53419Y-31392D01*
X53458Y-31487D01*
X53611Y-31640D01*
X53810Y-31723D01*
X54026Y-31723D01*
X54226Y-31640D01*
X54375Y-31491D01*
X54375Y-31528D01*
X54412Y-31617D01*
X54481Y-31686D01*
X54570Y-31723D01*
X54667Y-31723D01*
X55267Y-31723D01*
X55356Y-31686D01*
X55425Y-31618D01*
X55462Y-31528D01*
X55462Y-31431D01*
X55462Y-31102D01*
X68181Y-31102D01*
X68552Y-31473D01*
X68552Y-34453D01*
X68536Y-34437D01*
X68447Y-34400D01*
X68283Y-34400D01*
X68283Y-32248D01*
X68132Y-31883D01*
X67853Y-31603D01*
X67488Y-31451D01*
X67093Y-31451D01*
X66728Y-31602D01*
X66448Y-31881D01*
X66296Y-32246D01*
X66296Y-32641D01*
X66447Y-33006D01*
X66726Y-33286D01*
X67091Y-33438D01*
X67486Y-33438D01*
X67851Y-33287D01*
X68131Y-33008D01*
X68283Y-32643D01*
X68283Y-32248D01*
X68283Y-34400D01*
X68280Y-34400D01*
X68219Y-34461D01*
X68219Y-34823D01*
X68227Y-34823D01*
X68227Y-34936D01*
X68219Y-34936D01*
X68219Y-35298D01*
X68280Y-35359D01*
X68447Y-35359D01*
X68536Y-35322D01*
X68552Y-35306D01*
X68552Y-49631D01*
M02*
