G04 (created by PCBNEW (2013-07-07 BZR 4022)-stable) date 23/05/2015 20:04:57*
%MOIN*%
G04 Gerber Fmt 3.4, Leading zero omitted, Abs format*
%FSLAX34Y34*%
G01*
G70*
G90*
G04 APERTURE LIST*
%ADD10C,0.00590551*%
%ADD11R,0.08X0.06*%
%ADD12R,0.06X0.08*%
%ADD13R,0.055X0.035*%
%ADD14R,0.035X0.055*%
%ADD15R,0.045X0.025*%
%ADD16R,0.025X0.045*%
%ADD17R,0.06X0.06*%
%ADD18C,0.06*%
%ADD19C,0.056*%
%ADD20C,0.15*%
G04 APERTURE END LIST*
G54D10*
G54D11*
X55135Y-45830D03*
X55135Y-47130D03*
G54D12*
X55320Y-44000D03*
X56620Y-44000D03*
G54D11*
X62295Y-46090D03*
X62295Y-44790D03*
X62300Y-43810D03*
X62300Y-42510D03*
G54D13*
X60785Y-40145D03*
X60785Y-40895D03*
X52645Y-45850D03*
X52645Y-46600D03*
G54D14*
X56615Y-39260D03*
X55865Y-39260D03*
G54D13*
X60780Y-41510D03*
X60780Y-42260D03*
X58220Y-40030D03*
X58220Y-40780D03*
X59075Y-40780D03*
X59075Y-40030D03*
G54D15*
X61105Y-45710D03*
X61105Y-45110D03*
X61150Y-43425D03*
X61150Y-42825D03*
X60075Y-34955D03*
X60075Y-34355D03*
X58990Y-33050D03*
X58990Y-32450D03*
G54D16*
X64550Y-41820D03*
X65150Y-41820D03*
X66260Y-40690D03*
X66860Y-40690D03*
X59190Y-43510D03*
X59790Y-43510D03*
G54D15*
X55880Y-42505D03*
X55880Y-43105D03*
X56635Y-40525D03*
X56635Y-39925D03*
X57350Y-39925D03*
X57350Y-40525D03*
X59150Y-41335D03*
X59150Y-41935D03*
X55875Y-39915D03*
X55875Y-40515D03*
X61980Y-41825D03*
X61980Y-41225D03*
G54D17*
X51460Y-44510D03*
G54D18*
X51460Y-43510D03*
X51460Y-42510D03*
X51460Y-41510D03*
X51460Y-40510D03*
X51460Y-39510D03*
G54D19*
X56230Y-36410D03*
X58230Y-36410D03*
G54D20*
X67290Y-32445D03*
X57290Y-32445D03*
G54D17*
X64440Y-33445D03*
G54D18*
X63340Y-33445D03*
X62240Y-33445D03*
X61190Y-33445D03*
X60090Y-33445D03*
X60640Y-32445D03*
X61740Y-32445D03*
X62790Y-32445D03*
X63890Y-32445D03*
G54D20*
X67080Y-49020D03*
X67080Y-39020D03*
G54D17*
X66080Y-46170D03*
G54D18*
X66080Y-45070D03*
X66080Y-43970D03*
X66080Y-42920D03*
X66080Y-41820D03*
X67080Y-42370D03*
X67080Y-43470D03*
X67080Y-44520D03*
X67080Y-45620D03*
G54D17*
X54919Y-31180D03*
G54D18*
X53919Y-31180D03*
X52919Y-31180D03*
X51919Y-31180D03*
X50919Y-31180D03*
X49920Y-31180D03*
G54D17*
X63519Y-50180D03*
G54D18*
X62519Y-50180D03*
X61519Y-50180D03*
X60519Y-50180D03*
X59519Y-50180D03*
X58519Y-50180D03*
X56519Y-50180D03*
X54519Y-50180D03*
X53519Y-50180D03*
X52519Y-50180D03*
X51519Y-50180D03*
X55519Y-50180D03*
X58519Y-49180D03*
X59519Y-49180D03*
X60519Y-49180D03*
X61519Y-49180D03*
X62519Y-49180D03*
X63519Y-49180D03*
M02*
