G04 (created by PCBNEW (2013-07-07 BZR 4022)-stable) date 23/05/2015 20:04:57*
%MOIN*%
G04 Gerber Fmt 3.4, Leading zero omitted, Abs format*
%FSLAX34Y34*%
G01*
G70*
G90*
G04 APERTURE LIST*
%ADD10C,0.00590551*%
%ADD11R,0.08X0.06*%
%ADD12R,0.06X0.08*%
%ADD13R,0.055X0.035*%
%ADD14R,0.035X0.055*%
%ADD15R,0.045X0.025*%
%ADD16R,0.025X0.045*%
%ADD17R,0.06X0.06*%
%ADD18C,0.06*%
%ADD19C,0.056*%
%ADD20C,0.15*%
%ADD21C,0.023622*%
%ADD22C,0.0314961*%
%ADD23C,0.0433071*%
%ADD24C,0.011811*%
%ADD25C,0.019685*%
%ADD26C,0.015748*%
%ADD27C,0.0275591*%
%ADD28C,0.00866142*%
G04 APERTURE END LIST*
G54D10*
G54D11*
X55135Y-45830D03*
X55135Y-47130D03*
G54D12*
X55320Y-44000D03*
X56620Y-44000D03*
G54D11*
X62295Y-46090D03*
X62295Y-44790D03*
X62300Y-43810D03*
X62300Y-42510D03*
G54D13*
X60785Y-40145D03*
X60785Y-40895D03*
X52645Y-45850D03*
X52645Y-46600D03*
G54D14*
X56615Y-39260D03*
X55865Y-39260D03*
G54D13*
X60780Y-41510D03*
X60780Y-42260D03*
X58220Y-40030D03*
X58220Y-40780D03*
X59075Y-40780D03*
X59075Y-40030D03*
G54D15*
X61105Y-45710D03*
X61105Y-45110D03*
X61150Y-43425D03*
X61150Y-42825D03*
X60075Y-34955D03*
X60075Y-34355D03*
X58990Y-33050D03*
X58990Y-32450D03*
G54D16*
X64550Y-41820D03*
X65150Y-41820D03*
X66260Y-40690D03*
X66860Y-40690D03*
X59190Y-43510D03*
X59790Y-43510D03*
G54D15*
X55880Y-42505D03*
X55880Y-43105D03*
X56635Y-40525D03*
X56635Y-39925D03*
X57350Y-39925D03*
X57350Y-40525D03*
X59150Y-41335D03*
X59150Y-41935D03*
X55875Y-39915D03*
X55875Y-40515D03*
X61980Y-41825D03*
X61980Y-41225D03*
G54D17*
X51460Y-44510D03*
G54D18*
X51460Y-43510D03*
X51460Y-42510D03*
X51460Y-41510D03*
X51460Y-40510D03*
X51460Y-39510D03*
G54D19*
X56230Y-36410D03*
X58230Y-36410D03*
G54D20*
X67290Y-32445D03*
X57290Y-32445D03*
G54D17*
X64440Y-33445D03*
G54D18*
X63340Y-33445D03*
X62240Y-33445D03*
X61190Y-33445D03*
X60090Y-33445D03*
X60640Y-32445D03*
X61740Y-32445D03*
X62790Y-32445D03*
X63890Y-32445D03*
G54D20*
X67080Y-49020D03*
X67080Y-39020D03*
G54D17*
X66080Y-46170D03*
G54D18*
X66080Y-45070D03*
X66080Y-43970D03*
X66080Y-42920D03*
X66080Y-41820D03*
X67080Y-42370D03*
X67080Y-43470D03*
X67080Y-44520D03*
X67080Y-45620D03*
G54D17*
X54919Y-31180D03*
G54D18*
X53919Y-31180D03*
X52919Y-31180D03*
X51919Y-31180D03*
X50919Y-31180D03*
X49920Y-31180D03*
G54D17*
X63519Y-50180D03*
G54D18*
X62519Y-50180D03*
X61519Y-50180D03*
X60519Y-50180D03*
X59519Y-50180D03*
X58519Y-50180D03*
X56519Y-50180D03*
X54519Y-50180D03*
X53519Y-50180D03*
X52519Y-50180D03*
X51519Y-50180D03*
X55519Y-50180D03*
X58519Y-49180D03*
X59519Y-49180D03*
X60519Y-49180D03*
X61519Y-49180D03*
X62519Y-49180D03*
X63519Y-49180D03*
G54D21*
X61815Y-40690D03*
X55890Y-40830D03*
X54630Y-43050D03*
X59790Y-43970D03*
G54D22*
X62145Y-43180D03*
X60565Y-45650D03*
G54D21*
X60580Y-39675D03*
G54D23*
X54440Y-44820D03*
G54D21*
X60305Y-46425D03*
X58090Y-41635D03*
X60815Y-46770D03*
X57295Y-41645D03*
X56605Y-47125D03*
X54350Y-44180D03*
X53865Y-43065D03*
X56860Y-46890D03*
X63115Y-48150D03*
X54640Y-44045D03*
X54230Y-43005D03*
X61360Y-47110D03*
X56610Y-41690D03*
X56270Y-42050D03*
X62000Y-47505D03*
X60560Y-46600D03*
X57625Y-41630D03*
X61070Y-46950D03*
X56920Y-41660D03*
X56565Y-41990D03*
X61685Y-47295D03*
X56340Y-47340D03*
X53950Y-44175D03*
X53500Y-42720D03*
X54585Y-42300D03*
X57635Y-45390D03*
X53805Y-45155D03*
X52085Y-42625D03*
X52880Y-40490D03*
X54370Y-36030D03*
X54360Y-38780D03*
X58080Y-46565D03*
X57975Y-45445D03*
X58360Y-45435D03*
X63135Y-47735D03*
X65850Y-35600D03*
X64815Y-39160D03*
X54300Y-41920D03*
X52820Y-40190D03*
X63720Y-41165D03*
X63380Y-41010D03*
X53550Y-41165D03*
X53855Y-41365D03*
X54140Y-40635D03*
X53225Y-40900D03*
X53185Y-43500D03*
X59400Y-39400D03*
X56800Y-38595D03*
X55910Y-46000D03*
X59195Y-42410D03*
X57100Y-38710D03*
X62890Y-46880D03*
X61905Y-46820D03*
X62315Y-45420D03*
X52390Y-44130D03*
X62515Y-49685D03*
X63525Y-49670D03*
X60535Y-49680D03*
X59530Y-49680D03*
X61510Y-49680D03*
X58510Y-49680D03*
X62700Y-43160D03*
X64760Y-43270D03*
X65170Y-42810D03*
X63755Y-41920D03*
X62880Y-41880D03*
X62715Y-40640D03*
X64005Y-40665D03*
X56595Y-42800D03*
X58480Y-42785D03*
X58970Y-43310D03*
X58370Y-47610D03*
X55950Y-38630D03*
X54925Y-39615D03*
X67060Y-36700D03*
X64610Y-37590D03*
X60680Y-37220D03*
X63170Y-36760D03*
X60530Y-35760D03*
X59440Y-35540D03*
X57355Y-34220D03*
X59250Y-34240D03*
X58560Y-41055D03*
X60030Y-39510D03*
X60050Y-38660D03*
X61640Y-39120D03*
X62780Y-39570D03*
X64010Y-38830D03*
X67045Y-46930D03*
X65780Y-48050D03*
X65720Y-49740D03*
X67030Y-50150D03*
X68345Y-49215D03*
X68345Y-46750D03*
X68350Y-44090D03*
X68345Y-41980D03*
X68275Y-39880D03*
X68245Y-37960D03*
X68140Y-36235D03*
X65175Y-34360D03*
X53275Y-32140D03*
X54160Y-32105D03*
X53270Y-36570D03*
X65460Y-32490D03*
X65870Y-33860D03*
X67980Y-33800D03*
X68440Y-32930D03*
X68260Y-31600D03*
X66770Y-31310D03*
X64880Y-31340D03*
X62970Y-31410D03*
X61190Y-31470D03*
X58830Y-31270D03*
X56140Y-31620D03*
X55780Y-33220D03*
X54780Y-33380D03*
X55420Y-31960D03*
X50515Y-34825D03*
X50485Y-36475D03*
X50470Y-38790D03*
X52410Y-36660D03*
X52790Y-43010D03*
X52020Y-40895D03*
X53355Y-41735D03*
X54375Y-42610D03*
X55855Y-41815D03*
X57255Y-44830D03*
X53600Y-46870D03*
X52700Y-47600D03*
X54020Y-49950D03*
X55035Y-49950D03*
X56025Y-49935D03*
X57460Y-50120D03*
X55690Y-49160D03*
X56000Y-48320D03*
X56550Y-48820D03*
X51105Y-49675D03*
X52025Y-49810D03*
X53015Y-50045D03*
X52425Y-33185D03*
X50390Y-33260D03*
X51420Y-33270D03*
X50410Y-31580D03*
X51430Y-31610D03*
X49400Y-32870D03*
X49400Y-31590D03*
X52430Y-31530D03*
G54D23*
X52755Y-45285D03*
G54D24*
X60785Y-40895D02*
X61205Y-40895D01*
X61610Y-40895D02*
X61205Y-40895D01*
X61815Y-40690D02*
X61610Y-40895D01*
X60785Y-40895D02*
X60785Y-41505D01*
X60785Y-41505D02*
X60780Y-41510D01*
X55875Y-40815D02*
X55875Y-40515D01*
X55890Y-40830D02*
X55875Y-40815D01*
X54630Y-43050D02*
X54940Y-43050D01*
X55005Y-43115D02*
X55005Y-43120D01*
X54940Y-43050D02*
X55005Y-43115D01*
G54D25*
X58445Y-41345D02*
X58445Y-41370D01*
X58900Y-42760D02*
X59810Y-42760D01*
X58605Y-42465D02*
X58900Y-42760D01*
X58605Y-41530D02*
X58605Y-42465D01*
X58445Y-41370D02*
X58605Y-41530D01*
X59810Y-42760D02*
X59810Y-43490D01*
X59810Y-43490D02*
X59790Y-43510D01*
G54D24*
X59790Y-43970D02*
X59790Y-43510D01*
X55185Y-43300D02*
X55320Y-43435D01*
X55005Y-43120D02*
X55185Y-43300D01*
G54D25*
X55320Y-41120D02*
X57710Y-41120D01*
X57935Y-41345D02*
X58445Y-41345D01*
X58445Y-41345D02*
X58605Y-41345D01*
X57710Y-41120D02*
X57935Y-41345D01*
G54D26*
X61900Y-43425D02*
X61800Y-43425D01*
X62145Y-43180D02*
X61900Y-43425D01*
X60490Y-45530D02*
X60490Y-45575D01*
X60490Y-45575D02*
X60565Y-45650D01*
G54D24*
X60785Y-39880D02*
X60785Y-40145D01*
X60580Y-39675D02*
X60785Y-39880D01*
G54D27*
X54440Y-44820D02*
X51770Y-44820D01*
X51770Y-44820D02*
X51460Y-44510D01*
G54D25*
X60785Y-40145D02*
X65130Y-40145D01*
X65675Y-40690D02*
X66260Y-40690D01*
X65130Y-40145D02*
X65675Y-40690D01*
X61150Y-43425D02*
X61800Y-43425D01*
X61800Y-43425D02*
X61915Y-43425D01*
X61915Y-43425D02*
X62300Y-43810D01*
X61105Y-45710D02*
X61915Y-45710D01*
X61915Y-45710D02*
X62295Y-46090D01*
X60490Y-43425D02*
X60490Y-45530D01*
X60670Y-45710D02*
X61105Y-45710D01*
X60490Y-45530D02*
X60670Y-45710D01*
X59810Y-42760D02*
X59810Y-40470D01*
X59810Y-40470D02*
X60135Y-40145D01*
X60135Y-40145D02*
X60785Y-40145D01*
X59810Y-42760D02*
X59825Y-42760D01*
X59825Y-42760D02*
X60490Y-43425D01*
X60490Y-43425D02*
X61150Y-43425D01*
X59055Y-41345D02*
X59055Y-40800D01*
X59055Y-40800D02*
X59075Y-40780D01*
X58605Y-41345D02*
X59055Y-41345D01*
X55320Y-39465D02*
X55320Y-37380D01*
X58990Y-33370D02*
X58990Y-33050D01*
X58645Y-33715D02*
X58990Y-33370D01*
X56335Y-33715D02*
X58645Y-33715D01*
X54880Y-35170D02*
X56335Y-33715D01*
X54880Y-36940D02*
X54880Y-35170D01*
X55320Y-37380D02*
X54880Y-36940D01*
X55320Y-40755D02*
X55320Y-39465D01*
X55875Y-40515D02*
X56625Y-40515D01*
X56625Y-40515D02*
X56635Y-40525D01*
G54D27*
X55880Y-43105D02*
X55650Y-43105D01*
X55650Y-43105D02*
X55320Y-43435D01*
X55320Y-44000D02*
X55320Y-43435D01*
X55320Y-43435D02*
X55320Y-41120D01*
X55320Y-41120D02*
X55320Y-40755D01*
X55560Y-40515D02*
X55875Y-40515D01*
X55320Y-40755D02*
X55560Y-40515D01*
X54830Y-44810D02*
X54830Y-44790D01*
X55320Y-44300D02*
X55320Y-44000D01*
X54830Y-44790D02*
X55320Y-44300D01*
X55135Y-45115D02*
X55135Y-45830D01*
X54830Y-44810D02*
X55135Y-45115D01*
X54450Y-44810D02*
X54830Y-44810D01*
X54440Y-44820D02*
X54450Y-44810D01*
G54D24*
X60240Y-46490D02*
X60305Y-46425D01*
X59840Y-46490D02*
X60240Y-46490D01*
X59710Y-46360D02*
X59840Y-46490D01*
X59710Y-44889D02*
X59710Y-46360D01*
X58210Y-43389D02*
X59710Y-44889D01*
X58210Y-41755D02*
X58210Y-43389D01*
X58090Y-41635D02*
X58210Y-41755D01*
X60735Y-46850D02*
X60815Y-46770D01*
X59684Y-46850D02*
X60735Y-46850D01*
X59351Y-46517D02*
X59684Y-46850D01*
X59351Y-45036D02*
X59351Y-46517D01*
X57847Y-43532D02*
X59351Y-45036D01*
X57847Y-42197D02*
X57847Y-43532D01*
X57295Y-41645D02*
X57847Y-42197D01*
X62519Y-48514D02*
X62519Y-49180D01*
X62245Y-48240D02*
X62519Y-48514D01*
X57720Y-48240D02*
X62245Y-48240D01*
X56605Y-47125D02*
X57720Y-48240D01*
X54350Y-43550D02*
X54350Y-44180D01*
X53865Y-43065D02*
X54350Y-43550D01*
X56860Y-46890D02*
X57970Y-48000D01*
X57970Y-48000D02*
X62965Y-48000D01*
X62965Y-48000D02*
X63115Y-48150D01*
X54640Y-43415D02*
X54640Y-44045D01*
X54230Y-43005D02*
X54640Y-43415D01*
X61260Y-47210D02*
X61360Y-47110D01*
X59522Y-47210D02*
X61260Y-47210D01*
X58980Y-46667D02*
X59522Y-47210D01*
X58980Y-45170D02*
X58980Y-46667D01*
X57492Y-43682D02*
X58980Y-45170D01*
X57492Y-42572D02*
X57492Y-43682D01*
X56610Y-41690D02*
X57492Y-42572D01*
X61695Y-47577D02*
X61927Y-47577D01*
X58615Y-46817D02*
X59375Y-47577D01*
X59375Y-47577D02*
X61695Y-47577D01*
X57130Y-42910D02*
X57130Y-43850D01*
X56270Y-42050D02*
X57130Y-42910D01*
X58450Y-45170D02*
X58615Y-45335D01*
X58615Y-46725D02*
X58615Y-45335D01*
X57130Y-43850D02*
X58450Y-45170D01*
X58615Y-46725D02*
X58615Y-46817D01*
X61927Y-47577D02*
X62000Y-47505D01*
X60487Y-46672D02*
X60560Y-46600D01*
X59760Y-46672D02*
X60487Y-46672D01*
X59530Y-46442D02*
X59760Y-46672D01*
X59530Y-44960D02*
X59530Y-46442D01*
X58024Y-43454D02*
X59530Y-44960D01*
X58024Y-42029D02*
X58024Y-43454D01*
X57625Y-41630D02*
X58024Y-42029D01*
X60987Y-47032D02*
X61070Y-46950D01*
X59595Y-47032D02*
X60987Y-47032D01*
X59160Y-46597D02*
X59595Y-47032D01*
X59160Y-45095D02*
X59160Y-46597D01*
X57670Y-43605D02*
X59160Y-45095D01*
X57670Y-42410D02*
X57670Y-43605D01*
X56920Y-41660D02*
X57670Y-42410D01*
X58800Y-46637D02*
X58800Y-46745D01*
X56565Y-41990D02*
X57315Y-42740D01*
X57315Y-42740D02*
X57315Y-43760D01*
X57315Y-43760D02*
X58800Y-45245D01*
X58800Y-45245D02*
X58800Y-46637D01*
X61585Y-47395D02*
X61685Y-47295D01*
X59450Y-47395D02*
X61585Y-47395D01*
X58800Y-46745D02*
X59450Y-47395D01*
X61519Y-48789D02*
X61519Y-49180D01*
X61155Y-48425D02*
X61519Y-48789D01*
X57425Y-48425D02*
X61155Y-48425D01*
X56340Y-47340D02*
X57425Y-48425D01*
X53565Y-43790D02*
X53950Y-44175D01*
X53565Y-42785D02*
X53565Y-43790D01*
X53500Y-42720D02*
X53565Y-42785D01*
X54919Y-32020D02*
X54919Y-31180D01*
X53950Y-32990D02*
X54919Y-32020D01*
X53950Y-38810D02*
X53950Y-32990D01*
X54580Y-39440D02*
X53950Y-38810D01*
X54580Y-42295D02*
X54580Y-39440D01*
X54585Y-42300D02*
X54580Y-42295D01*
X52085Y-42625D02*
X52085Y-42610D01*
X57635Y-45390D02*
X56505Y-46520D01*
X56505Y-46520D02*
X54380Y-46520D01*
X54380Y-46520D02*
X53805Y-45945D01*
X53805Y-45945D02*
X53805Y-45155D01*
X52270Y-41100D02*
X52880Y-40490D01*
X52270Y-42425D02*
X52270Y-41100D01*
X52085Y-42610D02*
X52270Y-42425D01*
X54370Y-38755D02*
X54370Y-36030D01*
X54370Y-38770D02*
X54370Y-38755D01*
X54360Y-38780D02*
X54370Y-38770D01*
X58080Y-45550D02*
X58080Y-46565D01*
X57975Y-45445D02*
X58080Y-45550D01*
X59295Y-47755D02*
X63115Y-47755D01*
X58360Y-45435D02*
X58420Y-45495D01*
X58420Y-45495D02*
X58420Y-46880D01*
X58420Y-46880D02*
X59295Y-47755D01*
X63115Y-47755D02*
X63135Y-47735D01*
X65850Y-38125D02*
X65850Y-35600D01*
X64815Y-39160D02*
X65850Y-38125D01*
X53665Y-31434D02*
X53919Y-31180D01*
X53665Y-38860D02*
X53665Y-31434D01*
X54395Y-39590D02*
X53665Y-38860D01*
X54395Y-41825D02*
X54395Y-39590D01*
X54300Y-41920D02*
X54395Y-41825D01*
X51519Y-50180D02*
X51519Y-45634D01*
X50970Y-41000D02*
X51460Y-40510D01*
X50970Y-45085D02*
X50970Y-41000D01*
X51519Y-45634D02*
X50970Y-45085D01*
X52500Y-40510D02*
X51460Y-40510D01*
X52820Y-40190D02*
X52500Y-40510D01*
X64100Y-46950D02*
X64100Y-49599D01*
X63720Y-41165D02*
X64100Y-41545D01*
X64100Y-41545D02*
X64100Y-46950D01*
X64100Y-49599D02*
X63519Y-50180D01*
X63425Y-47300D02*
X63425Y-48235D01*
X63380Y-41010D02*
X63425Y-41055D01*
X63425Y-41055D02*
X63425Y-47300D01*
X63010Y-49689D02*
X62519Y-50180D01*
X63010Y-48650D02*
X63010Y-49689D01*
X63425Y-48235D02*
X63010Y-48650D01*
X53550Y-41165D02*
X53550Y-40080D01*
X50919Y-37449D02*
X50919Y-31180D01*
X53550Y-40080D02*
X50919Y-37449D01*
X53855Y-41365D02*
X53855Y-39905D01*
X51919Y-37969D02*
X51919Y-31180D01*
X53855Y-39905D02*
X51919Y-37969D01*
X53995Y-39480D02*
X53995Y-39475D01*
X54105Y-39590D02*
X53995Y-39480D01*
X54105Y-40600D02*
X54105Y-39590D01*
X54140Y-40635D02*
X54105Y-40600D01*
X52919Y-38399D02*
X52919Y-31180D01*
X53995Y-39475D02*
X52919Y-38399D01*
X53225Y-40900D02*
X53225Y-40200D01*
X49920Y-36895D02*
X49920Y-31180D01*
X53225Y-40200D02*
X49920Y-36895D01*
X53175Y-43510D02*
X52865Y-43510D01*
X53185Y-43500D02*
X53175Y-43510D01*
X52865Y-43510D02*
X51460Y-43510D01*
X58220Y-40030D02*
X59075Y-40030D01*
X59075Y-40030D02*
X59400Y-39705D01*
X59400Y-39705D02*
X59400Y-39400D01*
X56615Y-38780D02*
X56615Y-39260D01*
X56800Y-38595D02*
X56615Y-38780D01*
G54D25*
X56615Y-39260D02*
X56615Y-39905D01*
X56615Y-39905D02*
X56635Y-39925D01*
X56635Y-39925D02*
X57350Y-39925D01*
G54D24*
X57255Y-44830D02*
X57040Y-44830D01*
X55910Y-45960D02*
X55910Y-46000D01*
X57040Y-44830D02*
X55910Y-45960D01*
X56595Y-42800D02*
X56595Y-43975D01*
X56595Y-43975D02*
X56620Y-44000D01*
X55880Y-42505D02*
X55880Y-41840D01*
X55880Y-41840D02*
X55855Y-41815D01*
X59150Y-41935D02*
X59150Y-42365D01*
X59150Y-42365D02*
X59195Y-42410D01*
X55950Y-38535D02*
X55950Y-38630D01*
X56380Y-38105D02*
X55950Y-38535D01*
X57005Y-38105D02*
X56380Y-38105D01*
X57200Y-38300D02*
X57005Y-38105D01*
X57200Y-38610D02*
X57200Y-38300D01*
X57100Y-38710D02*
X57200Y-38610D01*
X59190Y-43510D02*
X59190Y-43835D01*
X62890Y-46880D02*
X62830Y-46820D01*
X62830Y-46820D02*
X61905Y-46820D01*
X62295Y-45400D02*
X62295Y-44790D01*
X62295Y-45400D02*
X62315Y-45420D01*
X61260Y-46175D02*
X61905Y-46820D01*
X60445Y-46175D02*
X61260Y-46175D01*
X60090Y-45820D02*
X60445Y-46175D01*
X60090Y-44735D02*
X60090Y-45820D01*
X59190Y-43835D02*
X60090Y-44735D01*
X62510Y-49680D02*
X62515Y-49685D01*
X61510Y-49680D02*
X60535Y-49680D01*
X58510Y-49680D02*
X59530Y-49680D01*
X60535Y-49680D02*
X59530Y-49680D01*
X61510Y-49680D02*
X62510Y-49680D01*
X57460Y-50120D02*
X57630Y-50120D01*
X58070Y-49680D02*
X58510Y-49680D01*
X57630Y-50120D02*
X58070Y-49680D01*
X62300Y-42760D02*
X62300Y-42510D01*
X62700Y-43160D02*
X62300Y-42760D01*
X64550Y-41820D02*
X64550Y-42190D01*
X64770Y-43260D02*
X64770Y-43240D01*
X64760Y-43270D02*
X64770Y-43260D01*
X64550Y-42190D02*
X65170Y-42810D01*
X62300Y-42510D02*
X62300Y-42295D01*
X63755Y-41920D02*
X63775Y-41940D01*
X62715Y-41880D02*
X62880Y-41880D01*
X62300Y-42295D02*
X62715Y-41880D01*
X62715Y-40640D02*
X63980Y-40640D01*
X63980Y-40640D02*
X64005Y-40665D01*
X58970Y-43310D02*
X58970Y-43275D01*
X56300Y-42505D02*
X56595Y-42800D01*
X56300Y-42505D02*
X55880Y-42505D01*
X58970Y-43275D02*
X58480Y-42785D01*
X59170Y-43510D02*
X59190Y-43510D01*
X58970Y-43310D02*
X59170Y-43510D01*
X55135Y-47130D02*
X55135Y-47455D01*
X55135Y-47455D02*
X56000Y-48320D01*
X55200Y-47065D02*
X55135Y-47130D01*
X56280Y-47065D02*
X55200Y-47065D01*
X56830Y-46515D02*
X56280Y-47065D01*
X57275Y-46515D02*
X56830Y-46515D01*
X58370Y-47610D02*
X57275Y-46515D01*
X55865Y-38715D02*
X55950Y-38630D01*
X55865Y-39260D02*
X55865Y-38715D01*
X68140Y-36235D02*
X67525Y-36235D01*
X67525Y-36235D02*
X67060Y-36700D01*
X62710Y-37220D02*
X60680Y-37220D01*
X63170Y-36760D02*
X62710Y-37220D01*
X59250Y-34240D02*
X59250Y-35350D01*
X60580Y-35710D02*
X60670Y-35710D01*
X60530Y-35760D02*
X60580Y-35710D01*
X59250Y-35350D02*
X59440Y-35540D01*
X60075Y-34955D02*
X59510Y-34955D01*
X59250Y-34695D02*
X59250Y-34240D01*
X59510Y-34955D02*
X59250Y-34695D01*
X57350Y-40525D02*
X57965Y-40525D01*
X57965Y-40525D02*
X58220Y-40780D01*
X58285Y-40780D02*
X58220Y-40780D01*
X58560Y-41055D02*
X58285Y-40780D01*
X59985Y-39555D02*
X59970Y-39555D01*
X60030Y-39510D02*
X59985Y-39555D01*
X61180Y-38660D02*
X60050Y-38660D01*
X61640Y-39120D02*
X61180Y-38660D01*
X63270Y-39570D02*
X62780Y-39570D01*
X64010Y-38830D02*
X63270Y-39570D01*
X67465Y-46005D02*
X67080Y-45620D01*
X67465Y-46510D02*
X67465Y-46005D01*
X67045Y-46930D02*
X67465Y-46510D01*
X65780Y-49680D02*
X65780Y-48050D01*
X65720Y-49740D02*
X65780Y-49680D01*
X67610Y-50150D02*
X67030Y-50150D01*
X68130Y-49630D02*
X67610Y-50150D01*
X68130Y-49430D02*
X68130Y-49630D01*
X68345Y-49215D02*
X68130Y-49430D01*
X68345Y-44095D02*
X68345Y-46750D01*
X68350Y-44090D02*
X68345Y-44095D01*
X68345Y-39950D02*
X68345Y-41980D01*
X68275Y-39880D02*
X68345Y-39950D01*
X68245Y-36340D02*
X68245Y-37960D01*
X68140Y-36235D02*
X68245Y-36340D01*
X65870Y-33860D02*
X65675Y-33860D01*
X65675Y-33860D02*
X65175Y-34360D01*
X53270Y-32145D02*
X53275Y-32140D01*
X53270Y-36570D02*
X53270Y-32145D01*
X65460Y-33450D02*
X65460Y-32490D01*
X65870Y-33860D02*
X65460Y-33450D01*
X68430Y-33350D02*
X67980Y-33800D01*
X68430Y-32940D02*
X68430Y-33350D01*
X68440Y-32930D02*
X68430Y-32940D01*
X67960Y-31300D02*
X68260Y-31600D01*
X66780Y-31300D02*
X67960Y-31300D01*
X66770Y-31310D02*
X66780Y-31300D01*
X63040Y-31340D02*
X64880Y-31340D01*
X62970Y-31410D02*
X63040Y-31340D01*
X59030Y-31470D02*
X61190Y-31470D01*
X58830Y-31270D02*
X59030Y-31470D01*
X56140Y-32860D02*
X56140Y-31620D01*
X55780Y-33220D02*
X56140Y-32860D01*
X54780Y-32600D02*
X54780Y-33380D01*
X55420Y-31960D02*
X54780Y-32600D01*
X50515Y-34825D02*
X50485Y-34855D01*
X50485Y-34855D02*
X50485Y-36475D01*
X52410Y-36660D02*
X52410Y-36650D01*
X51460Y-42510D02*
X51460Y-42325D01*
X52627Y-42847D02*
X52627Y-42602D01*
X52790Y-43010D02*
X52627Y-42847D01*
X52020Y-41765D02*
X52020Y-40895D01*
X51460Y-42325D02*
X52020Y-41765D01*
X53355Y-41735D02*
X53355Y-41875D01*
X53355Y-41875D02*
X52627Y-42602D01*
X53500Y-41735D02*
X53355Y-41735D01*
X54375Y-42610D02*
X53500Y-41735D01*
X55855Y-41815D02*
X55880Y-41840D01*
X56620Y-44000D02*
X56620Y-44195D01*
X56620Y-44195D02*
X57255Y-44830D01*
X52645Y-46600D02*
X53330Y-46600D01*
X53330Y-46600D02*
X53600Y-46870D01*
X52700Y-47600D02*
X53170Y-47130D01*
X53170Y-47130D02*
X55135Y-47130D01*
X53015Y-50045D02*
X53015Y-49915D01*
X53015Y-49915D02*
X53410Y-49520D01*
X53410Y-49520D02*
X53780Y-49520D01*
X53780Y-49520D02*
X54020Y-49760D01*
X54020Y-49760D02*
X54020Y-49950D01*
X55035Y-49950D02*
X55515Y-49470D01*
X55515Y-49470D02*
X55560Y-49470D01*
X55560Y-49470D02*
X56025Y-49935D01*
X57460Y-50120D02*
X57460Y-49690D01*
X57460Y-49690D02*
X56930Y-49160D01*
X56930Y-49160D02*
X55690Y-49160D01*
X56000Y-48320D02*
X56500Y-48820D01*
X56500Y-48820D02*
X56550Y-48820D01*
X52025Y-49810D02*
X52110Y-49810D01*
X52110Y-49810D02*
X52390Y-49530D01*
X52390Y-49530D02*
X52780Y-49530D01*
X52780Y-49530D02*
X53015Y-49765D01*
X53015Y-49765D02*
X53015Y-50045D01*
X52425Y-33185D02*
X52430Y-33190D01*
X51420Y-33280D02*
X51420Y-33290D01*
X51420Y-33270D02*
X51420Y-33280D01*
X49400Y-31590D02*
X49400Y-32870D01*
X52415Y-31545D02*
X52415Y-31565D01*
X52430Y-31530D02*
X52415Y-31545D01*
X60780Y-42260D02*
X61035Y-42260D01*
X61035Y-42260D02*
X61470Y-41825D01*
X61470Y-41825D02*
X61980Y-41825D01*
G54D25*
X52645Y-45395D02*
X52645Y-45850D01*
X52755Y-45285D02*
X52645Y-45395D01*
G54D26*
X65150Y-41820D02*
X66080Y-41820D01*
X66860Y-40690D02*
X66860Y-42150D01*
X66860Y-42150D02*
X67080Y-42370D01*
X58990Y-32450D02*
X60635Y-32450D01*
X60635Y-32450D02*
X60640Y-32445D01*
X60075Y-34355D02*
X60075Y-33460D01*
X60075Y-33460D02*
X60090Y-33445D01*
G54D10*
G36*
X50616Y-37164D02*
X50223Y-36770D01*
X50223Y-31642D01*
X50228Y-31640D01*
X50381Y-31488D01*
X50419Y-31394D01*
X50458Y-31487D01*
X50611Y-31640D01*
X50616Y-31642D01*
X50616Y-37164D01*
X50616Y-37164D01*
G37*
G54D28*
X50616Y-37164D02*
X50223Y-36770D01*
X50223Y-31642D01*
X50228Y-31640D01*
X50381Y-31488D01*
X50419Y-31394D01*
X50458Y-31487D01*
X50611Y-31640D01*
X50616Y-31642D01*
X50616Y-37164D01*
G54D10*
G36*
X51216Y-49717D02*
X51211Y-49719D01*
X51058Y-49871D01*
X51042Y-49910D01*
X51042Y-45585D01*
X51216Y-45759D01*
X51216Y-49717D01*
X51216Y-49717D01*
G37*
G54D28*
X51216Y-49717D02*
X51211Y-49719D01*
X51058Y-49871D01*
X51042Y-49910D01*
X51042Y-45585D01*
X51216Y-45759D01*
X51216Y-49717D01*
G54D10*
G36*
X51564Y-38966D02*
X51352Y-38966D01*
X51152Y-39049D01*
X50999Y-39201D01*
X50916Y-39401D01*
X50916Y-39617D01*
X50999Y-39817D01*
X51151Y-39970D01*
X51247Y-40009D01*
X51152Y-40049D01*
X51042Y-40158D01*
X51042Y-40155D01*
X51042Y-40154D01*
X51022Y-40050D01*
X50962Y-39962D01*
X50962Y-39962D01*
X50262Y-39262D01*
X49412Y-38411D01*
X49412Y-31373D01*
X49459Y-31487D01*
X49612Y-31640D01*
X49618Y-31642D01*
X49618Y-36895D01*
X49641Y-37011D01*
X49706Y-37109D01*
X51564Y-38966D01*
X51564Y-38966D01*
G37*
G54D28*
X51564Y-38966D02*
X51352Y-38966D01*
X51152Y-39049D01*
X50999Y-39201D01*
X50916Y-39401D01*
X50916Y-39617D01*
X50999Y-39817D01*
X51151Y-39970D01*
X51247Y-40009D01*
X51152Y-40049D01*
X51042Y-40158D01*
X51042Y-40155D01*
X51042Y-40154D01*
X51022Y-40050D01*
X50962Y-39962D01*
X50962Y-39962D01*
X50262Y-39262D01*
X49412Y-38411D01*
X49412Y-31373D01*
X49459Y-31487D01*
X49612Y-31640D01*
X49618Y-31642D01*
X49618Y-36895D01*
X49641Y-37011D01*
X49706Y-37109D01*
X51564Y-38966D01*
G54D10*
G36*
X51616Y-37719D02*
X51221Y-37323D01*
X51221Y-31642D01*
X51226Y-31640D01*
X51379Y-31488D01*
X51419Y-31392D01*
X51458Y-31487D01*
X51611Y-31640D01*
X51616Y-31642D01*
X51616Y-37719D01*
X51616Y-37719D01*
G37*
G54D28*
X51616Y-37719D02*
X51221Y-37323D01*
X51221Y-31642D01*
X51226Y-31640D01*
X51379Y-31488D01*
X51419Y-31392D01*
X51458Y-31487D01*
X51611Y-31640D01*
X51616Y-31642D01*
X51616Y-37719D01*
G54D10*
G36*
X51967Y-42282D02*
X51961Y-42285D01*
X51939Y-42231D01*
X51846Y-42203D01*
X51540Y-42510D01*
X51545Y-42515D01*
X51465Y-42595D01*
X51460Y-42590D01*
X51454Y-42595D01*
X51374Y-42515D01*
X51379Y-42510D01*
X51374Y-42504D01*
X51454Y-42424D01*
X51460Y-42429D01*
X51766Y-42123D01*
X51738Y-42030D01*
X51674Y-42009D01*
X51767Y-41970D01*
X51920Y-41818D01*
X51967Y-41704D01*
X51967Y-42282D01*
X51967Y-42282D01*
G37*
G54D28*
X51967Y-42282D02*
X51961Y-42285D01*
X51939Y-42231D01*
X51846Y-42203D01*
X51540Y-42510D01*
X51545Y-42515D01*
X51465Y-42595D01*
X51460Y-42590D01*
X51454Y-42595D01*
X51374Y-42515D01*
X51379Y-42510D01*
X51374Y-42504D01*
X51454Y-42424D01*
X51460Y-42429D01*
X51766Y-42123D01*
X51738Y-42030D01*
X51674Y-42009D01*
X51767Y-41970D01*
X51920Y-41818D01*
X51967Y-41704D01*
X51967Y-42282D01*
G54D10*
G36*
X52130Y-40812D02*
X52056Y-40886D01*
X51990Y-40984D01*
X51967Y-41100D01*
X51967Y-41315D01*
X51920Y-41202D01*
X51768Y-41049D01*
X51672Y-41010D01*
X51767Y-40970D01*
X51920Y-40818D01*
X51922Y-40812D01*
X52130Y-40812D01*
X52130Y-40812D01*
G37*
G54D28*
X52130Y-40812D02*
X52056Y-40886D01*
X51990Y-40984D01*
X51967Y-41100D01*
X51967Y-41315D01*
X51920Y-41202D01*
X51768Y-41049D01*
X51672Y-41010D01*
X51767Y-40970D01*
X51920Y-40818D01*
X51922Y-40812D01*
X52130Y-40812D01*
G54D10*
G36*
X52616Y-38239D02*
X52221Y-37843D01*
X52221Y-31642D01*
X52226Y-31640D01*
X52379Y-31488D01*
X52419Y-31392D01*
X52458Y-31487D01*
X52611Y-31640D01*
X52616Y-31642D01*
X52616Y-38239D01*
X52616Y-38239D01*
G37*
G54D28*
X52616Y-38239D02*
X52221Y-37843D01*
X52221Y-31642D01*
X52226Y-31640D01*
X52379Y-31488D01*
X52419Y-31392D01*
X52458Y-31487D01*
X52611Y-31640D01*
X52616Y-31642D01*
X52616Y-38239D01*
G54D10*
G36*
X53362Y-38415D02*
X53221Y-38273D01*
X53221Y-31642D01*
X53226Y-31640D01*
X53362Y-31505D01*
X53362Y-38415D01*
X53362Y-38415D01*
G37*
G54D28*
X53362Y-38415D02*
X53221Y-38273D01*
X53221Y-31642D01*
X53226Y-31640D01*
X53362Y-31505D01*
X53362Y-38415D01*
G54D10*
G36*
X53702Y-44438D02*
X52003Y-44438D01*
X52003Y-44161D01*
X51966Y-44072D01*
X51898Y-44003D01*
X51808Y-43966D01*
X51771Y-43966D01*
X51920Y-43818D01*
X51922Y-43812D01*
X52865Y-43812D01*
X52994Y-43812D01*
X53112Y-43861D01*
X53256Y-43861D01*
X53275Y-43853D01*
X53285Y-43905D01*
X53351Y-44003D01*
X53588Y-44241D01*
X53588Y-44246D01*
X53643Y-44379D01*
X53702Y-44438D01*
X53702Y-44438D01*
G37*
G54D28*
X53702Y-44438D02*
X52003Y-44438D01*
X52003Y-44161D01*
X51966Y-44072D01*
X51898Y-44003D01*
X51808Y-43966D01*
X51771Y-43966D01*
X51920Y-43818D01*
X51922Y-43812D01*
X52865Y-43812D01*
X52994Y-43812D01*
X53112Y-43861D01*
X53256Y-43861D01*
X53275Y-43853D01*
X53285Y-43905D01*
X53351Y-44003D01*
X53588Y-44241D01*
X53588Y-44246D01*
X53643Y-44379D01*
X53702Y-44438D01*
G54D10*
G36*
X54616Y-31895D02*
X53967Y-32545D01*
X53967Y-31723D01*
X54026Y-31723D01*
X54226Y-31640D01*
X54375Y-31491D01*
X54375Y-31528D01*
X54412Y-31617D01*
X54481Y-31686D01*
X54570Y-31723D01*
X54616Y-31723D01*
X54616Y-31895D01*
X54616Y-31895D01*
G37*
G54D28*
X54616Y-31895D02*
X53967Y-32545D01*
X53967Y-31723D01*
X54026Y-31723D01*
X54226Y-31640D01*
X54375Y-31491D01*
X54375Y-31528D01*
X54412Y-31617D01*
X54481Y-31686D01*
X54570Y-31723D01*
X54616Y-31723D01*
X54616Y-31895D01*
G54D10*
G36*
X54938Y-42747D02*
X54838Y-42747D01*
X54834Y-42743D01*
X54702Y-42688D01*
X54558Y-42688D01*
X54463Y-42727D01*
X54434Y-42698D01*
X54302Y-42643D01*
X54158Y-42643D01*
X54025Y-42698D01*
X53995Y-42728D01*
X53937Y-42703D01*
X53861Y-42703D01*
X53861Y-42648D01*
X53806Y-42515D01*
X53704Y-42413D01*
X53572Y-42358D01*
X53428Y-42358D01*
X53295Y-42413D01*
X53193Y-42515D01*
X53138Y-42647D01*
X53138Y-42791D01*
X53193Y-42924D01*
X53262Y-42993D01*
X53262Y-43140D01*
X53257Y-43138D01*
X53113Y-43138D01*
X52980Y-43193D01*
X52966Y-43207D01*
X52865Y-43207D01*
X51922Y-43207D01*
X51920Y-43202D01*
X51768Y-43049D01*
X51680Y-43013D01*
X51738Y-42989D01*
X51766Y-42896D01*
X51811Y-42941D01*
X51850Y-42901D01*
X51880Y-42931D01*
X52012Y-42986D01*
X52156Y-42986D01*
X52289Y-42931D01*
X52391Y-42829D01*
X52446Y-42697D01*
X52446Y-42676D01*
X52483Y-42638D01*
X52483Y-42638D01*
X52483Y-42638D01*
X52549Y-42540D01*
X52572Y-42425D01*
X52572Y-42425D01*
X52572Y-41225D01*
X52863Y-40934D01*
X52863Y-40971D01*
X52918Y-41104D01*
X53020Y-41206D01*
X53152Y-41261D01*
X53198Y-41261D01*
X53243Y-41369D01*
X53345Y-41471D01*
X53477Y-41526D01*
X53530Y-41526D01*
X53548Y-41569D01*
X53650Y-41671D01*
X53782Y-41726D01*
X53926Y-41726D01*
X54021Y-41687D01*
X53993Y-41715D01*
X53938Y-41847D01*
X53938Y-41991D01*
X53993Y-42124D01*
X54095Y-42226D01*
X54223Y-42279D01*
X54223Y-42371D01*
X54278Y-42504D01*
X54380Y-42606D01*
X54512Y-42661D01*
X54656Y-42661D01*
X54789Y-42606D01*
X54891Y-42504D01*
X54938Y-42390D01*
X54938Y-42747D01*
X54938Y-42747D01*
G37*
G54D28*
X54938Y-42747D02*
X54838Y-42747D01*
X54834Y-42743D01*
X54702Y-42688D01*
X54558Y-42688D01*
X54463Y-42727D01*
X54434Y-42698D01*
X54302Y-42643D01*
X54158Y-42643D01*
X54025Y-42698D01*
X53995Y-42728D01*
X53937Y-42703D01*
X53861Y-42703D01*
X53861Y-42648D01*
X53806Y-42515D01*
X53704Y-42413D01*
X53572Y-42358D01*
X53428Y-42358D01*
X53295Y-42413D01*
X53193Y-42515D01*
X53138Y-42647D01*
X53138Y-42791D01*
X53193Y-42924D01*
X53262Y-42993D01*
X53262Y-43140D01*
X53257Y-43138D01*
X53113Y-43138D01*
X52980Y-43193D01*
X52966Y-43207D01*
X52865Y-43207D01*
X51922Y-43207D01*
X51920Y-43202D01*
X51768Y-43049D01*
X51680Y-43013D01*
X51738Y-42989D01*
X51766Y-42896D01*
X51811Y-42941D01*
X51850Y-42901D01*
X51880Y-42931D01*
X52012Y-42986D01*
X52156Y-42986D01*
X52289Y-42931D01*
X52391Y-42829D01*
X52446Y-42697D01*
X52446Y-42676D01*
X52483Y-42638D01*
X52483Y-42638D01*
X52483Y-42638D01*
X52549Y-42540D01*
X52572Y-42425D01*
X52572Y-42425D01*
X52572Y-41225D01*
X52863Y-40934D01*
X52863Y-40971D01*
X52918Y-41104D01*
X53020Y-41206D01*
X53152Y-41261D01*
X53198Y-41261D01*
X53243Y-41369D01*
X53345Y-41471D01*
X53477Y-41526D01*
X53530Y-41526D01*
X53548Y-41569D01*
X53650Y-41671D01*
X53782Y-41726D01*
X53926Y-41726D01*
X54021Y-41687D01*
X53993Y-41715D01*
X53938Y-41847D01*
X53938Y-41991D01*
X53993Y-42124D01*
X54095Y-42226D01*
X54223Y-42279D01*
X54223Y-42371D01*
X54278Y-42504D01*
X54380Y-42606D01*
X54512Y-42661D01*
X54656Y-42661D01*
X54789Y-42606D01*
X54891Y-42504D01*
X54938Y-42390D01*
X54938Y-42747D01*
G54D10*
G36*
X54978Y-40593D02*
X54967Y-40609D01*
X54938Y-40755D01*
X54938Y-41120D01*
X54938Y-42210D01*
X54891Y-42095D01*
X54882Y-42086D01*
X54882Y-39440D01*
X54859Y-39324D01*
X54793Y-39226D01*
X54609Y-39041D01*
X54666Y-38984D01*
X54721Y-38852D01*
X54721Y-38708D01*
X54672Y-38589D01*
X54672Y-37215D01*
X54978Y-37521D01*
X54978Y-39465D01*
X54978Y-40593D01*
X54978Y-40593D01*
G37*
G54D28*
X54978Y-40593D02*
X54967Y-40609D01*
X54938Y-40755D01*
X54938Y-41120D01*
X54938Y-42210D01*
X54891Y-42095D01*
X54882Y-42086D01*
X54882Y-39440D01*
X54859Y-39324D01*
X54793Y-39226D01*
X54609Y-39041D01*
X54666Y-38984D01*
X54721Y-38852D01*
X54721Y-38708D01*
X54672Y-38589D01*
X54672Y-37215D01*
X54978Y-37521D01*
X54978Y-39465D01*
X54978Y-40593D01*
G54D10*
G36*
X56327Y-41461D02*
X56303Y-41485D01*
X56248Y-41617D01*
X56248Y-41688D01*
X56198Y-41688D01*
X56065Y-41743D01*
X55963Y-41845D01*
X55908Y-41977D01*
X55908Y-42121D01*
X55938Y-42195D01*
X55936Y-42197D01*
X55936Y-42448D01*
X55944Y-42448D01*
X55944Y-42561D01*
X55936Y-42561D01*
X55936Y-42569D01*
X55823Y-42569D01*
X55823Y-42561D01*
X55815Y-42561D01*
X55815Y-42448D01*
X55823Y-42448D01*
X55823Y-42197D01*
X55762Y-42136D01*
X55703Y-42136D01*
X55701Y-42136D01*
X55701Y-41461D01*
X56327Y-41461D01*
X56327Y-41461D01*
G37*
G54D28*
X56327Y-41461D02*
X56303Y-41485D01*
X56248Y-41617D01*
X56248Y-41688D01*
X56198Y-41688D01*
X56065Y-41743D01*
X55963Y-41845D01*
X55908Y-41977D01*
X55908Y-42121D01*
X55938Y-42195D01*
X55936Y-42197D01*
X55936Y-42448D01*
X55944Y-42448D01*
X55944Y-42561D01*
X55936Y-42561D01*
X55936Y-42569D01*
X55823Y-42569D01*
X55823Y-42561D01*
X55815Y-42561D01*
X55815Y-42448D01*
X55823Y-42448D01*
X55823Y-42197D01*
X55762Y-42136D01*
X55703Y-42136D01*
X55701Y-42136D01*
X55701Y-41461D01*
X56327Y-41461D01*
G54D10*
G36*
X57414Y-40581D02*
X57406Y-40581D01*
X57406Y-40589D01*
X57293Y-40589D01*
X57293Y-40581D01*
X57285Y-40581D01*
X57285Y-40468D01*
X57293Y-40468D01*
X57293Y-40460D01*
X57406Y-40460D01*
X57406Y-40468D01*
X57414Y-40468D01*
X57414Y-40581D01*
X57414Y-40581D01*
G37*
G54D28*
X57414Y-40581D02*
X57406Y-40581D01*
X57406Y-40589D01*
X57293Y-40589D01*
X57293Y-40581D01*
X57285Y-40581D01*
X57285Y-40468D01*
X57293Y-40468D01*
X57293Y-40460D01*
X57406Y-40460D01*
X57406Y-40468D01*
X57414Y-40468D01*
X57414Y-40581D01*
G54D10*
G36*
X57935Y-45083D02*
X57903Y-45083D01*
X57858Y-45102D01*
X57839Y-45083D01*
X57707Y-45028D01*
X57563Y-45028D01*
X57430Y-45083D01*
X57328Y-45185D01*
X57273Y-45317D01*
X57273Y-45323D01*
X56563Y-46034D01*
X56563Y-44582D01*
X56563Y-44056D01*
X56137Y-44056D01*
X56076Y-44117D01*
X56076Y-44351D01*
X56076Y-44448D01*
X56113Y-44538D01*
X56182Y-44606D01*
X56271Y-44643D01*
X56502Y-44643D01*
X56563Y-44582D01*
X56563Y-46034D01*
X56379Y-46217D01*
X55762Y-46217D01*
X55778Y-46178D01*
X55778Y-46081D01*
X55778Y-45481D01*
X55741Y-45392D01*
X55673Y-45323D01*
X55583Y-45286D01*
X55516Y-45286D01*
X55516Y-45115D01*
X55487Y-44969D01*
X55487Y-44969D01*
X55445Y-44907D01*
X55404Y-44845D01*
X55404Y-44845D01*
X55358Y-44799D01*
X55515Y-44643D01*
X55668Y-44643D01*
X55757Y-44606D01*
X55826Y-44538D01*
X55863Y-44448D01*
X55863Y-44351D01*
X55863Y-43551D01*
X55836Y-43486D01*
X55880Y-43486D01*
X55944Y-43473D01*
X56109Y-43473D01*
X56076Y-43551D01*
X56076Y-43648D01*
X56076Y-43882D01*
X56137Y-43943D01*
X56563Y-43943D01*
X56563Y-43417D01*
X56502Y-43356D01*
X56315Y-43356D01*
X56348Y-43278D01*
X56348Y-43181D01*
X56348Y-42931D01*
X56311Y-42842D01*
X56274Y-42805D01*
X56311Y-42767D01*
X56348Y-42678D01*
X56348Y-42622D01*
X56287Y-42561D01*
X56348Y-42561D01*
X56348Y-42555D01*
X56827Y-43035D01*
X56827Y-43356D01*
X56737Y-43356D01*
X56676Y-43417D01*
X56676Y-43943D01*
X56684Y-43943D01*
X56684Y-44056D01*
X56676Y-44056D01*
X56676Y-44582D01*
X56737Y-44643D01*
X56968Y-44643D01*
X57057Y-44606D01*
X57126Y-44538D01*
X57163Y-44448D01*
X57163Y-44351D01*
X57163Y-44310D01*
X57935Y-45083D01*
X57935Y-45083D01*
G37*
G54D28*
X57935Y-45083D02*
X57903Y-45083D01*
X57858Y-45102D01*
X57839Y-45083D01*
X57707Y-45028D01*
X57563Y-45028D01*
X57430Y-45083D01*
X57328Y-45185D01*
X57273Y-45317D01*
X57273Y-45323D01*
X56563Y-46034D01*
X56563Y-44582D01*
X56563Y-44056D01*
X56137Y-44056D01*
X56076Y-44117D01*
X56076Y-44351D01*
X56076Y-44448D01*
X56113Y-44538D01*
X56182Y-44606D01*
X56271Y-44643D01*
X56502Y-44643D01*
X56563Y-44582D01*
X56563Y-46034D01*
X56379Y-46217D01*
X55762Y-46217D01*
X55778Y-46178D01*
X55778Y-46081D01*
X55778Y-45481D01*
X55741Y-45392D01*
X55673Y-45323D01*
X55583Y-45286D01*
X55516Y-45286D01*
X55516Y-45115D01*
X55487Y-44969D01*
X55487Y-44969D01*
X55445Y-44907D01*
X55404Y-44845D01*
X55404Y-44845D01*
X55358Y-44799D01*
X55515Y-44643D01*
X55668Y-44643D01*
X55757Y-44606D01*
X55826Y-44538D01*
X55863Y-44448D01*
X55863Y-44351D01*
X55863Y-43551D01*
X55836Y-43486D01*
X55880Y-43486D01*
X55944Y-43473D01*
X56109Y-43473D01*
X56076Y-43551D01*
X56076Y-43648D01*
X56076Y-43882D01*
X56137Y-43943D01*
X56563Y-43943D01*
X56563Y-43417D01*
X56502Y-43356D01*
X56315Y-43356D01*
X56348Y-43278D01*
X56348Y-43181D01*
X56348Y-42931D01*
X56311Y-42842D01*
X56274Y-42805D01*
X56311Y-42767D01*
X56348Y-42678D01*
X56348Y-42622D01*
X56287Y-42561D01*
X56348Y-42561D01*
X56348Y-42555D01*
X56827Y-43035D01*
X56827Y-43356D01*
X56737Y-43356D01*
X56676Y-43417D01*
X56676Y-43943D01*
X56684Y-43943D01*
X56684Y-44056D01*
X56676Y-44056D01*
X56676Y-44582D01*
X56737Y-44643D01*
X56968Y-44643D01*
X57057Y-44606D01*
X57126Y-44538D01*
X57163Y-44448D01*
X57163Y-44351D01*
X57163Y-44310D01*
X57935Y-45083D01*
G54D10*
G36*
X58284Y-40836D02*
X58276Y-40836D01*
X58276Y-40844D01*
X58163Y-40844D01*
X58163Y-40836D01*
X58155Y-40836D01*
X58155Y-40723D01*
X58163Y-40723D01*
X58163Y-40715D01*
X58276Y-40715D01*
X58276Y-40723D01*
X58284Y-40723D01*
X58284Y-40836D01*
X58284Y-40836D01*
G37*
G54D28*
X58284Y-40836D02*
X58276Y-40836D01*
X58276Y-40844D01*
X58163Y-40844D01*
X58163Y-40836D01*
X58155Y-40836D01*
X58155Y-40723D01*
X58163Y-40723D01*
X58163Y-40715D01*
X58276Y-40715D01*
X58276Y-40723D01*
X58284Y-40723D01*
X58284Y-40836D01*
G54D10*
G36*
X58306Y-49679D02*
X58211Y-49719D01*
X58058Y-49871D01*
X57976Y-50071D01*
X57975Y-50237D01*
X57062Y-50237D01*
X57062Y-50072D01*
X56980Y-49872D01*
X56827Y-49719D01*
X56627Y-49636D01*
X56411Y-49636D01*
X56211Y-49719D01*
X56058Y-49871D01*
X56022Y-49959D01*
X55998Y-49901D01*
X55905Y-49873D01*
X55825Y-49953D01*
X55825Y-49793D01*
X55797Y-49700D01*
X55778Y-49694D01*
X55778Y-47478D01*
X55778Y-47247D01*
X55717Y-47186D01*
X55191Y-47186D01*
X55191Y-47612D01*
X55252Y-47673D01*
X55486Y-47673D01*
X55583Y-47673D01*
X55673Y-47636D01*
X55741Y-47567D01*
X55778Y-47478D01*
X55778Y-49694D01*
X55592Y-49630D01*
X55377Y-49644D01*
X55241Y-49700D01*
X55212Y-49793D01*
X55519Y-50099D01*
X55825Y-49793D01*
X55825Y-49953D01*
X55599Y-50180D01*
X55604Y-50185D01*
X55553Y-50237D01*
X55485Y-50237D01*
X55433Y-50185D01*
X55439Y-50180D01*
X55132Y-49873D01*
X55078Y-49890D01*
X55078Y-47612D01*
X55078Y-47186D01*
X54552Y-47186D01*
X54491Y-47247D01*
X54491Y-47478D01*
X54528Y-47567D01*
X54596Y-47636D01*
X54686Y-47673D01*
X54783Y-47673D01*
X55017Y-47673D01*
X55078Y-47612D01*
X55078Y-49890D01*
X55040Y-49901D01*
X55021Y-49957D01*
X54998Y-49901D01*
X54905Y-49873D01*
X54825Y-49953D01*
X54825Y-49793D01*
X54797Y-49700D01*
X54592Y-49630D01*
X54377Y-49644D01*
X54241Y-49700D01*
X54212Y-49793D01*
X54519Y-50099D01*
X54825Y-49793D01*
X54825Y-49953D01*
X54599Y-50180D01*
X54604Y-50185D01*
X54553Y-50237D01*
X54485Y-50237D01*
X54433Y-50185D01*
X54439Y-50180D01*
X54132Y-49873D01*
X54040Y-49901D01*
X54018Y-49965D01*
X53980Y-49872D01*
X53827Y-49719D01*
X53627Y-49636D01*
X53411Y-49636D01*
X53211Y-49719D01*
X53163Y-49767D01*
X53163Y-46823D01*
X53163Y-46717D01*
X53102Y-46656D01*
X52701Y-46656D01*
X52701Y-46957D01*
X52762Y-47018D01*
X52871Y-47018D01*
X52968Y-47018D01*
X53058Y-46981D01*
X53126Y-46912D01*
X53163Y-46823D01*
X53163Y-49767D01*
X53058Y-49871D01*
X53019Y-49967D01*
X52980Y-49872D01*
X52827Y-49719D01*
X52627Y-49636D01*
X52588Y-49636D01*
X52588Y-46957D01*
X52588Y-46656D01*
X52187Y-46656D01*
X52126Y-46717D01*
X52126Y-46823D01*
X52163Y-46912D01*
X52231Y-46981D01*
X52321Y-47018D01*
X52418Y-47018D01*
X52527Y-47018D01*
X52588Y-46957D01*
X52588Y-49636D01*
X52411Y-49636D01*
X52211Y-49719D01*
X52058Y-49871D01*
X52019Y-49967D01*
X51980Y-49872D01*
X51827Y-49719D01*
X51821Y-49717D01*
X51821Y-45634D01*
X51821Y-45634D01*
X51798Y-45518D01*
X51733Y-45420D01*
X51733Y-45420D01*
X51365Y-45053D01*
X51464Y-45053D01*
X51500Y-45089D01*
X51500Y-45089D01*
X51624Y-45172D01*
X51769Y-45201D01*
X51770Y-45201D01*
X52295Y-45201D01*
X52295Y-45376D01*
X52303Y-45395D01*
X52303Y-45439D01*
X52232Y-45468D01*
X52163Y-45536D01*
X52126Y-45626D01*
X52126Y-45723D01*
X52126Y-46073D01*
X52163Y-46162D01*
X52225Y-46225D01*
X52163Y-46287D01*
X52126Y-46376D01*
X52126Y-46482D01*
X52187Y-46543D01*
X52588Y-46543D01*
X52588Y-46535D01*
X52701Y-46535D01*
X52701Y-46543D01*
X53102Y-46543D01*
X53163Y-46482D01*
X53163Y-46376D01*
X53126Y-46287D01*
X53064Y-46224D01*
X53126Y-46163D01*
X53163Y-46073D01*
X53163Y-45976D01*
X53163Y-45626D01*
X53134Y-45556D01*
X53144Y-45545D01*
X53214Y-45376D01*
X53214Y-45201D01*
X53443Y-45201D01*
X53443Y-45226D01*
X53498Y-45359D01*
X53502Y-45363D01*
X53502Y-45945D01*
X53525Y-46060D01*
X53591Y-46158D01*
X54166Y-46733D01*
X54166Y-46733D01*
X54264Y-46799D01*
X54379Y-46822D01*
X54380Y-46822D01*
X54491Y-46822D01*
X54491Y-47012D01*
X54552Y-47073D01*
X55078Y-47073D01*
X55078Y-47065D01*
X55191Y-47065D01*
X55191Y-47073D01*
X55717Y-47073D01*
X55778Y-47012D01*
X55778Y-46822D01*
X56396Y-46822D01*
X56298Y-46920D01*
X56274Y-46978D01*
X56268Y-46978D01*
X56135Y-47033D01*
X56033Y-47135D01*
X55978Y-47267D01*
X55978Y-47411D01*
X56033Y-47544D01*
X56135Y-47646D01*
X56267Y-47701D01*
X56273Y-47701D01*
X57211Y-48638D01*
X57309Y-48704D01*
X57425Y-48727D01*
X58203Y-48727D01*
X58058Y-48871D01*
X57976Y-49071D01*
X57975Y-49287D01*
X58058Y-49487D01*
X58211Y-49640D01*
X58306Y-49679D01*
X58306Y-49679D01*
G37*
G54D28*
X58306Y-49679D02*
X58211Y-49719D01*
X58058Y-49871D01*
X57976Y-50071D01*
X57975Y-50237D01*
X57062Y-50237D01*
X57062Y-50072D01*
X56980Y-49872D01*
X56827Y-49719D01*
X56627Y-49636D01*
X56411Y-49636D01*
X56211Y-49719D01*
X56058Y-49871D01*
X56022Y-49959D01*
X55998Y-49901D01*
X55905Y-49873D01*
X55825Y-49953D01*
X55825Y-49793D01*
X55797Y-49700D01*
X55778Y-49694D01*
X55778Y-47478D01*
X55778Y-47247D01*
X55717Y-47186D01*
X55191Y-47186D01*
X55191Y-47612D01*
X55252Y-47673D01*
X55486Y-47673D01*
X55583Y-47673D01*
X55673Y-47636D01*
X55741Y-47567D01*
X55778Y-47478D01*
X55778Y-49694D01*
X55592Y-49630D01*
X55377Y-49644D01*
X55241Y-49700D01*
X55212Y-49793D01*
X55519Y-50099D01*
X55825Y-49793D01*
X55825Y-49953D01*
X55599Y-50180D01*
X55604Y-50185D01*
X55553Y-50237D01*
X55485Y-50237D01*
X55433Y-50185D01*
X55439Y-50180D01*
X55132Y-49873D01*
X55078Y-49890D01*
X55078Y-47612D01*
X55078Y-47186D01*
X54552Y-47186D01*
X54491Y-47247D01*
X54491Y-47478D01*
X54528Y-47567D01*
X54596Y-47636D01*
X54686Y-47673D01*
X54783Y-47673D01*
X55017Y-47673D01*
X55078Y-47612D01*
X55078Y-49890D01*
X55040Y-49901D01*
X55021Y-49957D01*
X54998Y-49901D01*
X54905Y-49873D01*
X54825Y-49953D01*
X54825Y-49793D01*
X54797Y-49700D01*
X54592Y-49630D01*
X54377Y-49644D01*
X54241Y-49700D01*
X54212Y-49793D01*
X54519Y-50099D01*
X54825Y-49793D01*
X54825Y-49953D01*
X54599Y-50180D01*
X54604Y-50185D01*
X54553Y-50237D01*
X54485Y-50237D01*
X54433Y-50185D01*
X54439Y-50180D01*
X54132Y-49873D01*
X54040Y-49901D01*
X54018Y-49965D01*
X53980Y-49872D01*
X53827Y-49719D01*
X53627Y-49636D01*
X53411Y-49636D01*
X53211Y-49719D01*
X53163Y-49767D01*
X53163Y-46823D01*
X53163Y-46717D01*
X53102Y-46656D01*
X52701Y-46656D01*
X52701Y-46957D01*
X52762Y-47018D01*
X52871Y-47018D01*
X52968Y-47018D01*
X53058Y-46981D01*
X53126Y-46912D01*
X53163Y-46823D01*
X53163Y-49767D01*
X53058Y-49871D01*
X53019Y-49967D01*
X52980Y-49872D01*
X52827Y-49719D01*
X52627Y-49636D01*
X52588Y-49636D01*
X52588Y-46957D01*
X52588Y-46656D01*
X52187Y-46656D01*
X52126Y-46717D01*
X52126Y-46823D01*
X52163Y-46912D01*
X52231Y-46981D01*
X52321Y-47018D01*
X52418Y-47018D01*
X52527Y-47018D01*
X52588Y-46957D01*
X52588Y-49636D01*
X52411Y-49636D01*
X52211Y-49719D01*
X52058Y-49871D01*
X52019Y-49967D01*
X51980Y-49872D01*
X51827Y-49719D01*
X51821Y-49717D01*
X51821Y-45634D01*
X51821Y-45634D01*
X51798Y-45518D01*
X51733Y-45420D01*
X51733Y-45420D01*
X51365Y-45053D01*
X51464Y-45053D01*
X51500Y-45089D01*
X51500Y-45089D01*
X51624Y-45172D01*
X51769Y-45201D01*
X51770Y-45201D01*
X52295Y-45201D01*
X52295Y-45376D01*
X52303Y-45395D01*
X52303Y-45439D01*
X52232Y-45468D01*
X52163Y-45536D01*
X52126Y-45626D01*
X52126Y-45723D01*
X52126Y-46073D01*
X52163Y-46162D01*
X52225Y-46225D01*
X52163Y-46287D01*
X52126Y-46376D01*
X52126Y-46482D01*
X52187Y-46543D01*
X52588Y-46543D01*
X52588Y-46535D01*
X52701Y-46535D01*
X52701Y-46543D01*
X53102Y-46543D01*
X53163Y-46482D01*
X53163Y-46376D01*
X53126Y-46287D01*
X53064Y-46224D01*
X53126Y-46163D01*
X53163Y-46073D01*
X53163Y-45976D01*
X53163Y-45626D01*
X53134Y-45556D01*
X53144Y-45545D01*
X53214Y-45376D01*
X53214Y-45201D01*
X53443Y-45201D01*
X53443Y-45226D01*
X53498Y-45359D01*
X53502Y-45363D01*
X53502Y-45945D01*
X53525Y-46060D01*
X53591Y-46158D01*
X54166Y-46733D01*
X54166Y-46733D01*
X54264Y-46799D01*
X54379Y-46822D01*
X54380Y-46822D01*
X54491Y-46822D01*
X54491Y-47012D01*
X54552Y-47073D01*
X55078Y-47073D01*
X55078Y-47065D01*
X55191Y-47065D01*
X55191Y-47073D01*
X55717Y-47073D01*
X55778Y-47012D01*
X55778Y-46822D01*
X56396Y-46822D01*
X56298Y-46920D01*
X56274Y-46978D01*
X56268Y-46978D01*
X56135Y-47033D01*
X56033Y-47135D01*
X55978Y-47267D01*
X55978Y-47411D01*
X56033Y-47544D01*
X56135Y-47646D01*
X56267Y-47701D01*
X56273Y-47701D01*
X57211Y-48638D01*
X57309Y-48704D01*
X57425Y-48727D01*
X58203Y-48727D01*
X58058Y-48871D01*
X57976Y-49071D01*
X57975Y-49287D01*
X58058Y-49487D01*
X58211Y-49640D01*
X58306Y-49679D01*
G54D10*
G36*
X58810Y-47697D02*
X58095Y-47697D01*
X57221Y-46823D01*
X57221Y-46818D01*
X57166Y-46685D01*
X57064Y-46583D01*
X56932Y-46528D01*
X56923Y-46528D01*
X57701Y-45751D01*
X57706Y-45751D01*
X57751Y-45732D01*
X57770Y-45751D01*
X57777Y-45754D01*
X57777Y-46356D01*
X57773Y-46360D01*
X57718Y-46492D01*
X57718Y-46636D01*
X57773Y-46769D01*
X57875Y-46871D01*
X58007Y-46926D01*
X58126Y-46926D01*
X58140Y-46995D01*
X58206Y-47093D01*
X58810Y-47697D01*
X58810Y-47697D01*
G37*
G54D28*
X58810Y-47697D02*
X58095Y-47697D01*
X57221Y-46823D01*
X57221Y-46818D01*
X57166Y-46685D01*
X57064Y-46583D01*
X56932Y-46528D01*
X56923Y-46528D01*
X57701Y-45751D01*
X57706Y-45751D01*
X57751Y-45732D01*
X57770Y-45751D01*
X57777Y-45754D01*
X57777Y-46356D01*
X57773Y-46360D01*
X57718Y-46492D01*
X57718Y-46636D01*
X57773Y-46769D01*
X57875Y-46871D01*
X58007Y-46926D01*
X58126Y-46926D01*
X58140Y-46995D01*
X58206Y-47093D01*
X58810Y-47697D01*
G54D10*
G36*
X59254Y-43566D02*
X59246Y-43566D01*
X59246Y-43574D01*
X59133Y-43574D01*
X59133Y-43566D01*
X58882Y-43566D01*
X58848Y-43600D01*
X58512Y-43264D01*
X58512Y-42855D01*
X58658Y-43001D01*
X58769Y-43075D01*
X58900Y-43101D01*
X58904Y-43101D01*
X58858Y-43146D01*
X58821Y-43236D01*
X58821Y-43333D01*
X58821Y-43392D01*
X58882Y-43453D01*
X59133Y-43453D01*
X59133Y-43445D01*
X59246Y-43445D01*
X59246Y-43453D01*
X59254Y-43453D01*
X59254Y-43566D01*
X59254Y-43566D01*
G37*
G54D28*
X59254Y-43566D02*
X59246Y-43566D01*
X59246Y-43574D01*
X59133Y-43574D01*
X59133Y-43566D01*
X58882Y-43566D01*
X58848Y-43600D01*
X58512Y-43264D01*
X58512Y-42855D01*
X58658Y-43001D01*
X58769Y-43075D01*
X58900Y-43101D01*
X58904Y-43101D01*
X58858Y-43146D01*
X58821Y-43236D01*
X58821Y-43333D01*
X58821Y-43392D01*
X58882Y-43453D01*
X59133Y-43453D01*
X59133Y-43445D01*
X59246Y-43445D01*
X59246Y-43453D01*
X59254Y-43453D01*
X59254Y-43566D01*
G54D10*
G36*
X59468Y-42418D02*
X59041Y-42418D01*
X58946Y-42323D01*
X58946Y-42303D01*
X58973Y-42303D01*
X59032Y-42303D01*
X59093Y-42242D01*
X59093Y-41991D01*
X59085Y-41991D01*
X59085Y-41878D01*
X59093Y-41878D01*
X59093Y-41870D01*
X59206Y-41870D01*
X59206Y-41878D01*
X59214Y-41878D01*
X59214Y-41991D01*
X59206Y-41991D01*
X59206Y-42242D01*
X59267Y-42303D01*
X59326Y-42303D01*
X59423Y-42303D01*
X59468Y-42284D01*
X59468Y-42418D01*
X59468Y-42418D01*
G37*
G54D28*
X59468Y-42418D02*
X59041Y-42418D01*
X58946Y-42323D01*
X58946Y-42303D01*
X58973Y-42303D01*
X59032Y-42303D01*
X59093Y-42242D01*
X59093Y-41991D01*
X59085Y-41991D01*
X59085Y-41878D01*
X59093Y-41878D01*
X59093Y-41870D01*
X59206Y-41870D01*
X59206Y-41878D01*
X59214Y-41878D01*
X59214Y-41991D01*
X59206Y-41991D01*
X59206Y-42242D01*
X59267Y-42303D01*
X59326Y-42303D01*
X59423Y-42303D01*
X59468Y-42284D01*
X59468Y-42418D01*
G54D10*
G36*
X63797Y-48707D02*
X63627Y-48636D01*
X63450Y-48636D01*
X63638Y-48448D01*
X63704Y-48350D01*
X63727Y-48235D01*
X63727Y-47300D01*
X63727Y-41599D01*
X63797Y-41670D01*
X63797Y-46950D01*
X63797Y-48707D01*
X63797Y-48707D01*
G37*
G54D28*
X63797Y-48707D02*
X63627Y-48636D01*
X63450Y-48636D01*
X63638Y-48448D01*
X63704Y-48350D01*
X63727Y-48235D01*
X63727Y-47300D01*
X63727Y-41599D01*
X63797Y-41670D01*
X63797Y-46950D01*
X63797Y-48707D01*
G54D10*
G36*
X68552Y-49631D02*
X68283Y-49900D01*
X68283Y-32248D01*
X68132Y-31883D01*
X67853Y-31603D01*
X67488Y-31451D01*
X67093Y-31451D01*
X66728Y-31602D01*
X66448Y-31881D01*
X66296Y-32246D01*
X66296Y-32641D01*
X66447Y-33006D01*
X66726Y-33286D01*
X67091Y-33438D01*
X67486Y-33438D01*
X67851Y-33287D01*
X68131Y-33008D01*
X68283Y-32643D01*
X68283Y-32248D01*
X68283Y-49900D01*
X68073Y-50110D01*
X68073Y-48823D01*
X68073Y-38823D01*
X67922Y-38458D01*
X67643Y-38178D01*
X67278Y-38026D01*
X66883Y-38026D01*
X66518Y-38177D01*
X66238Y-38456D01*
X66211Y-38521D01*
X66211Y-35528D01*
X66156Y-35395D01*
X66054Y-35293D01*
X65922Y-35238D01*
X65778Y-35238D01*
X65645Y-35293D01*
X65543Y-35395D01*
X65488Y-35527D01*
X65488Y-35671D01*
X65543Y-35804D01*
X65547Y-35808D01*
X65547Y-37999D01*
X64983Y-38564D01*
X64983Y-33696D01*
X64983Y-33096D01*
X64946Y-33007D01*
X64878Y-32938D01*
X64788Y-32901D01*
X64691Y-32901D01*
X64439Y-32901D01*
X64439Y-32518D01*
X64425Y-32302D01*
X64369Y-32166D01*
X64276Y-32138D01*
X64196Y-32218D01*
X64196Y-32058D01*
X64168Y-31965D01*
X63963Y-31895D01*
X63747Y-31909D01*
X63611Y-31965D01*
X63583Y-32058D01*
X63890Y-32364D01*
X64196Y-32058D01*
X64196Y-32218D01*
X63970Y-32445D01*
X64276Y-32751D01*
X64369Y-32723D01*
X64439Y-32518D01*
X64439Y-32901D01*
X64174Y-32901D01*
X64196Y-32831D01*
X63890Y-32525D01*
X63809Y-32605D01*
X63809Y-32445D01*
X63503Y-32138D01*
X63410Y-32166D01*
X63340Y-32371D01*
X63354Y-32587D01*
X63410Y-32723D01*
X63503Y-32751D01*
X63809Y-32445D01*
X63809Y-32605D01*
X63583Y-32831D01*
X63611Y-32924D01*
X63816Y-32994D01*
X63955Y-32985D01*
X63933Y-33006D01*
X63896Y-33096D01*
X63896Y-33193D01*
X63896Y-33793D01*
X63933Y-33882D01*
X64001Y-33951D01*
X64091Y-33988D01*
X64188Y-33988D01*
X64788Y-33988D01*
X64877Y-33951D01*
X64946Y-33883D01*
X64983Y-33793D01*
X64983Y-33696D01*
X64983Y-38564D01*
X64748Y-38798D01*
X64743Y-38798D01*
X64610Y-38853D01*
X64508Y-38955D01*
X64453Y-39087D01*
X64453Y-39231D01*
X64508Y-39364D01*
X64610Y-39466D01*
X64742Y-39521D01*
X64886Y-39521D01*
X65019Y-39466D01*
X65121Y-39364D01*
X65176Y-39232D01*
X65176Y-39226D01*
X66063Y-38338D01*
X66129Y-38240D01*
X66129Y-38240D01*
X66152Y-38125D01*
X66152Y-35808D01*
X66156Y-35804D01*
X66211Y-35672D01*
X66211Y-35528D01*
X66211Y-38521D01*
X66086Y-38821D01*
X66086Y-39216D01*
X66237Y-39581D01*
X66516Y-39861D01*
X66881Y-40013D01*
X67276Y-40013D01*
X67641Y-39862D01*
X67921Y-39583D01*
X68073Y-39218D01*
X68073Y-38823D01*
X68073Y-48823D01*
X67922Y-48458D01*
X67643Y-48178D01*
X67629Y-48172D01*
X67629Y-45693D01*
X67623Y-45604D01*
X67623Y-44412D01*
X67540Y-44212D01*
X67388Y-44059D01*
X67232Y-43994D01*
X67387Y-43930D01*
X67540Y-43778D01*
X67623Y-43578D01*
X67623Y-43362D01*
X67540Y-43162D01*
X67388Y-43009D01*
X67188Y-42926D01*
X66972Y-42926D01*
X66772Y-43009D01*
X66623Y-43158D01*
X66623Y-42812D01*
X66540Y-42612D01*
X66388Y-42459D01*
X66188Y-42376D01*
X65972Y-42376D01*
X65772Y-42459D01*
X65619Y-42611D01*
X65536Y-42811D01*
X65536Y-43027D01*
X65619Y-43227D01*
X65771Y-43380D01*
X65920Y-43441D01*
X65801Y-43490D01*
X65773Y-43583D01*
X66080Y-43889D01*
X66386Y-43583D01*
X66358Y-43490D01*
X66228Y-43446D01*
X66387Y-43380D01*
X66540Y-43228D01*
X66623Y-43028D01*
X66623Y-42812D01*
X66623Y-43158D01*
X66619Y-43161D01*
X66536Y-43361D01*
X66536Y-43577D01*
X66619Y-43777D01*
X66771Y-43930D01*
X66927Y-43995D01*
X66772Y-44059D01*
X66629Y-44202D01*
X66629Y-44043D01*
X66615Y-43827D01*
X66559Y-43691D01*
X66466Y-43663D01*
X66160Y-43970D01*
X66466Y-44276D01*
X66559Y-44248D01*
X66629Y-44043D01*
X66629Y-44202D01*
X66619Y-44211D01*
X66536Y-44411D01*
X66536Y-44627D01*
X66619Y-44827D01*
X66771Y-44980D01*
X66971Y-45063D01*
X67187Y-45063D01*
X67387Y-44980D01*
X67540Y-44828D01*
X67623Y-44628D01*
X67623Y-44412D01*
X67623Y-45604D01*
X67615Y-45477D01*
X67559Y-45341D01*
X67466Y-45313D01*
X67386Y-45393D01*
X67386Y-45233D01*
X67358Y-45140D01*
X67153Y-45070D01*
X66937Y-45084D01*
X66801Y-45140D01*
X66773Y-45233D01*
X67080Y-45539D01*
X67386Y-45233D01*
X67386Y-45393D01*
X67160Y-45620D01*
X67466Y-45926D01*
X67559Y-45898D01*
X67629Y-45693D01*
X67629Y-48172D01*
X67386Y-48071D01*
X67386Y-46006D01*
X67080Y-45700D01*
X66999Y-45780D01*
X66999Y-45620D01*
X66693Y-45313D01*
X66623Y-45335D01*
X66623Y-44962D01*
X66540Y-44762D01*
X66388Y-44609D01*
X66386Y-44608D01*
X66386Y-44356D01*
X66080Y-44050D01*
X65999Y-44130D01*
X65999Y-43970D01*
X65693Y-43663D01*
X65600Y-43691D01*
X65530Y-43896D01*
X65544Y-44112D01*
X65600Y-44248D01*
X65693Y-44276D01*
X65999Y-43970D01*
X65999Y-44130D01*
X65773Y-44356D01*
X65801Y-44449D01*
X66006Y-44519D01*
X66222Y-44505D01*
X66358Y-44449D01*
X66386Y-44356D01*
X66386Y-44608D01*
X66188Y-44526D01*
X65972Y-44526D01*
X65772Y-44609D01*
X65619Y-44761D01*
X65536Y-44961D01*
X65536Y-45177D01*
X65619Y-45377D01*
X65771Y-45530D01*
X65971Y-45613D01*
X66187Y-45613D01*
X66387Y-45530D01*
X66540Y-45378D01*
X66623Y-45178D01*
X66623Y-44962D01*
X66623Y-45335D01*
X66600Y-45341D01*
X66530Y-45546D01*
X66539Y-45685D01*
X66518Y-45663D01*
X66428Y-45626D01*
X66331Y-45626D01*
X65731Y-45626D01*
X65642Y-45663D01*
X65573Y-45731D01*
X65536Y-45821D01*
X65536Y-45918D01*
X65536Y-46518D01*
X65573Y-46607D01*
X65641Y-46676D01*
X65731Y-46713D01*
X65828Y-46713D01*
X66428Y-46713D01*
X66517Y-46676D01*
X66586Y-46608D01*
X66623Y-46518D01*
X66623Y-46421D01*
X66623Y-45904D01*
X66693Y-45926D01*
X66999Y-45620D01*
X66999Y-45780D01*
X66773Y-46006D01*
X66801Y-46099D01*
X67006Y-46169D01*
X67222Y-46155D01*
X67358Y-46099D01*
X67386Y-46006D01*
X67386Y-48071D01*
X67278Y-48026D01*
X66883Y-48026D01*
X66518Y-48177D01*
X66238Y-48456D01*
X66086Y-48821D01*
X66086Y-49216D01*
X66237Y-49581D01*
X66516Y-49861D01*
X66881Y-50013D01*
X67276Y-50013D01*
X67641Y-49862D01*
X67921Y-49583D01*
X68073Y-49218D01*
X68073Y-48823D01*
X68073Y-50110D01*
X67946Y-50237D01*
X64062Y-50237D01*
X64062Y-50064D01*
X64313Y-49813D01*
X64313Y-49813D01*
X64313Y-49813D01*
X64379Y-49714D01*
X64402Y-49599D01*
X64402Y-49599D01*
X64402Y-46950D01*
X64402Y-42288D01*
X64432Y-42288D01*
X64493Y-42227D01*
X64493Y-41876D01*
X64485Y-41876D01*
X64485Y-41763D01*
X64493Y-41763D01*
X64493Y-41412D01*
X64432Y-41351D01*
X64376Y-41351D01*
X64338Y-41367D01*
X64313Y-41331D01*
X64313Y-41331D01*
X64081Y-41098D01*
X64081Y-41093D01*
X64026Y-40960D01*
X63924Y-40858D01*
X63792Y-40803D01*
X63684Y-40803D01*
X63584Y-40703D01*
X63452Y-40648D01*
X63308Y-40648D01*
X63175Y-40703D01*
X63073Y-40805D01*
X63018Y-40937D01*
X63018Y-41081D01*
X63073Y-41214D01*
X63122Y-41263D01*
X63122Y-47300D01*
X63122Y-47373D01*
X63063Y-47373D01*
X62930Y-47428D01*
X62906Y-47452D01*
X62361Y-47452D01*
X62361Y-47433D01*
X62306Y-47300D01*
X62204Y-47198D01*
X62072Y-47143D01*
X62013Y-47143D01*
X61991Y-47090D01*
X61889Y-46988D01*
X61757Y-46933D01*
X61678Y-46933D01*
X61666Y-46905D01*
X61564Y-46803D01*
X61432Y-46748D01*
X61377Y-46748D01*
X61376Y-46745D01*
X61274Y-46643D01*
X61142Y-46588D01*
X61131Y-46588D01*
X61121Y-46565D01*
X61019Y-46463D01*
X60887Y-46408D01*
X60871Y-46408D01*
X60866Y-46395D01*
X60764Y-46293D01*
X60632Y-46238D01*
X60619Y-46238D01*
X60611Y-46220D01*
X60509Y-46118D01*
X60377Y-46063D01*
X60233Y-46063D01*
X60100Y-46118D01*
X60031Y-46187D01*
X60012Y-46187D01*
X60012Y-44889D01*
X59989Y-44773D01*
X59923Y-44675D01*
X59226Y-43978D01*
X59246Y-43978D01*
X59246Y-43917D01*
X59307Y-43978D01*
X59363Y-43978D01*
X59428Y-43951D01*
X59428Y-44041D01*
X59483Y-44174D01*
X59585Y-44276D01*
X59717Y-44331D01*
X59861Y-44331D01*
X59994Y-44276D01*
X60096Y-44174D01*
X60148Y-44049D01*
X60148Y-45530D01*
X60164Y-45610D01*
X60164Y-45729D01*
X60225Y-45876D01*
X60337Y-45989D01*
X60484Y-46050D01*
X60644Y-46050D01*
X60651Y-46048D01*
X60670Y-46051D01*
X60767Y-46051D01*
X60831Y-46078D01*
X60928Y-46078D01*
X61378Y-46078D01*
X61442Y-46051D01*
X61651Y-46051D01*
X61651Y-46438D01*
X61688Y-46527D01*
X61756Y-46596D01*
X61846Y-46633D01*
X61943Y-46633D01*
X62743Y-46633D01*
X62832Y-46596D01*
X62901Y-46528D01*
X62938Y-46438D01*
X62938Y-46341D01*
X62938Y-45741D01*
X62938Y-45138D01*
X62938Y-44907D01*
X62877Y-44846D01*
X62351Y-44846D01*
X62351Y-45272D01*
X62412Y-45333D01*
X62646Y-45333D01*
X62743Y-45333D01*
X62833Y-45296D01*
X62901Y-45227D01*
X62938Y-45138D01*
X62938Y-45741D01*
X62901Y-45652D01*
X62833Y-45583D01*
X62743Y-45546D01*
X62646Y-45546D01*
X62238Y-45546D01*
X62238Y-45272D01*
X62238Y-44846D01*
X61712Y-44846D01*
X61651Y-44907D01*
X61651Y-45138D01*
X61688Y-45227D01*
X61756Y-45296D01*
X61846Y-45333D01*
X61943Y-45333D01*
X62177Y-45333D01*
X62238Y-45272D01*
X62238Y-45546D01*
X62234Y-45546D01*
X62156Y-45468D01*
X62045Y-45394D01*
X61915Y-45368D01*
X61538Y-45368D01*
X61573Y-45283D01*
X61573Y-44936D01*
X61536Y-44847D01*
X61468Y-44778D01*
X61378Y-44741D01*
X61281Y-44741D01*
X61222Y-44741D01*
X61161Y-44802D01*
X61161Y-45053D01*
X61512Y-45053D01*
X61573Y-44992D01*
X61573Y-44936D01*
X61573Y-45283D01*
X61573Y-45227D01*
X61512Y-45166D01*
X61161Y-45166D01*
X61161Y-45174D01*
X61048Y-45174D01*
X61048Y-45166D01*
X61040Y-45166D01*
X61040Y-45053D01*
X61048Y-45053D01*
X61048Y-44802D01*
X60987Y-44741D01*
X60928Y-44741D01*
X60831Y-44741D01*
X60831Y-43774D01*
X60876Y-43793D01*
X60973Y-43793D01*
X61423Y-43793D01*
X61487Y-43766D01*
X61656Y-43766D01*
X61656Y-44158D01*
X61693Y-44247D01*
X61743Y-44297D01*
X61688Y-44352D01*
X61651Y-44441D01*
X61651Y-44672D01*
X61712Y-44733D01*
X62238Y-44733D01*
X62238Y-44725D01*
X62351Y-44725D01*
X62351Y-44733D01*
X62877Y-44733D01*
X62938Y-44672D01*
X62938Y-44441D01*
X62901Y-44352D01*
X62851Y-44302D01*
X62906Y-44248D01*
X62943Y-44158D01*
X62943Y-44061D01*
X62943Y-43461D01*
X62906Y-43372D01*
X62838Y-43303D01*
X62748Y-43266D01*
X62651Y-43266D01*
X62542Y-43266D01*
X62545Y-43260D01*
X62545Y-43100D01*
X62526Y-43053D01*
X62651Y-43053D01*
X62748Y-43053D01*
X62838Y-43016D01*
X62906Y-42947D01*
X62943Y-42858D01*
X62943Y-42627D01*
X62882Y-42566D01*
X62356Y-42566D01*
X62356Y-42574D01*
X62243Y-42574D01*
X62243Y-42566D01*
X61717Y-42566D01*
X61656Y-42627D01*
X61656Y-42858D01*
X61693Y-42947D01*
X61761Y-43016D01*
X61776Y-43022D01*
X61751Y-43083D01*
X61583Y-43083D01*
X61618Y-42998D01*
X61618Y-42942D01*
X61557Y-42881D01*
X61206Y-42881D01*
X61206Y-42889D01*
X61093Y-42889D01*
X61093Y-42881D01*
X60742Y-42881D01*
X60681Y-42942D01*
X60681Y-42998D01*
X60716Y-43083D01*
X60631Y-43083D01*
X60151Y-42603D01*
X60151Y-40611D01*
X60276Y-40486D01*
X60332Y-40486D01*
X60365Y-40520D01*
X60303Y-40581D01*
X60266Y-40671D01*
X60266Y-40768D01*
X60266Y-41118D01*
X60299Y-41196D01*
X60298Y-41196D01*
X60261Y-41286D01*
X60261Y-41383D01*
X60261Y-41733D01*
X60298Y-41822D01*
X60360Y-41885D01*
X60298Y-41946D01*
X60261Y-42036D01*
X60261Y-42133D01*
X60261Y-42483D01*
X60298Y-42572D01*
X60366Y-42641D01*
X60456Y-42678D01*
X60553Y-42678D01*
X60681Y-42678D01*
X60681Y-42707D01*
X60742Y-42768D01*
X61093Y-42768D01*
X61093Y-42760D01*
X61206Y-42760D01*
X61206Y-42768D01*
X61557Y-42768D01*
X61618Y-42707D01*
X61618Y-42651D01*
X61581Y-42562D01*
X61513Y-42493D01*
X61423Y-42456D01*
X61326Y-42456D01*
X61298Y-42456D01*
X61298Y-42424D01*
X61591Y-42130D01*
X61616Y-42156D01*
X61656Y-42172D01*
X61656Y-42392D01*
X61717Y-42453D01*
X62243Y-42453D01*
X62243Y-42445D01*
X62356Y-42445D01*
X62356Y-42453D01*
X62882Y-42453D01*
X62943Y-42392D01*
X62943Y-42161D01*
X62906Y-42072D01*
X62838Y-42003D01*
X62748Y-41966D01*
X62651Y-41966D01*
X62448Y-41966D01*
X62448Y-41901D01*
X62448Y-41651D01*
X62411Y-41562D01*
X62374Y-41525D01*
X62411Y-41487D01*
X62448Y-41398D01*
X62448Y-41342D01*
X62387Y-41281D01*
X62036Y-41281D01*
X62036Y-41289D01*
X61923Y-41289D01*
X61923Y-41281D01*
X61572Y-41281D01*
X61511Y-41342D01*
X61511Y-41398D01*
X61548Y-41487D01*
X61583Y-41522D01*
X61470Y-41522D01*
X61354Y-41545D01*
X61298Y-41583D01*
X61298Y-41286D01*
X61265Y-41208D01*
X61266Y-41208D01*
X61270Y-41197D01*
X61610Y-41197D01*
X61725Y-41174D01*
X61725Y-41174D01*
X61734Y-41168D01*
X61734Y-41168D01*
X61923Y-41168D01*
X61923Y-41160D01*
X62036Y-41160D01*
X62036Y-41168D01*
X62387Y-41168D01*
X62448Y-41107D01*
X62448Y-41051D01*
X62411Y-40962D01*
X62343Y-40893D01*
X62253Y-40856D01*
X62156Y-40856D01*
X62137Y-40856D01*
X62176Y-40762D01*
X62176Y-40618D01*
X62122Y-40486D01*
X64988Y-40486D01*
X65433Y-40931D01*
X65433Y-40931D01*
X65544Y-41005D01*
X65544Y-41005D01*
X65648Y-41026D01*
X65674Y-41031D01*
X65674Y-41031D01*
X65675Y-41031D01*
X65919Y-41031D01*
X65928Y-41052D01*
X65996Y-41121D01*
X66086Y-41158D01*
X66183Y-41158D01*
X66433Y-41158D01*
X66522Y-41121D01*
X66537Y-41106D01*
X66537Y-41509D01*
X66388Y-41359D01*
X66188Y-41276D01*
X65972Y-41276D01*
X65772Y-41359D01*
X65633Y-41497D01*
X65498Y-41497D01*
X65481Y-41457D01*
X65413Y-41388D01*
X65323Y-41351D01*
X65226Y-41351D01*
X64976Y-41351D01*
X64887Y-41388D01*
X64850Y-41425D01*
X64812Y-41388D01*
X64723Y-41351D01*
X64667Y-41351D01*
X64606Y-41412D01*
X64606Y-41763D01*
X64614Y-41763D01*
X64614Y-41876D01*
X64606Y-41876D01*
X64606Y-42227D01*
X64667Y-42288D01*
X64723Y-42288D01*
X64812Y-42251D01*
X64850Y-42214D01*
X64886Y-42251D01*
X64976Y-42288D01*
X65073Y-42288D01*
X65323Y-42288D01*
X65412Y-42251D01*
X65481Y-42183D01*
X65498Y-42142D01*
X65633Y-42142D01*
X65771Y-42280D01*
X65971Y-42363D01*
X66187Y-42363D01*
X66387Y-42280D01*
X66537Y-42130D01*
X66537Y-42150D01*
X66552Y-42223D01*
X66536Y-42261D01*
X66536Y-42477D01*
X66619Y-42677D01*
X66771Y-42830D01*
X66971Y-42913D01*
X67187Y-42913D01*
X67387Y-42830D01*
X67540Y-42678D01*
X67623Y-42478D01*
X67623Y-42262D01*
X67540Y-42062D01*
X67388Y-41909D01*
X67188Y-41826D01*
X67182Y-41826D01*
X67182Y-41062D01*
X67191Y-41053D01*
X67228Y-40963D01*
X67228Y-40866D01*
X67228Y-40416D01*
X67191Y-40327D01*
X67123Y-40258D01*
X67033Y-40221D01*
X66936Y-40221D01*
X66686Y-40221D01*
X66597Y-40258D01*
X66559Y-40295D01*
X66523Y-40258D01*
X66433Y-40221D01*
X66336Y-40221D01*
X66086Y-40221D01*
X65997Y-40258D01*
X65928Y-40326D01*
X65920Y-40348D01*
X65816Y-40348D01*
X65371Y-39903D01*
X65260Y-39829D01*
X65130Y-39803D01*
X63883Y-39803D01*
X63883Y-33337D01*
X63800Y-33137D01*
X63648Y-32984D01*
X63448Y-32901D01*
X63333Y-32901D01*
X63333Y-32337D01*
X63250Y-32137D01*
X63098Y-31984D01*
X62898Y-31901D01*
X62682Y-31901D01*
X62482Y-31984D01*
X62329Y-32136D01*
X62264Y-32292D01*
X62200Y-32137D01*
X62048Y-31984D01*
X61848Y-31901D01*
X61632Y-31901D01*
X61432Y-31984D01*
X61279Y-32136D01*
X61196Y-32336D01*
X61196Y-32552D01*
X61279Y-32752D01*
X61431Y-32905D01*
X61631Y-32988D01*
X61847Y-32988D01*
X62047Y-32905D01*
X62200Y-32753D01*
X62265Y-32597D01*
X62329Y-32752D01*
X62481Y-32905D01*
X62681Y-32988D01*
X62897Y-32988D01*
X63097Y-32905D01*
X63250Y-32753D01*
X63333Y-32553D01*
X63333Y-32337D01*
X63333Y-32901D01*
X63232Y-32901D01*
X63032Y-32984D01*
X62879Y-33136D01*
X62796Y-33336D01*
X62796Y-33552D01*
X62879Y-33752D01*
X63031Y-33905D01*
X63231Y-33988D01*
X63447Y-33988D01*
X63647Y-33905D01*
X63800Y-33753D01*
X63883Y-33553D01*
X63883Y-33337D01*
X63883Y-39803D01*
X62789Y-39803D01*
X62789Y-33518D01*
X62775Y-33302D01*
X62719Y-33166D01*
X62626Y-33138D01*
X62546Y-33218D01*
X62546Y-33058D01*
X62518Y-32965D01*
X62313Y-32895D01*
X62097Y-32909D01*
X61961Y-32965D01*
X61933Y-33058D01*
X62240Y-33364D01*
X62546Y-33058D01*
X62546Y-33218D01*
X62320Y-33445D01*
X62626Y-33751D01*
X62719Y-33723D01*
X62789Y-33518D01*
X62789Y-39803D01*
X62546Y-39803D01*
X62546Y-33831D01*
X62240Y-33525D01*
X62159Y-33605D01*
X62159Y-33445D01*
X61853Y-33138D01*
X61760Y-33166D01*
X61716Y-33296D01*
X61650Y-33137D01*
X61498Y-32984D01*
X61298Y-32901D01*
X61082Y-32901D01*
X60882Y-32984D01*
X60729Y-33136D01*
X60646Y-33336D01*
X60646Y-33552D01*
X60729Y-33752D01*
X60881Y-33905D01*
X61081Y-33988D01*
X61297Y-33988D01*
X61497Y-33905D01*
X61650Y-33753D01*
X61711Y-33604D01*
X61760Y-33723D01*
X61853Y-33751D01*
X62159Y-33445D01*
X62159Y-33605D01*
X61933Y-33831D01*
X61961Y-33924D01*
X62166Y-33994D01*
X62382Y-33980D01*
X62518Y-33924D01*
X62546Y-33831D01*
X62546Y-39803D01*
X61237Y-39803D01*
X61198Y-39763D01*
X61108Y-39726D01*
X61039Y-39726D01*
X60998Y-39666D01*
X60941Y-39608D01*
X60941Y-39603D01*
X60886Y-39470D01*
X60784Y-39368D01*
X60652Y-39313D01*
X60633Y-39313D01*
X60633Y-33337D01*
X60550Y-33137D01*
X60398Y-32984D01*
X60198Y-32901D01*
X59982Y-32901D01*
X59782Y-32984D01*
X59629Y-33136D01*
X59546Y-33336D01*
X59546Y-33552D01*
X59629Y-33752D01*
X59752Y-33876D01*
X59752Y-34006D01*
X59712Y-34023D01*
X59643Y-34091D01*
X59606Y-34181D01*
X59606Y-34278D01*
X59606Y-34528D01*
X59643Y-34617D01*
X59680Y-34655D01*
X59643Y-34692D01*
X59606Y-34781D01*
X59606Y-34837D01*
X59667Y-34898D01*
X60018Y-34898D01*
X60018Y-34890D01*
X60131Y-34890D01*
X60131Y-34898D01*
X60482Y-34898D01*
X60543Y-34837D01*
X60543Y-34781D01*
X60506Y-34692D01*
X60469Y-34654D01*
X60506Y-34618D01*
X60543Y-34528D01*
X60543Y-34431D01*
X60543Y-34181D01*
X60506Y-34092D01*
X60438Y-34023D01*
X60397Y-34006D01*
X60397Y-33905D01*
X60397Y-33905D01*
X60550Y-33753D01*
X60633Y-33553D01*
X60633Y-33337D01*
X60633Y-39313D01*
X60543Y-39313D01*
X60543Y-35128D01*
X60543Y-35072D01*
X60482Y-35011D01*
X60131Y-35011D01*
X60131Y-35262D01*
X60192Y-35323D01*
X60251Y-35323D01*
X60348Y-35323D01*
X60438Y-35286D01*
X60506Y-35217D01*
X60543Y-35128D01*
X60543Y-39313D01*
X60508Y-39313D01*
X60375Y-39368D01*
X60273Y-39470D01*
X60218Y-39602D01*
X60218Y-39746D01*
X60241Y-39803D01*
X60135Y-39803D01*
X60018Y-39826D01*
X60018Y-35262D01*
X60018Y-35011D01*
X59667Y-35011D01*
X59606Y-35072D01*
X59606Y-35128D01*
X59643Y-35217D01*
X59711Y-35286D01*
X59801Y-35323D01*
X59898Y-35323D01*
X59957Y-35323D01*
X60018Y-35262D01*
X60018Y-39826D01*
X60004Y-39829D01*
X59893Y-39903D01*
X59893Y-39903D01*
X59593Y-40203D01*
X59593Y-40156D01*
X59593Y-39939D01*
X59613Y-39918D01*
X59679Y-39820D01*
X59702Y-39705D01*
X59702Y-39608D01*
X59706Y-39604D01*
X59761Y-39472D01*
X59761Y-39328D01*
X59706Y-39195D01*
X59604Y-39093D01*
X59472Y-39038D01*
X59328Y-39038D01*
X59195Y-39093D01*
X59093Y-39195D01*
X59038Y-39327D01*
X59038Y-39471D01*
X59087Y-39589D01*
X59065Y-39611D01*
X58753Y-39611D01*
X58753Y-36306D01*
X58673Y-36113D01*
X58526Y-35966D01*
X58334Y-35886D01*
X58126Y-35886D01*
X57933Y-35966D01*
X57786Y-36113D01*
X57706Y-36305D01*
X57706Y-36513D01*
X57786Y-36706D01*
X57933Y-36853D01*
X58125Y-36933D01*
X58333Y-36933D01*
X58526Y-36853D01*
X58673Y-36706D01*
X58753Y-36514D01*
X58753Y-36306D01*
X58753Y-39611D01*
X58751Y-39611D01*
X58662Y-39648D01*
X58647Y-39663D01*
X58633Y-39648D01*
X58543Y-39611D01*
X58446Y-39611D01*
X57896Y-39611D01*
X57807Y-39648D01*
X57784Y-39670D01*
X57781Y-39662D01*
X57713Y-39593D01*
X57623Y-39556D01*
X57526Y-39556D01*
X57076Y-39556D01*
X57033Y-39574D01*
X57033Y-39486D01*
X57033Y-38936D01*
X57014Y-38891D01*
X57106Y-38799D01*
X57161Y-38667D01*
X57161Y-38523D01*
X57106Y-38390D01*
X57004Y-38288D01*
X56872Y-38233D01*
X56753Y-38233D01*
X56753Y-36306D01*
X56673Y-36113D01*
X56526Y-35966D01*
X56334Y-35886D01*
X56126Y-35886D01*
X55933Y-35966D01*
X55786Y-36113D01*
X55706Y-36305D01*
X55706Y-36513D01*
X55786Y-36706D01*
X55933Y-36853D01*
X56125Y-36933D01*
X56333Y-36933D01*
X56526Y-36853D01*
X56673Y-36706D01*
X56753Y-36514D01*
X56753Y-36306D01*
X56753Y-38233D01*
X56728Y-38233D01*
X56595Y-38288D01*
X56493Y-38390D01*
X56438Y-38522D01*
X56438Y-38528D01*
X56401Y-38566D01*
X56335Y-38664D01*
X56313Y-38773D01*
X56302Y-38778D01*
X56240Y-38840D01*
X56177Y-38778D01*
X56088Y-38741D01*
X55982Y-38741D01*
X55921Y-38802D01*
X55921Y-39203D01*
X55929Y-39203D01*
X55929Y-39316D01*
X55921Y-39316D01*
X55921Y-39717D01*
X55931Y-39727D01*
X55931Y-39858D01*
X55939Y-39858D01*
X55939Y-39971D01*
X55931Y-39971D01*
X55931Y-39979D01*
X55818Y-39979D01*
X55818Y-39971D01*
X55810Y-39971D01*
X55810Y-39858D01*
X55818Y-39858D01*
X55818Y-39607D01*
X55808Y-39597D01*
X55808Y-39316D01*
X55800Y-39316D01*
X55800Y-39203D01*
X55808Y-39203D01*
X55808Y-38802D01*
X55747Y-38741D01*
X55661Y-38741D01*
X55661Y-37380D01*
X55635Y-37249D01*
X55561Y-37138D01*
X55221Y-36798D01*
X55221Y-35311D01*
X56476Y-34056D01*
X58645Y-34056D01*
X58775Y-34030D01*
X58886Y-33956D01*
X59231Y-33611D01*
X59231Y-33611D01*
X59231Y-33611D01*
X59305Y-33500D01*
X59327Y-33391D01*
X59352Y-33381D01*
X59421Y-33313D01*
X59458Y-33223D01*
X59458Y-33126D01*
X59458Y-32876D01*
X59421Y-32787D01*
X59406Y-32772D01*
X60198Y-32772D01*
X60331Y-32905D01*
X60531Y-32988D01*
X60747Y-32988D01*
X60947Y-32905D01*
X61100Y-32753D01*
X61183Y-32553D01*
X61183Y-32337D01*
X61100Y-32137D01*
X60948Y-31984D01*
X60748Y-31901D01*
X60532Y-31901D01*
X60332Y-31984D01*
X60188Y-32127D01*
X59362Y-32127D01*
X59353Y-32118D01*
X59263Y-32081D01*
X59166Y-32081D01*
X58716Y-32081D01*
X58627Y-32118D01*
X58558Y-32186D01*
X58521Y-32276D01*
X58521Y-32373D01*
X58521Y-32623D01*
X58558Y-32712D01*
X58595Y-32750D01*
X58558Y-32786D01*
X58521Y-32876D01*
X58521Y-32973D01*
X58521Y-33223D01*
X58558Y-33312D01*
X58561Y-33315D01*
X58503Y-33373D01*
X57644Y-33373D01*
X57851Y-33287D01*
X58131Y-33008D01*
X58283Y-32643D01*
X58283Y-32248D01*
X58132Y-31883D01*
X57853Y-31603D01*
X57488Y-31451D01*
X57093Y-31451D01*
X56728Y-31602D01*
X56448Y-31881D01*
X56296Y-32246D01*
X56296Y-32641D01*
X56447Y-33006D01*
X56726Y-33286D01*
X56935Y-33373D01*
X56335Y-33373D01*
X56204Y-33399D01*
X56093Y-33473D01*
X54638Y-34928D01*
X54564Y-35039D01*
X54538Y-35170D01*
X54538Y-35708D01*
X54442Y-35668D01*
X54298Y-35668D01*
X54252Y-35687D01*
X54252Y-33115D01*
X55133Y-32234D01*
X55133Y-32234D01*
X55133Y-32234D01*
X55198Y-32136D01*
X55221Y-32020D01*
X55221Y-32020D01*
X55221Y-31723D01*
X55267Y-31723D01*
X55356Y-31686D01*
X55425Y-31618D01*
X55462Y-31528D01*
X55462Y-31431D01*
X55462Y-31102D01*
X68181Y-31102D01*
X68552Y-31473D01*
X68552Y-49631D01*
X68552Y-49631D01*
G37*
G54D28*
X68552Y-49631D02*
X68283Y-49900D01*
X68283Y-32248D01*
X68132Y-31883D01*
X67853Y-31603D01*
X67488Y-31451D01*
X67093Y-31451D01*
X66728Y-31602D01*
X66448Y-31881D01*
X66296Y-32246D01*
X66296Y-32641D01*
X66447Y-33006D01*
X66726Y-33286D01*
X67091Y-33438D01*
X67486Y-33438D01*
X67851Y-33287D01*
X68131Y-33008D01*
X68283Y-32643D01*
X68283Y-32248D01*
X68283Y-49900D01*
X68073Y-50110D01*
X68073Y-48823D01*
X68073Y-38823D01*
X67922Y-38458D01*
X67643Y-38178D01*
X67278Y-38026D01*
X66883Y-38026D01*
X66518Y-38177D01*
X66238Y-38456D01*
X66211Y-38521D01*
X66211Y-35528D01*
X66156Y-35395D01*
X66054Y-35293D01*
X65922Y-35238D01*
X65778Y-35238D01*
X65645Y-35293D01*
X65543Y-35395D01*
X65488Y-35527D01*
X65488Y-35671D01*
X65543Y-35804D01*
X65547Y-35808D01*
X65547Y-37999D01*
X64983Y-38564D01*
X64983Y-33696D01*
X64983Y-33096D01*
X64946Y-33007D01*
X64878Y-32938D01*
X64788Y-32901D01*
X64691Y-32901D01*
X64439Y-32901D01*
X64439Y-32518D01*
X64425Y-32302D01*
X64369Y-32166D01*
X64276Y-32138D01*
X64196Y-32218D01*
X64196Y-32058D01*
X64168Y-31965D01*
X63963Y-31895D01*
X63747Y-31909D01*
X63611Y-31965D01*
X63583Y-32058D01*
X63890Y-32364D01*
X64196Y-32058D01*
X64196Y-32218D01*
X63970Y-32445D01*
X64276Y-32751D01*
X64369Y-32723D01*
X64439Y-32518D01*
X64439Y-32901D01*
X64174Y-32901D01*
X64196Y-32831D01*
X63890Y-32525D01*
X63809Y-32605D01*
X63809Y-32445D01*
X63503Y-32138D01*
X63410Y-32166D01*
X63340Y-32371D01*
X63354Y-32587D01*
X63410Y-32723D01*
X63503Y-32751D01*
X63809Y-32445D01*
X63809Y-32605D01*
X63583Y-32831D01*
X63611Y-32924D01*
X63816Y-32994D01*
X63955Y-32985D01*
X63933Y-33006D01*
X63896Y-33096D01*
X63896Y-33193D01*
X63896Y-33793D01*
X63933Y-33882D01*
X64001Y-33951D01*
X64091Y-33988D01*
X64188Y-33988D01*
X64788Y-33988D01*
X64877Y-33951D01*
X64946Y-33883D01*
X64983Y-33793D01*
X64983Y-33696D01*
X64983Y-38564D01*
X64748Y-38798D01*
X64743Y-38798D01*
X64610Y-38853D01*
X64508Y-38955D01*
X64453Y-39087D01*
X64453Y-39231D01*
X64508Y-39364D01*
X64610Y-39466D01*
X64742Y-39521D01*
X64886Y-39521D01*
X65019Y-39466D01*
X65121Y-39364D01*
X65176Y-39232D01*
X65176Y-39226D01*
X66063Y-38338D01*
X66129Y-38240D01*
X66129Y-38240D01*
X66152Y-38125D01*
X66152Y-35808D01*
X66156Y-35804D01*
X66211Y-35672D01*
X66211Y-35528D01*
X66211Y-38521D01*
X66086Y-38821D01*
X66086Y-39216D01*
X66237Y-39581D01*
X66516Y-39861D01*
X66881Y-40013D01*
X67276Y-40013D01*
X67641Y-39862D01*
X67921Y-39583D01*
X68073Y-39218D01*
X68073Y-38823D01*
X68073Y-48823D01*
X67922Y-48458D01*
X67643Y-48178D01*
X67629Y-48172D01*
X67629Y-45693D01*
X67623Y-45604D01*
X67623Y-44412D01*
X67540Y-44212D01*
X67388Y-44059D01*
X67232Y-43994D01*
X67387Y-43930D01*
X67540Y-43778D01*
X67623Y-43578D01*
X67623Y-43362D01*
X67540Y-43162D01*
X67388Y-43009D01*
X67188Y-42926D01*
X66972Y-42926D01*
X66772Y-43009D01*
X66623Y-43158D01*
X66623Y-42812D01*
X66540Y-42612D01*
X66388Y-42459D01*
X66188Y-42376D01*
X65972Y-42376D01*
X65772Y-42459D01*
X65619Y-42611D01*
X65536Y-42811D01*
X65536Y-43027D01*
X65619Y-43227D01*
X65771Y-43380D01*
X65920Y-43441D01*
X65801Y-43490D01*
X65773Y-43583D01*
X66080Y-43889D01*
X66386Y-43583D01*
X66358Y-43490D01*
X66228Y-43446D01*
X66387Y-43380D01*
X66540Y-43228D01*
X66623Y-43028D01*
X66623Y-42812D01*
X66623Y-43158D01*
X66619Y-43161D01*
X66536Y-43361D01*
X66536Y-43577D01*
X66619Y-43777D01*
X66771Y-43930D01*
X66927Y-43995D01*
X66772Y-44059D01*
X66629Y-44202D01*
X66629Y-44043D01*
X66615Y-43827D01*
X66559Y-43691D01*
X66466Y-43663D01*
X66160Y-43970D01*
X66466Y-44276D01*
X66559Y-44248D01*
X66629Y-44043D01*
X66629Y-44202D01*
X66619Y-44211D01*
X66536Y-44411D01*
X66536Y-44627D01*
X66619Y-44827D01*
X66771Y-44980D01*
X66971Y-45063D01*
X67187Y-45063D01*
X67387Y-44980D01*
X67540Y-44828D01*
X67623Y-44628D01*
X67623Y-44412D01*
X67623Y-45604D01*
X67615Y-45477D01*
X67559Y-45341D01*
X67466Y-45313D01*
X67386Y-45393D01*
X67386Y-45233D01*
X67358Y-45140D01*
X67153Y-45070D01*
X66937Y-45084D01*
X66801Y-45140D01*
X66773Y-45233D01*
X67080Y-45539D01*
X67386Y-45233D01*
X67386Y-45393D01*
X67160Y-45620D01*
X67466Y-45926D01*
X67559Y-45898D01*
X67629Y-45693D01*
X67629Y-48172D01*
X67386Y-48071D01*
X67386Y-46006D01*
X67080Y-45700D01*
X66999Y-45780D01*
X66999Y-45620D01*
X66693Y-45313D01*
X66623Y-45335D01*
X66623Y-44962D01*
X66540Y-44762D01*
X66388Y-44609D01*
X66386Y-44608D01*
X66386Y-44356D01*
X66080Y-44050D01*
X65999Y-44130D01*
X65999Y-43970D01*
X65693Y-43663D01*
X65600Y-43691D01*
X65530Y-43896D01*
X65544Y-44112D01*
X65600Y-44248D01*
X65693Y-44276D01*
X65999Y-43970D01*
X65999Y-44130D01*
X65773Y-44356D01*
X65801Y-44449D01*
X66006Y-44519D01*
X66222Y-44505D01*
X66358Y-44449D01*
X66386Y-44356D01*
X66386Y-44608D01*
X66188Y-44526D01*
X65972Y-44526D01*
X65772Y-44609D01*
X65619Y-44761D01*
X65536Y-44961D01*
X65536Y-45177D01*
X65619Y-45377D01*
X65771Y-45530D01*
X65971Y-45613D01*
X66187Y-45613D01*
X66387Y-45530D01*
X66540Y-45378D01*
X66623Y-45178D01*
X66623Y-44962D01*
X66623Y-45335D01*
X66600Y-45341D01*
X66530Y-45546D01*
X66539Y-45685D01*
X66518Y-45663D01*
X66428Y-45626D01*
X66331Y-45626D01*
X65731Y-45626D01*
X65642Y-45663D01*
X65573Y-45731D01*
X65536Y-45821D01*
X65536Y-45918D01*
X65536Y-46518D01*
X65573Y-46607D01*
X65641Y-46676D01*
X65731Y-46713D01*
X65828Y-46713D01*
X66428Y-46713D01*
X66517Y-46676D01*
X66586Y-46608D01*
X66623Y-46518D01*
X66623Y-46421D01*
X66623Y-45904D01*
X66693Y-45926D01*
X66999Y-45620D01*
X66999Y-45780D01*
X66773Y-46006D01*
X66801Y-46099D01*
X67006Y-46169D01*
X67222Y-46155D01*
X67358Y-46099D01*
X67386Y-46006D01*
X67386Y-48071D01*
X67278Y-48026D01*
X66883Y-48026D01*
X66518Y-48177D01*
X66238Y-48456D01*
X66086Y-48821D01*
X66086Y-49216D01*
X66237Y-49581D01*
X66516Y-49861D01*
X66881Y-50013D01*
X67276Y-50013D01*
X67641Y-49862D01*
X67921Y-49583D01*
X68073Y-49218D01*
X68073Y-48823D01*
X68073Y-50110D01*
X67946Y-50237D01*
X64062Y-50237D01*
X64062Y-50064D01*
X64313Y-49813D01*
X64313Y-49813D01*
X64313Y-49813D01*
X64379Y-49714D01*
X64402Y-49599D01*
X64402Y-49599D01*
X64402Y-46950D01*
X64402Y-42288D01*
X64432Y-42288D01*
X64493Y-42227D01*
X64493Y-41876D01*
X64485Y-41876D01*
X64485Y-41763D01*
X64493Y-41763D01*
X64493Y-41412D01*
X64432Y-41351D01*
X64376Y-41351D01*
X64338Y-41367D01*
X64313Y-41331D01*
X64313Y-41331D01*
X64081Y-41098D01*
X64081Y-41093D01*
X64026Y-40960D01*
X63924Y-40858D01*
X63792Y-40803D01*
X63684Y-40803D01*
X63584Y-40703D01*
X63452Y-40648D01*
X63308Y-40648D01*
X63175Y-40703D01*
X63073Y-40805D01*
X63018Y-40937D01*
X63018Y-41081D01*
X63073Y-41214D01*
X63122Y-41263D01*
X63122Y-47300D01*
X63122Y-47373D01*
X63063Y-47373D01*
X62930Y-47428D01*
X62906Y-47452D01*
X62361Y-47452D01*
X62361Y-47433D01*
X62306Y-47300D01*
X62204Y-47198D01*
X62072Y-47143D01*
X62013Y-47143D01*
X61991Y-47090D01*
X61889Y-46988D01*
X61757Y-46933D01*
X61678Y-46933D01*
X61666Y-46905D01*
X61564Y-46803D01*
X61432Y-46748D01*
X61377Y-46748D01*
X61376Y-46745D01*
X61274Y-46643D01*
X61142Y-46588D01*
X61131Y-46588D01*
X61121Y-46565D01*
X61019Y-46463D01*
X60887Y-46408D01*
X60871Y-46408D01*
X60866Y-46395D01*
X60764Y-46293D01*
X60632Y-46238D01*
X60619Y-46238D01*
X60611Y-46220D01*
X60509Y-46118D01*
X60377Y-46063D01*
X60233Y-46063D01*
X60100Y-46118D01*
X60031Y-46187D01*
X60012Y-46187D01*
X60012Y-44889D01*
X59989Y-44773D01*
X59923Y-44675D01*
X59226Y-43978D01*
X59246Y-43978D01*
X59246Y-43917D01*
X59307Y-43978D01*
X59363Y-43978D01*
X59428Y-43951D01*
X59428Y-44041D01*
X59483Y-44174D01*
X59585Y-44276D01*
X59717Y-44331D01*
X59861Y-44331D01*
X59994Y-44276D01*
X60096Y-44174D01*
X60148Y-44049D01*
X60148Y-45530D01*
X60164Y-45610D01*
X60164Y-45729D01*
X60225Y-45876D01*
X60337Y-45989D01*
X60484Y-46050D01*
X60644Y-46050D01*
X60651Y-46048D01*
X60670Y-46051D01*
X60767Y-46051D01*
X60831Y-46078D01*
X60928Y-46078D01*
X61378Y-46078D01*
X61442Y-46051D01*
X61651Y-46051D01*
X61651Y-46438D01*
X61688Y-46527D01*
X61756Y-46596D01*
X61846Y-46633D01*
X61943Y-46633D01*
X62743Y-46633D01*
X62832Y-46596D01*
X62901Y-46528D01*
X62938Y-46438D01*
X62938Y-46341D01*
X62938Y-45741D01*
X62938Y-45138D01*
X62938Y-44907D01*
X62877Y-44846D01*
X62351Y-44846D01*
X62351Y-45272D01*
X62412Y-45333D01*
X62646Y-45333D01*
X62743Y-45333D01*
X62833Y-45296D01*
X62901Y-45227D01*
X62938Y-45138D01*
X62938Y-45741D01*
X62901Y-45652D01*
X62833Y-45583D01*
X62743Y-45546D01*
X62646Y-45546D01*
X62238Y-45546D01*
X62238Y-45272D01*
X62238Y-44846D01*
X61712Y-44846D01*
X61651Y-44907D01*
X61651Y-45138D01*
X61688Y-45227D01*
X61756Y-45296D01*
X61846Y-45333D01*
X61943Y-45333D01*
X62177Y-45333D01*
X62238Y-45272D01*
X62238Y-45546D01*
X62234Y-45546D01*
X62156Y-45468D01*
X62045Y-45394D01*
X61915Y-45368D01*
X61538Y-45368D01*
X61573Y-45283D01*
X61573Y-44936D01*
X61536Y-44847D01*
X61468Y-44778D01*
X61378Y-44741D01*
X61281Y-44741D01*
X61222Y-44741D01*
X61161Y-44802D01*
X61161Y-45053D01*
X61512Y-45053D01*
X61573Y-44992D01*
X61573Y-44936D01*
X61573Y-45283D01*
X61573Y-45227D01*
X61512Y-45166D01*
X61161Y-45166D01*
X61161Y-45174D01*
X61048Y-45174D01*
X61048Y-45166D01*
X61040Y-45166D01*
X61040Y-45053D01*
X61048Y-45053D01*
X61048Y-44802D01*
X60987Y-44741D01*
X60928Y-44741D01*
X60831Y-44741D01*
X60831Y-43774D01*
X60876Y-43793D01*
X60973Y-43793D01*
X61423Y-43793D01*
X61487Y-43766D01*
X61656Y-43766D01*
X61656Y-44158D01*
X61693Y-44247D01*
X61743Y-44297D01*
X61688Y-44352D01*
X61651Y-44441D01*
X61651Y-44672D01*
X61712Y-44733D01*
X62238Y-44733D01*
X62238Y-44725D01*
X62351Y-44725D01*
X62351Y-44733D01*
X62877Y-44733D01*
X62938Y-44672D01*
X62938Y-44441D01*
X62901Y-44352D01*
X62851Y-44302D01*
X62906Y-44248D01*
X62943Y-44158D01*
X62943Y-44061D01*
X62943Y-43461D01*
X62906Y-43372D01*
X62838Y-43303D01*
X62748Y-43266D01*
X62651Y-43266D01*
X62542Y-43266D01*
X62545Y-43260D01*
X62545Y-43100D01*
X62526Y-43053D01*
X62651Y-43053D01*
X62748Y-43053D01*
X62838Y-43016D01*
X62906Y-42947D01*
X62943Y-42858D01*
X62943Y-42627D01*
X62882Y-42566D01*
X62356Y-42566D01*
X62356Y-42574D01*
X62243Y-42574D01*
X62243Y-42566D01*
X61717Y-42566D01*
X61656Y-42627D01*
X61656Y-42858D01*
X61693Y-42947D01*
X61761Y-43016D01*
X61776Y-43022D01*
X61751Y-43083D01*
X61583Y-43083D01*
X61618Y-42998D01*
X61618Y-42942D01*
X61557Y-42881D01*
X61206Y-42881D01*
X61206Y-42889D01*
X61093Y-42889D01*
X61093Y-42881D01*
X60742Y-42881D01*
X60681Y-42942D01*
X60681Y-42998D01*
X60716Y-43083D01*
X60631Y-43083D01*
X60151Y-42603D01*
X60151Y-40611D01*
X60276Y-40486D01*
X60332Y-40486D01*
X60365Y-40520D01*
X60303Y-40581D01*
X60266Y-40671D01*
X60266Y-40768D01*
X60266Y-41118D01*
X60299Y-41196D01*
X60298Y-41196D01*
X60261Y-41286D01*
X60261Y-41383D01*
X60261Y-41733D01*
X60298Y-41822D01*
X60360Y-41885D01*
X60298Y-41946D01*
X60261Y-42036D01*
X60261Y-42133D01*
X60261Y-42483D01*
X60298Y-42572D01*
X60366Y-42641D01*
X60456Y-42678D01*
X60553Y-42678D01*
X60681Y-42678D01*
X60681Y-42707D01*
X60742Y-42768D01*
X61093Y-42768D01*
X61093Y-42760D01*
X61206Y-42760D01*
X61206Y-42768D01*
X61557Y-42768D01*
X61618Y-42707D01*
X61618Y-42651D01*
X61581Y-42562D01*
X61513Y-42493D01*
X61423Y-42456D01*
X61326Y-42456D01*
X61298Y-42456D01*
X61298Y-42424D01*
X61591Y-42130D01*
X61616Y-42156D01*
X61656Y-42172D01*
X61656Y-42392D01*
X61717Y-42453D01*
X62243Y-42453D01*
X62243Y-42445D01*
X62356Y-42445D01*
X62356Y-42453D01*
X62882Y-42453D01*
X62943Y-42392D01*
X62943Y-42161D01*
X62906Y-42072D01*
X62838Y-42003D01*
X62748Y-41966D01*
X62651Y-41966D01*
X62448Y-41966D01*
X62448Y-41901D01*
X62448Y-41651D01*
X62411Y-41562D01*
X62374Y-41525D01*
X62411Y-41487D01*
X62448Y-41398D01*
X62448Y-41342D01*
X62387Y-41281D01*
X62036Y-41281D01*
X62036Y-41289D01*
X61923Y-41289D01*
X61923Y-41281D01*
X61572Y-41281D01*
X61511Y-41342D01*
X61511Y-41398D01*
X61548Y-41487D01*
X61583Y-41522D01*
X61470Y-41522D01*
X61354Y-41545D01*
X61298Y-41583D01*
X61298Y-41286D01*
X61265Y-41208D01*
X61266Y-41208D01*
X61270Y-41197D01*
X61610Y-41197D01*
X61725Y-41174D01*
X61725Y-41174D01*
X61734Y-41168D01*
X61734Y-41168D01*
X61923Y-41168D01*
X61923Y-41160D01*
X62036Y-41160D01*
X62036Y-41168D01*
X62387Y-41168D01*
X62448Y-41107D01*
X62448Y-41051D01*
X62411Y-40962D01*
X62343Y-40893D01*
X62253Y-40856D01*
X62156Y-40856D01*
X62137Y-40856D01*
X62176Y-40762D01*
X62176Y-40618D01*
X62122Y-40486D01*
X64988Y-40486D01*
X65433Y-40931D01*
X65433Y-40931D01*
X65544Y-41005D01*
X65544Y-41005D01*
X65648Y-41026D01*
X65674Y-41031D01*
X65674Y-41031D01*
X65675Y-41031D01*
X65919Y-41031D01*
X65928Y-41052D01*
X65996Y-41121D01*
X66086Y-41158D01*
X66183Y-41158D01*
X66433Y-41158D01*
X66522Y-41121D01*
X66537Y-41106D01*
X66537Y-41509D01*
X66388Y-41359D01*
X66188Y-41276D01*
X65972Y-41276D01*
X65772Y-41359D01*
X65633Y-41497D01*
X65498Y-41497D01*
X65481Y-41457D01*
X65413Y-41388D01*
X65323Y-41351D01*
X65226Y-41351D01*
X64976Y-41351D01*
X64887Y-41388D01*
X64850Y-41425D01*
X64812Y-41388D01*
X64723Y-41351D01*
X64667Y-41351D01*
X64606Y-41412D01*
X64606Y-41763D01*
X64614Y-41763D01*
X64614Y-41876D01*
X64606Y-41876D01*
X64606Y-42227D01*
X64667Y-42288D01*
X64723Y-42288D01*
X64812Y-42251D01*
X64850Y-42214D01*
X64886Y-42251D01*
X64976Y-42288D01*
X65073Y-42288D01*
X65323Y-42288D01*
X65412Y-42251D01*
X65481Y-42183D01*
X65498Y-42142D01*
X65633Y-42142D01*
X65771Y-42280D01*
X65971Y-42363D01*
X66187Y-42363D01*
X66387Y-42280D01*
X66537Y-42130D01*
X66537Y-42150D01*
X66552Y-42223D01*
X66536Y-42261D01*
X66536Y-42477D01*
X66619Y-42677D01*
X66771Y-42830D01*
X66971Y-42913D01*
X67187Y-42913D01*
X67387Y-42830D01*
X67540Y-42678D01*
X67623Y-42478D01*
X67623Y-42262D01*
X67540Y-42062D01*
X67388Y-41909D01*
X67188Y-41826D01*
X67182Y-41826D01*
X67182Y-41062D01*
X67191Y-41053D01*
X67228Y-40963D01*
X67228Y-40866D01*
X67228Y-40416D01*
X67191Y-40327D01*
X67123Y-40258D01*
X67033Y-40221D01*
X66936Y-40221D01*
X66686Y-40221D01*
X66597Y-40258D01*
X66559Y-40295D01*
X66523Y-40258D01*
X66433Y-40221D01*
X66336Y-40221D01*
X66086Y-40221D01*
X65997Y-40258D01*
X65928Y-40326D01*
X65920Y-40348D01*
X65816Y-40348D01*
X65371Y-39903D01*
X65260Y-39829D01*
X65130Y-39803D01*
X63883Y-39803D01*
X63883Y-33337D01*
X63800Y-33137D01*
X63648Y-32984D01*
X63448Y-32901D01*
X63333Y-32901D01*
X63333Y-32337D01*
X63250Y-32137D01*
X63098Y-31984D01*
X62898Y-31901D01*
X62682Y-31901D01*
X62482Y-31984D01*
X62329Y-32136D01*
X62264Y-32292D01*
X62200Y-32137D01*
X62048Y-31984D01*
X61848Y-31901D01*
X61632Y-31901D01*
X61432Y-31984D01*
X61279Y-32136D01*
X61196Y-32336D01*
X61196Y-32552D01*
X61279Y-32752D01*
X61431Y-32905D01*
X61631Y-32988D01*
X61847Y-32988D01*
X62047Y-32905D01*
X62200Y-32753D01*
X62265Y-32597D01*
X62329Y-32752D01*
X62481Y-32905D01*
X62681Y-32988D01*
X62897Y-32988D01*
X63097Y-32905D01*
X63250Y-32753D01*
X63333Y-32553D01*
X63333Y-32337D01*
X63333Y-32901D01*
X63232Y-32901D01*
X63032Y-32984D01*
X62879Y-33136D01*
X62796Y-33336D01*
X62796Y-33552D01*
X62879Y-33752D01*
X63031Y-33905D01*
X63231Y-33988D01*
X63447Y-33988D01*
X63647Y-33905D01*
X63800Y-33753D01*
X63883Y-33553D01*
X63883Y-33337D01*
X63883Y-39803D01*
X62789Y-39803D01*
X62789Y-33518D01*
X62775Y-33302D01*
X62719Y-33166D01*
X62626Y-33138D01*
X62546Y-33218D01*
X62546Y-33058D01*
X62518Y-32965D01*
X62313Y-32895D01*
X62097Y-32909D01*
X61961Y-32965D01*
X61933Y-33058D01*
X62240Y-33364D01*
X62546Y-33058D01*
X62546Y-33218D01*
X62320Y-33445D01*
X62626Y-33751D01*
X62719Y-33723D01*
X62789Y-33518D01*
X62789Y-39803D01*
X62546Y-39803D01*
X62546Y-33831D01*
X62240Y-33525D01*
X62159Y-33605D01*
X62159Y-33445D01*
X61853Y-33138D01*
X61760Y-33166D01*
X61716Y-33296D01*
X61650Y-33137D01*
X61498Y-32984D01*
X61298Y-32901D01*
X61082Y-32901D01*
X60882Y-32984D01*
X60729Y-33136D01*
X60646Y-33336D01*
X60646Y-33552D01*
X60729Y-33752D01*
X60881Y-33905D01*
X61081Y-33988D01*
X61297Y-33988D01*
X61497Y-33905D01*
X61650Y-33753D01*
X61711Y-33604D01*
X61760Y-33723D01*
X61853Y-33751D01*
X62159Y-33445D01*
X62159Y-33605D01*
X61933Y-33831D01*
X61961Y-33924D01*
X62166Y-33994D01*
X62382Y-33980D01*
X62518Y-33924D01*
X62546Y-33831D01*
X62546Y-39803D01*
X61237Y-39803D01*
X61198Y-39763D01*
X61108Y-39726D01*
X61039Y-39726D01*
X60998Y-39666D01*
X60941Y-39608D01*
X60941Y-39603D01*
X60886Y-39470D01*
X60784Y-39368D01*
X60652Y-39313D01*
X60633Y-39313D01*
X60633Y-33337D01*
X60550Y-33137D01*
X60398Y-32984D01*
X60198Y-32901D01*
X59982Y-32901D01*
X59782Y-32984D01*
X59629Y-33136D01*
X59546Y-33336D01*
X59546Y-33552D01*
X59629Y-33752D01*
X59752Y-33876D01*
X59752Y-34006D01*
X59712Y-34023D01*
X59643Y-34091D01*
X59606Y-34181D01*
X59606Y-34278D01*
X59606Y-34528D01*
X59643Y-34617D01*
X59680Y-34655D01*
X59643Y-34692D01*
X59606Y-34781D01*
X59606Y-34837D01*
X59667Y-34898D01*
X60018Y-34898D01*
X60018Y-34890D01*
X60131Y-34890D01*
X60131Y-34898D01*
X60482Y-34898D01*
X60543Y-34837D01*
X60543Y-34781D01*
X60506Y-34692D01*
X60469Y-34654D01*
X60506Y-34618D01*
X60543Y-34528D01*
X60543Y-34431D01*
X60543Y-34181D01*
X60506Y-34092D01*
X60438Y-34023D01*
X60397Y-34006D01*
X60397Y-33905D01*
X60397Y-33905D01*
X60550Y-33753D01*
X60633Y-33553D01*
X60633Y-33337D01*
X60633Y-39313D01*
X60543Y-39313D01*
X60543Y-35128D01*
X60543Y-35072D01*
X60482Y-35011D01*
X60131Y-35011D01*
X60131Y-35262D01*
X60192Y-35323D01*
X60251Y-35323D01*
X60348Y-35323D01*
X60438Y-35286D01*
X60506Y-35217D01*
X60543Y-35128D01*
X60543Y-39313D01*
X60508Y-39313D01*
X60375Y-39368D01*
X60273Y-39470D01*
X60218Y-39602D01*
X60218Y-39746D01*
X60241Y-39803D01*
X60135Y-39803D01*
X60018Y-39826D01*
X60018Y-35262D01*
X60018Y-35011D01*
X59667Y-35011D01*
X59606Y-35072D01*
X59606Y-35128D01*
X59643Y-35217D01*
X59711Y-35286D01*
X59801Y-35323D01*
X59898Y-35323D01*
X59957Y-35323D01*
X60018Y-35262D01*
X60018Y-39826D01*
X60004Y-39829D01*
X59893Y-39903D01*
X59893Y-39903D01*
X59593Y-40203D01*
X59593Y-40156D01*
X59593Y-39939D01*
X59613Y-39918D01*
X59679Y-39820D01*
X59702Y-39705D01*
X59702Y-39608D01*
X59706Y-39604D01*
X59761Y-39472D01*
X59761Y-39328D01*
X59706Y-39195D01*
X59604Y-39093D01*
X59472Y-39038D01*
X59328Y-39038D01*
X59195Y-39093D01*
X59093Y-39195D01*
X59038Y-39327D01*
X59038Y-39471D01*
X59087Y-39589D01*
X59065Y-39611D01*
X58753Y-39611D01*
X58753Y-36306D01*
X58673Y-36113D01*
X58526Y-35966D01*
X58334Y-35886D01*
X58126Y-35886D01*
X57933Y-35966D01*
X57786Y-36113D01*
X57706Y-36305D01*
X57706Y-36513D01*
X57786Y-36706D01*
X57933Y-36853D01*
X58125Y-36933D01*
X58333Y-36933D01*
X58526Y-36853D01*
X58673Y-36706D01*
X58753Y-36514D01*
X58753Y-36306D01*
X58753Y-39611D01*
X58751Y-39611D01*
X58662Y-39648D01*
X58647Y-39663D01*
X58633Y-39648D01*
X58543Y-39611D01*
X58446Y-39611D01*
X57896Y-39611D01*
X57807Y-39648D01*
X57784Y-39670D01*
X57781Y-39662D01*
X57713Y-39593D01*
X57623Y-39556D01*
X57526Y-39556D01*
X57076Y-39556D01*
X57033Y-39574D01*
X57033Y-39486D01*
X57033Y-38936D01*
X57014Y-38891D01*
X57106Y-38799D01*
X57161Y-38667D01*
X57161Y-38523D01*
X57106Y-38390D01*
X57004Y-38288D01*
X56872Y-38233D01*
X56753Y-38233D01*
X56753Y-36306D01*
X56673Y-36113D01*
X56526Y-35966D01*
X56334Y-35886D01*
X56126Y-35886D01*
X55933Y-35966D01*
X55786Y-36113D01*
X55706Y-36305D01*
X55706Y-36513D01*
X55786Y-36706D01*
X55933Y-36853D01*
X56125Y-36933D01*
X56333Y-36933D01*
X56526Y-36853D01*
X56673Y-36706D01*
X56753Y-36514D01*
X56753Y-36306D01*
X56753Y-38233D01*
X56728Y-38233D01*
X56595Y-38288D01*
X56493Y-38390D01*
X56438Y-38522D01*
X56438Y-38528D01*
X56401Y-38566D01*
X56335Y-38664D01*
X56313Y-38773D01*
X56302Y-38778D01*
X56240Y-38840D01*
X56177Y-38778D01*
X56088Y-38741D01*
X55982Y-38741D01*
X55921Y-38802D01*
X55921Y-39203D01*
X55929Y-39203D01*
X55929Y-39316D01*
X55921Y-39316D01*
X55921Y-39717D01*
X55931Y-39727D01*
X55931Y-39858D01*
X55939Y-39858D01*
X55939Y-39971D01*
X55931Y-39971D01*
X55931Y-39979D01*
X55818Y-39979D01*
X55818Y-39971D01*
X55810Y-39971D01*
X55810Y-39858D01*
X55818Y-39858D01*
X55818Y-39607D01*
X55808Y-39597D01*
X55808Y-39316D01*
X55800Y-39316D01*
X55800Y-39203D01*
X55808Y-39203D01*
X55808Y-38802D01*
X55747Y-38741D01*
X55661Y-38741D01*
X55661Y-37380D01*
X55635Y-37249D01*
X55561Y-37138D01*
X55221Y-36798D01*
X55221Y-35311D01*
X56476Y-34056D01*
X58645Y-34056D01*
X58775Y-34030D01*
X58886Y-33956D01*
X59231Y-33611D01*
X59231Y-33611D01*
X59231Y-33611D01*
X59305Y-33500D01*
X59327Y-33391D01*
X59352Y-33381D01*
X59421Y-33313D01*
X59458Y-33223D01*
X59458Y-33126D01*
X59458Y-32876D01*
X59421Y-32787D01*
X59406Y-32772D01*
X60198Y-32772D01*
X60331Y-32905D01*
X60531Y-32988D01*
X60747Y-32988D01*
X60947Y-32905D01*
X61100Y-32753D01*
X61183Y-32553D01*
X61183Y-32337D01*
X61100Y-32137D01*
X60948Y-31984D01*
X60748Y-31901D01*
X60532Y-31901D01*
X60332Y-31984D01*
X60188Y-32127D01*
X59362Y-32127D01*
X59353Y-32118D01*
X59263Y-32081D01*
X59166Y-32081D01*
X58716Y-32081D01*
X58627Y-32118D01*
X58558Y-32186D01*
X58521Y-32276D01*
X58521Y-32373D01*
X58521Y-32623D01*
X58558Y-32712D01*
X58595Y-32750D01*
X58558Y-32786D01*
X58521Y-32876D01*
X58521Y-32973D01*
X58521Y-33223D01*
X58558Y-33312D01*
X58561Y-33315D01*
X58503Y-33373D01*
X57644Y-33373D01*
X57851Y-33287D01*
X58131Y-33008D01*
X58283Y-32643D01*
X58283Y-32248D01*
X58132Y-31883D01*
X57853Y-31603D01*
X57488Y-31451D01*
X57093Y-31451D01*
X56728Y-31602D01*
X56448Y-31881D01*
X56296Y-32246D01*
X56296Y-32641D01*
X56447Y-33006D01*
X56726Y-33286D01*
X56935Y-33373D01*
X56335Y-33373D01*
X56204Y-33399D01*
X56093Y-33473D01*
X54638Y-34928D01*
X54564Y-35039D01*
X54538Y-35170D01*
X54538Y-35708D01*
X54442Y-35668D01*
X54298Y-35668D01*
X54252Y-35687D01*
X54252Y-33115D01*
X55133Y-32234D01*
X55133Y-32234D01*
X55133Y-32234D01*
X55198Y-32136D01*
X55221Y-32020D01*
X55221Y-32020D01*
X55221Y-31723D01*
X55267Y-31723D01*
X55356Y-31686D01*
X55425Y-31618D01*
X55462Y-31528D01*
X55462Y-31431D01*
X55462Y-31102D01*
X68181Y-31102D01*
X68552Y-31473D01*
X68552Y-49631D01*
M02*
