M48
;DRILL file {Pcbnew (2013-07-07 BZR 4022)-stable} date 23/05/2015 20:04:59
;FORMAT={3:3/ absolute / metric / suppress leading zeros}
FMAT,2
METRIC,TZ
T1C0.300
T2C0.400
T3C0.500
T4C0.762
T5C1.016
T6C3.048
%
G90
G05
M71
T1
X125476Y-80239
X125476Y-83490
X127991Y-84480
X128041Y-80213
X128194Y-98527
X128232Y-92647
X128308Y-88456
X129807Y-126174
X130607Y-84506
X130632Y-80289
X132131Y-103873
X132144Y-126517
X132296Y-108268
X133071Y-112090
X133121Y-93116
X133159Y-84290
X133172Y-80086
X133858Y-120904
X134087Y-109245
X134163Y-102083
X134315Y-102845
X134658Y-127114
X135090Y-110490
X135192Y-103886
X135306Y-92888
X135319Y-81636
X135522Y-106007
X135890Y-108509
X136017Y-104559
X136144Y-119050
X136665Y-114694
X136792Y-105067
X136817Y-109385
X137033Y-112205
X137211Y-126873
X137516Y-103213
X137566Y-81547
X137744Y-109233
X137922Y-106477
X138049Y-112217
X138074Y-98501
X138100Y-91516
X138112Y-108229
X138646Y-107442
X138760Y-109347
X138786Y-111874
X139141Y-84785
X139510Y-100622
X139789Y-126873
X140767Y-81178
X141453Y-124866
X141681Y-84379
X141872Y-106210
X141961Y-103708
X142011Y-116840
X142113Y-98120
X142240Y-122733
X142304Y-126835
X142596Y-80315
X142926Y-106807
X143104Y-120244
X143637Y-124003
X143675Y-106655
X143751Y-108712
X143777Y-119698
X143789Y-105893
X144272Y-98031
X144424Y-119101
X144577Y-105816
X145034Y-98323
X145428Y-113868
X145529Y-105778
X145682Y-86919
X145948Y-127305
X146368Y-105740
X146393Y-115291
X147256Y-115430
X147523Y-118275
X147549Y-105753
X148234Y-115405
X148260Y-120929
X148539Y-108674
X148615Y-126187
X148742Y-104280
X149428Y-79426
X149784Y-110007
X150355Y-107721
X150495Y-86970
X150876Y-100076
X150978Y-90272
X151206Y-126187
X151867Y-111684
X152476Y-100355
X152527Y-98196
X153175Y-117919
X153746Y-90830
X153759Y-126187
X153822Y-118364
X153873Y-100774
X154127Y-94539
X154470Y-118796
X155118Y-119253
X155423Y-79934
X155854Y-119659
X156235Y-126187
X156566Y-99365
X156680Y-120129
X157010Y-103353
X157239Y-118923
X157480Y-120663
X158280Y-115367
X158788Y-126200
X159258Y-109626
X159296Y-103226
X159461Y-100508
X159715Y-106375
X159741Y-119075
X159944Y-79781
X160312Y-122301
X160363Y-121247
X160452Y-93370
X160985Y-104165
X161354Y-126162
X161849Y-104559
X161938Y-106477
X162573Y-103289
X162585Y-98628
X164109Y-95479
X164490Y-109906
X164630Y-99466
X164795Y-79604
X165532Y-108737
X165545Y-87274
X166268Y-82525
X166929Y-126340
X167081Y-122047
X167259Y-90424
X167310Y-86004
X169596Y-79527
X170256Y-127381
X170294Y-119202
X170332Y-93218
X172669Y-85852
X173076Y-92037
X173342Y-96418
X173380Y-80264
X173419Y-101295
X173596Y-106629
X173596Y-118745
X173596Y-125006
X173609Y-111989
X173838Y-83642
T2
X153835Y-115951
X157848Y-109677
T3
X133998Y-115024
X138278Y-113843
T4
X142824Y-92481
X147904Y-92481
T5
X126799Y-79197
X129335Y-79197
X130708Y-100355
X130708Y-102895
X130708Y-105435
X130708Y-107975
X130708Y-110515
X130708Y-113055
X130859Y-127457
X131875Y-79197
X133399Y-127457
X134415Y-79197
X135939Y-127457
X136955Y-79197
X138479Y-127457
X139495Y-79197
X141019Y-127457
X143559Y-127457
X148639Y-124917
X148639Y-127457
X151179Y-124917
X151179Y-127457
X152629Y-84950
X153719Y-124917
X153719Y-127457
X154026Y-82410
X155423Y-84950
X156259Y-124917
X156259Y-127457
X156820Y-82410
X158090Y-84950
X158799Y-124917
X158799Y-127457
X159487Y-82410
X160884Y-84950
X161339Y-124917
X161339Y-127457
X162281Y-82410
X163678Y-84950
X167843Y-106223
X167843Y-109017
X167843Y-111684
X167843Y-114478
X167843Y-117272
X170383Y-107620
X170383Y-110414
X170383Y-113081
X170383Y-115875
T6
X145517Y-82410
X170383Y-99111
X170383Y-124511
X170917Y-82410
T0
M30
