G04 (created by PCBNEW (2013-07-07 BZR 4022)-stable) date 23/05/2015 20:04:57*
%MOIN*%
G04 Gerber Fmt 3.4, Leading zero omitted, Abs format*
%FSLAX34Y34*%
G01*
G70*
G90*
G04 APERTURE LIST*
%ADD10C,0.00590551*%
%ADD11R,0.144X0.08*%
%ADD12R,0.04X0.08*%
%ADD13R,0.0610236X0.023622*%
%ADD14R,0.06X0.08*%
%ADD15R,0.08X0.06*%
%ADD16R,0.035X0.055*%
%ADD17R,0.055X0.035*%
%ADD18R,0.025X0.045*%
%ADD19R,0.045X0.025*%
%ADD20R,0.0511811X0.0748031*%
%ADD21R,0.06X0.06*%
%ADD22C,0.06*%
%ADD23R,0.011811X0.06*%
%ADD24O,0.011811X0.06*%
%ADD25O,0.06X0.011811*%
%ADD26R,0.0472X0.0472*%
%ADD27C,0.056*%
%ADD28R,0.0393701X0.125984*%
%ADD29R,0.0866X0.063*%
%ADD30C,0.15*%
G04 APERTURE END LIST*
G54D10*
G54D11*
X54265Y-48470D03*
G54D12*
X54265Y-45870D03*
X53365Y-45870D03*
X55165Y-45870D03*
G54D13*
X61227Y-43385D03*
X61227Y-42885D03*
X61227Y-42385D03*
X61227Y-43885D03*
X63352Y-42385D03*
X63352Y-42885D03*
X63352Y-43385D03*
X63352Y-43885D03*
X61227Y-45635D03*
X61227Y-45135D03*
X61227Y-44635D03*
X61227Y-46135D03*
X63352Y-44635D03*
X63352Y-45135D03*
X63352Y-45635D03*
X63352Y-46135D03*
G54D14*
X61380Y-34785D03*
X62680Y-34785D03*
G54D15*
X64660Y-44180D03*
X64660Y-45480D03*
G54D16*
X65835Y-34895D03*
X66585Y-34895D03*
G54D17*
X64780Y-47695D03*
X64780Y-48445D03*
X57460Y-46615D03*
X57460Y-47365D03*
X55000Y-34900D03*
X55000Y-34150D03*
G54D18*
X60760Y-36475D03*
X60160Y-36475D03*
G54D19*
X64690Y-46300D03*
X64690Y-46900D03*
G54D18*
X63600Y-34785D03*
X64200Y-34785D03*
G54D19*
X52425Y-35150D03*
X52425Y-34550D03*
G54D18*
X57600Y-34875D03*
X58200Y-34875D03*
X56820Y-34850D03*
X56220Y-34850D03*
X58270Y-37910D03*
X57670Y-37910D03*
X56230Y-37890D03*
X56830Y-37890D03*
G54D19*
X61135Y-40600D03*
X61135Y-40000D03*
G54D18*
X63150Y-38590D03*
X62550Y-38590D03*
X63145Y-35970D03*
X62545Y-35970D03*
X60715Y-37930D03*
X60115Y-37930D03*
G54D20*
X61717Y-36565D03*
X61717Y-37824D03*
X63882Y-36565D03*
X63882Y-37824D03*
G54D21*
X51460Y-44510D03*
G54D22*
X51460Y-43510D03*
X51460Y-42510D03*
X51460Y-41510D03*
X51460Y-40510D03*
X51460Y-39510D03*
G54D23*
X59096Y-39279D03*
G54D24*
X58899Y-39279D03*
X58702Y-39279D03*
X58505Y-39279D03*
X58308Y-39279D03*
X58112Y-39279D03*
X57915Y-39279D03*
X57718Y-39279D03*
X57521Y-39279D03*
X57324Y-39279D03*
X57127Y-39279D03*
X56931Y-39279D03*
X56734Y-39279D03*
X56537Y-39279D03*
X56340Y-39279D03*
X56143Y-39279D03*
G54D25*
X55245Y-40114D03*
X55245Y-40311D03*
X55245Y-40508D03*
X55245Y-40705D03*
X55245Y-40902D03*
X55245Y-41098D03*
X55245Y-41295D03*
X55245Y-41492D03*
X55245Y-41689D03*
X55245Y-41886D03*
X55245Y-42083D03*
X55245Y-42279D03*
X55245Y-42476D03*
X55245Y-42673D03*
X55245Y-42870D03*
X55245Y-43067D03*
G54D24*
X56143Y-43965D03*
X56340Y-43965D03*
X56537Y-43965D03*
X56734Y-43965D03*
X56931Y-43965D03*
X57127Y-43965D03*
X57324Y-43965D03*
X57521Y-43965D03*
X57718Y-43965D03*
X57915Y-43965D03*
X58112Y-43965D03*
X58308Y-43965D03*
X58505Y-43965D03*
X58702Y-43965D03*
X58899Y-43965D03*
X59096Y-43965D03*
G54D25*
X59931Y-43067D03*
X59931Y-42870D03*
X59931Y-42476D03*
X59938Y-42673D03*
X59931Y-42279D03*
X59931Y-42083D03*
X59931Y-41886D03*
X59931Y-41689D03*
X59931Y-41492D03*
X59931Y-41295D03*
X59931Y-41101D03*
X59931Y-40904D03*
X59931Y-40707D03*
X59931Y-40510D03*
X59931Y-40314D03*
X59931Y-40117D03*
G54D26*
X67337Y-34880D03*
X68163Y-34880D03*
X64790Y-49187D03*
X64790Y-50013D03*
X57460Y-48097D03*
X57460Y-48923D03*
X53960Y-34117D03*
X53960Y-34943D03*
G54D27*
X56230Y-36410D03*
X58230Y-36410D03*
G54D28*
X51357Y-35116D03*
X51357Y-37793D03*
X49782Y-37793D03*
X49782Y-35116D03*
G54D29*
X51745Y-47348D03*
X51745Y-45852D03*
G54D30*
X67290Y-32445D03*
X57290Y-32445D03*
G54D21*
X64440Y-33445D03*
G54D22*
X63340Y-33445D03*
X62240Y-33445D03*
X61190Y-33445D03*
X60090Y-33445D03*
X60640Y-32445D03*
X61740Y-32445D03*
X62790Y-32445D03*
X63890Y-32445D03*
G54D30*
X67080Y-49020D03*
X67080Y-39020D03*
G54D21*
X66080Y-46170D03*
G54D22*
X66080Y-45070D03*
X66080Y-43970D03*
X66080Y-42920D03*
X66080Y-41820D03*
X67080Y-42370D03*
X67080Y-43470D03*
X67080Y-44520D03*
X67080Y-45620D03*
G54D21*
X54919Y-31180D03*
G54D22*
X53919Y-31180D03*
X52919Y-31180D03*
X51919Y-31180D03*
X50919Y-31180D03*
X49920Y-31180D03*
G54D21*
X63519Y-50180D03*
G54D22*
X62519Y-50180D03*
X61519Y-50180D03*
X60519Y-50180D03*
X59519Y-50180D03*
X58519Y-50180D03*
X56519Y-50180D03*
X54519Y-50180D03*
X53519Y-50180D03*
X52519Y-50180D03*
X51519Y-50180D03*
X55519Y-50180D03*
X58519Y-49180D03*
X59519Y-49180D03*
X60519Y-49180D03*
X61519Y-49180D03*
X62519Y-49180D03*
X63519Y-49180D03*
M02*
