G04 (created by PCBNEW (2013-07-07 BZR 4022)-stable) date 23/05/2015 20:04:57*
%MOIN*%
G04 Gerber Fmt 3.4, Leading zero omitted, Abs format*
%FSLAX34Y34*%
G01*
G70*
G90*
G04 APERTURE LIST*
%ADD10C,0.00590551*%
%ADD11C,0.00984252*%
%ADD12C,0.005*%
%ADD13C,0.0039*%
%ADD14C,0.0043*%
%ADD15C,0.0045*%
G04 APERTURE END LIST*
G54D10*
G54D11*
X65759Y-36248D02*
X65692Y-36271D01*
X65579Y-36271D01*
X65534Y-36248D01*
X65512Y-36226D01*
X65489Y-36181D01*
X65489Y-36136D01*
X65512Y-36091D01*
X65534Y-36068D01*
X65579Y-36046D01*
X65669Y-36023D01*
X65714Y-36001D01*
X65737Y-35978D01*
X65759Y-35933D01*
X65759Y-35888D01*
X65737Y-35843D01*
X65714Y-35821D01*
X65669Y-35798D01*
X65557Y-35798D01*
X65489Y-35821D01*
X65129Y-36023D02*
X65062Y-36046D01*
X65039Y-36068D01*
X65017Y-36113D01*
X65017Y-36181D01*
X65039Y-36226D01*
X65062Y-36248D01*
X65107Y-36271D01*
X65287Y-36271D01*
X65287Y-35798D01*
X65129Y-35798D01*
X65084Y-35821D01*
X65062Y-35843D01*
X65039Y-35888D01*
X65039Y-35933D01*
X65062Y-35978D01*
X65084Y-36001D01*
X65129Y-36023D01*
X65287Y-36023D01*
X64837Y-36136D02*
X64612Y-36136D01*
X64882Y-36271D02*
X64724Y-35798D01*
X64567Y-36271D01*
X64409Y-36091D02*
X64049Y-36091D01*
X63554Y-36226D02*
X63577Y-36248D01*
X63644Y-36271D01*
X63689Y-36271D01*
X63757Y-36248D01*
X63802Y-36203D01*
X63824Y-36158D01*
X63847Y-36068D01*
X63847Y-36001D01*
X63824Y-35911D01*
X63802Y-35866D01*
X63757Y-35821D01*
X63689Y-35798D01*
X63644Y-35798D01*
X63577Y-35821D01*
X63554Y-35843D01*
X63374Y-36136D02*
X63150Y-36136D01*
X63419Y-36271D02*
X63262Y-35798D01*
X63105Y-36271D01*
X62947Y-36271D02*
X62947Y-35798D01*
X62677Y-36271D01*
X62677Y-35798D01*
X62137Y-35956D02*
X62025Y-36271D01*
X61912Y-35956D01*
X61642Y-35798D02*
X61597Y-35798D01*
X61552Y-35821D01*
X61530Y-35843D01*
X61507Y-35888D01*
X61485Y-35978D01*
X61485Y-36091D01*
X61507Y-36181D01*
X61530Y-36226D01*
X61552Y-36248D01*
X61597Y-36271D01*
X61642Y-36271D01*
X61687Y-36248D01*
X61710Y-36226D01*
X61732Y-36181D01*
X61755Y-36091D01*
X61755Y-35978D01*
X61732Y-35888D01*
X61710Y-35843D01*
X61687Y-35821D01*
X61642Y-35798D01*
X61282Y-36226D02*
X61260Y-36248D01*
X61282Y-36271D01*
X61305Y-36248D01*
X61282Y-36226D01*
X61282Y-36271D01*
X60967Y-35798D02*
X60922Y-35798D01*
X60877Y-35821D01*
X60855Y-35843D01*
X60832Y-35888D01*
X60810Y-35978D01*
X60810Y-36091D01*
X60832Y-36181D01*
X60855Y-36226D01*
X60877Y-36248D01*
X60922Y-36271D01*
X60967Y-36271D01*
X61012Y-36248D01*
X61035Y-36226D01*
X61057Y-36181D01*
X61080Y-36091D01*
X61080Y-35978D01*
X61057Y-35888D01*
X61035Y-35843D01*
X61012Y-35821D01*
X60967Y-35798D01*
X67514Y-36558D02*
X67514Y-36896D01*
X67536Y-36963D01*
X67581Y-37008D01*
X67649Y-37031D01*
X67694Y-37031D01*
X67087Y-37031D02*
X67087Y-36783D01*
X67109Y-36738D01*
X67154Y-36716D01*
X67244Y-36716D01*
X67289Y-36738D01*
X67087Y-37008D02*
X67132Y-37031D01*
X67244Y-37031D01*
X67289Y-37008D01*
X67311Y-36963D01*
X67311Y-36918D01*
X67289Y-36873D01*
X67244Y-36851D01*
X67132Y-36851D01*
X67087Y-36828D01*
X66907Y-36716D02*
X66794Y-37031D01*
X66682Y-36716D01*
X66502Y-37031D02*
X66502Y-36716D01*
X66502Y-36558D02*
X66524Y-36581D01*
X66502Y-36603D01*
X66479Y-36581D01*
X66502Y-36558D01*
X66502Y-36603D01*
X66097Y-37008D02*
X66142Y-37031D01*
X66232Y-37031D01*
X66277Y-37008D01*
X66299Y-36963D01*
X66299Y-36783D01*
X66277Y-36738D01*
X66232Y-36716D01*
X66142Y-36716D01*
X66097Y-36738D01*
X66074Y-36783D01*
X66074Y-36828D01*
X66299Y-36873D01*
X65872Y-37031D02*
X65872Y-36716D01*
X65872Y-36806D02*
X65849Y-36761D01*
X65827Y-36738D01*
X65782Y-36716D01*
X65737Y-36716D01*
X65062Y-36783D02*
X65219Y-36783D01*
X65219Y-37031D02*
X65219Y-36558D01*
X64994Y-36558D01*
X64634Y-37008D02*
X64679Y-37031D01*
X64769Y-37031D01*
X64814Y-37008D01*
X64837Y-36963D01*
X64837Y-36783D01*
X64814Y-36738D01*
X64769Y-36716D01*
X64679Y-36716D01*
X64634Y-36738D01*
X64612Y-36783D01*
X64612Y-36828D01*
X64837Y-36873D01*
X64409Y-37031D02*
X64409Y-36716D01*
X64409Y-36806D02*
X64387Y-36761D01*
X64364Y-36738D01*
X64319Y-36716D01*
X64274Y-36716D01*
X64117Y-36716D02*
X64117Y-37031D01*
X64117Y-36761D02*
X64094Y-36738D01*
X64049Y-36716D01*
X63982Y-36716D01*
X63937Y-36738D01*
X63914Y-36783D01*
X63914Y-37031D01*
X63487Y-37031D02*
X63487Y-36783D01*
X63509Y-36738D01*
X63554Y-36716D01*
X63644Y-36716D01*
X63689Y-36738D01*
X63487Y-37008D02*
X63532Y-37031D01*
X63644Y-37031D01*
X63689Y-37008D01*
X63712Y-36963D01*
X63712Y-36918D01*
X63689Y-36873D01*
X63644Y-36851D01*
X63532Y-36851D01*
X63487Y-36828D01*
X63262Y-36716D02*
X63262Y-37031D01*
X63262Y-36761D02*
X63240Y-36738D01*
X63195Y-36716D01*
X63127Y-36716D01*
X63082Y-36738D01*
X63060Y-36783D01*
X63060Y-37031D01*
X62632Y-37031D02*
X62632Y-36558D01*
X62632Y-37008D02*
X62677Y-37031D01*
X62767Y-37031D01*
X62812Y-37008D01*
X62835Y-36986D01*
X62857Y-36941D01*
X62857Y-36806D01*
X62835Y-36761D01*
X62812Y-36738D01*
X62767Y-36716D01*
X62677Y-36716D01*
X62632Y-36738D01*
X62227Y-37008D02*
X62272Y-37031D01*
X62362Y-37031D01*
X62407Y-37008D01*
X62430Y-36963D01*
X62430Y-36783D01*
X62407Y-36738D01*
X62362Y-36716D01*
X62272Y-36716D01*
X62227Y-36738D01*
X62205Y-36783D01*
X62205Y-36828D01*
X62430Y-36873D01*
X62047Y-36716D02*
X61800Y-36716D01*
X62047Y-37031D01*
X61800Y-37031D01*
X60990Y-36986D02*
X61012Y-37008D01*
X61080Y-37031D01*
X61125Y-37031D01*
X61192Y-37008D01*
X61237Y-36963D01*
X61260Y-36918D01*
X61282Y-36828D01*
X61282Y-36761D01*
X61260Y-36671D01*
X61237Y-36626D01*
X61192Y-36581D01*
X61125Y-36558D01*
X61080Y-36558D01*
X61012Y-36581D01*
X60990Y-36603D01*
X60607Y-37008D02*
X60652Y-37031D01*
X60742Y-37031D01*
X60787Y-37008D01*
X60810Y-36963D01*
X60810Y-36783D01*
X60787Y-36738D01*
X60742Y-36716D01*
X60652Y-36716D01*
X60607Y-36738D01*
X60585Y-36783D01*
X60585Y-36828D01*
X60810Y-36873D01*
X60382Y-36716D02*
X60382Y-37188D01*
X60382Y-36738D02*
X60337Y-36716D01*
X60247Y-36716D01*
X60202Y-36738D01*
X60180Y-36761D01*
X60157Y-36806D01*
X60157Y-36941D01*
X60180Y-36986D01*
X60202Y-37008D01*
X60247Y-37031D01*
X60337Y-37031D01*
X60382Y-37008D01*
X59775Y-37008D02*
X59820Y-37031D01*
X59910Y-37031D01*
X59955Y-37008D01*
X59977Y-36963D01*
X59977Y-36783D01*
X59955Y-36738D01*
X59910Y-36716D01*
X59820Y-36716D01*
X59775Y-36738D01*
X59752Y-36783D01*
X59752Y-36828D01*
X59977Y-36873D01*
X59347Y-37031D02*
X59347Y-36558D01*
X59347Y-37008D02*
X59392Y-37031D01*
X59482Y-37031D01*
X59527Y-37008D01*
X59550Y-36986D01*
X59572Y-36941D01*
X59572Y-36806D01*
X59550Y-36761D01*
X59527Y-36738D01*
X59482Y-36716D01*
X59392Y-36716D01*
X59347Y-36738D01*
X58920Y-37031D02*
X58920Y-36783D01*
X58943Y-36738D01*
X58988Y-36716D01*
X59078Y-36716D01*
X59123Y-36738D01*
X58920Y-37008D02*
X58965Y-37031D01*
X59078Y-37031D01*
X59123Y-37008D01*
X59145Y-36963D01*
X59145Y-36918D01*
X59123Y-36873D01*
X59078Y-36851D01*
X58965Y-36851D01*
X58920Y-36828D01*
G54D12*
X54685Y-45480D02*
X54685Y-45380D01*
X54685Y-45380D02*
X55585Y-45380D01*
X55585Y-45380D02*
X55585Y-45480D01*
X54685Y-45480D02*
X55585Y-45480D01*
X55585Y-45480D02*
X55585Y-46130D01*
X54685Y-46830D02*
X54685Y-47480D01*
X54685Y-47480D02*
X55585Y-47480D01*
X55585Y-47480D02*
X55585Y-46830D01*
X54685Y-46130D02*
X54685Y-45480D01*
X54970Y-44450D02*
X54870Y-44450D01*
X54870Y-44450D02*
X54870Y-43550D01*
X54870Y-43550D02*
X54970Y-43550D01*
X54970Y-44450D02*
X54970Y-43550D01*
X54970Y-43550D02*
X55620Y-43550D01*
X56320Y-44450D02*
X56970Y-44450D01*
X56970Y-44450D02*
X56970Y-43550D01*
X56970Y-43550D02*
X56320Y-43550D01*
X55620Y-44450D02*
X54970Y-44450D01*
X62745Y-46440D02*
X62745Y-46540D01*
X62745Y-46540D02*
X61845Y-46540D01*
X61845Y-46540D02*
X61845Y-46440D01*
X62745Y-46440D02*
X61845Y-46440D01*
X61845Y-46440D02*
X61845Y-45790D01*
X62745Y-45090D02*
X62745Y-44440D01*
X62745Y-44440D02*
X61845Y-44440D01*
X61845Y-44440D02*
X61845Y-45090D01*
X62745Y-45790D02*
X62745Y-46440D01*
X62750Y-44160D02*
X62750Y-44260D01*
X62750Y-44260D02*
X61850Y-44260D01*
X61850Y-44260D02*
X61850Y-44160D01*
X62750Y-44160D02*
X61850Y-44160D01*
X61850Y-44160D02*
X61850Y-43510D01*
X62750Y-42810D02*
X62750Y-42160D01*
X62750Y-42160D02*
X61850Y-42160D01*
X61850Y-42160D02*
X61850Y-42810D01*
X62750Y-43510D02*
X62750Y-44160D01*
G54D13*
X61135Y-39870D02*
G75*
G03X61135Y-39870I-50J0D01*
G74*
G01*
X61085Y-40320D02*
X61085Y-39920D01*
X61085Y-39920D02*
X60485Y-39920D01*
X60485Y-39920D02*
X60485Y-40320D01*
X60485Y-40720D02*
X60485Y-41120D01*
X60485Y-41120D02*
X61085Y-41120D01*
X61085Y-41120D02*
X61085Y-40720D01*
X52995Y-45575D02*
G75*
G03X52995Y-45575I-50J0D01*
G74*
G01*
X52945Y-46025D02*
X52945Y-45625D01*
X52945Y-45625D02*
X52345Y-45625D01*
X52345Y-45625D02*
X52345Y-46025D01*
X52345Y-46425D02*
X52345Y-46825D01*
X52345Y-46825D02*
X52945Y-46825D01*
X52945Y-46825D02*
X52945Y-46425D01*
X56940Y-39560D02*
G75*
G03X56940Y-39560I-50J0D01*
G74*
G01*
X56440Y-39560D02*
X56840Y-39560D01*
X56840Y-39560D02*
X56840Y-38960D01*
X56840Y-38960D02*
X56440Y-38960D01*
X56040Y-38960D02*
X55640Y-38960D01*
X55640Y-38960D02*
X55640Y-39560D01*
X55640Y-39560D02*
X56040Y-39560D01*
X61130Y-41235D02*
G75*
G03X61130Y-41235I-50J0D01*
G74*
G01*
X61080Y-41685D02*
X61080Y-41285D01*
X61080Y-41285D02*
X60480Y-41285D01*
X60480Y-41285D02*
X60480Y-41685D01*
X60480Y-42085D02*
X60480Y-42485D01*
X60480Y-42485D02*
X61080Y-42485D01*
X61080Y-42485D02*
X61080Y-42085D01*
X58570Y-39755D02*
G75*
G03X58570Y-39755I-50J0D01*
G74*
G01*
X58520Y-40205D02*
X58520Y-39805D01*
X58520Y-39805D02*
X57920Y-39805D01*
X57920Y-39805D02*
X57920Y-40205D01*
X57920Y-40605D02*
X57920Y-41005D01*
X57920Y-41005D02*
X58520Y-41005D01*
X58520Y-41005D02*
X58520Y-40605D01*
X58825Y-41055D02*
G75*
G03X58825Y-41055I-50J0D01*
G74*
G01*
X58775Y-40605D02*
X58775Y-41005D01*
X58775Y-41005D02*
X59375Y-41005D01*
X59375Y-41005D02*
X59375Y-40605D01*
X59375Y-40205D02*
X59375Y-39805D01*
X59375Y-39805D02*
X58775Y-39805D01*
X58775Y-39805D02*
X58775Y-40205D01*
G54D12*
X61355Y-45860D02*
X61355Y-44960D01*
X61355Y-44960D02*
X60855Y-44960D01*
X60855Y-44960D02*
X60855Y-45860D01*
X60855Y-45860D02*
X61355Y-45860D01*
X61400Y-43575D02*
X61400Y-42675D01*
X61400Y-42675D02*
X60900Y-42675D01*
X60900Y-42675D02*
X60900Y-43575D01*
X60900Y-43575D02*
X61400Y-43575D01*
X60325Y-35105D02*
X60325Y-34205D01*
X60325Y-34205D02*
X59825Y-34205D01*
X59825Y-34205D02*
X59825Y-35105D01*
X59825Y-35105D02*
X60325Y-35105D01*
X59240Y-33200D02*
X59240Y-32300D01*
X59240Y-32300D02*
X58740Y-32300D01*
X58740Y-32300D02*
X58740Y-33200D01*
X58740Y-33200D02*
X59240Y-33200D01*
X64400Y-42070D02*
X65300Y-42070D01*
X65300Y-42070D02*
X65300Y-41570D01*
X65300Y-41570D02*
X64400Y-41570D01*
X64400Y-41570D02*
X64400Y-42070D01*
X66110Y-40940D02*
X67010Y-40940D01*
X67010Y-40940D02*
X67010Y-40440D01*
X67010Y-40440D02*
X66110Y-40440D01*
X66110Y-40440D02*
X66110Y-40940D01*
X59040Y-43760D02*
X59940Y-43760D01*
X59940Y-43760D02*
X59940Y-43260D01*
X59940Y-43260D02*
X59040Y-43260D01*
X59040Y-43260D02*
X59040Y-43760D01*
X55630Y-42355D02*
X55630Y-43255D01*
X55630Y-43255D02*
X56130Y-43255D01*
X56130Y-43255D02*
X56130Y-42355D01*
X56130Y-42355D02*
X55630Y-42355D01*
X56885Y-40675D02*
X56885Y-39775D01*
X56885Y-39775D02*
X56385Y-39775D01*
X56385Y-39775D02*
X56385Y-40675D01*
X56385Y-40675D02*
X56885Y-40675D01*
X57100Y-39775D02*
X57100Y-40675D01*
X57100Y-40675D02*
X57600Y-40675D01*
X57600Y-40675D02*
X57600Y-39775D01*
X57600Y-39775D02*
X57100Y-39775D01*
X58900Y-41185D02*
X58900Y-42085D01*
X58900Y-42085D02*
X59400Y-42085D01*
X59400Y-42085D02*
X59400Y-41185D01*
X59400Y-41185D02*
X58900Y-41185D01*
X55625Y-39765D02*
X55625Y-40665D01*
X55625Y-40665D02*
X56125Y-40665D01*
X56125Y-40665D02*
X56125Y-39765D01*
X56125Y-39765D02*
X55625Y-39765D01*
X62230Y-41975D02*
X62230Y-41075D01*
X62230Y-41075D02*
X61730Y-41075D01*
X61730Y-41075D02*
X61730Y-41975D01*
X61730Y-41975D02*
X62230Y-41975D01*
X55922Y-46277D02*
X55937Y-46262D01*
X55951Y-46220D01*
X55951Y-46191D01*
X55937Y-46148D01*
X55908Y-46120D01*
X55880Y-46105D01*
X55822Y-46091D01*
X55780Y-46091D01*
X55722Y-46105D01*
X55694Y-46120D01*
X55665Y-46148D01*
X55651Y-46191D01*
X55651Y-46220D01*
X55665Y-46262D01*
X55680Y-46277D01*
X55951Y-46562D02*
X55951Y-46391D01*
X55951Y-46477D02*
X55651Y-46477D01*
X55694Y-46448D01*
X55722Y-46420D01*
X55737Y-46391D01*
X55751Y-46820D02*
X55951Y-46820D01*
X55637Y-46748D02*
X55851Y-46677D01*
X55851Y-46862D01*
X56127Y-44862D02*
X56142Y-44877D01*
X56185Y-44891D01*
X56213Y-44891D01*
X56256Y-44877D01*
X56285Y-44848D01*
X56299Y-44820D01*
X56313Y-44762D01*
X56313Y-44720D01*
X56299Y-44662D01*
X56285Y-44634D01*
X56256Y-44605D01*
X56213Y-44591D01*
X56185Y-44591D01*
X56142Y-44605D01*
X56127Y-44620D01*
X56027Y-44591D02*
X55842Y-44591D01*
X55942Y-44705D01*
X55899Y-44705D01*
X55870Y-44720D01*
X55856Y-44734D01*
X55842Y-44762D01*
X55842Y-44834D01*
X55856Y-44862D01*
X55870Y-44877D01*
X55899Y-44891D01*
X55985Y-44891D01*
X56013Y-44877D01*
X56027Y-44862D01*
X55727Y-44620D02*
X55713Y-44605D01*
X55685Y-44591D01*
X55613Y-44591D01*
X55585Y-44605D01*
X55570Y-44620D01*
X55556Y-44648D01*
X55556Y-44677D01*
X55570Y-44720D01*
X55742Y-44891D01*
X55556Y-44891D01*
X63102Y-45237D02*
X63117Y-45222D01*
X63131Y-45180D01*
X63131Y-45151D01*
X63117Y-45108D01*
X63088Y-45080D01*
X63060Y-45065D01*
X63002Y-45051D01*
X62960Y-45051D01*
X62902Y-45065D01*
X62874Y-45080D01*
X62845Y-45108D01*
X62831Y-45151D01*
X62831Y-45180D01*
X62845Y-45222D01*
X62860Y-45237D01*
X63131Y-45522D02*
X63131Y-45351D01*
X63131Y-45437D02*
X62831Y-45437D01*
X62874Y-45408D01*
X62902Y-45380D01*
X62917Y-45351D01*
X62831Y-45794D02*
X62831Y-45651D01*
X62974Y-45637D01*
X62960Y-45651D01*
X62945Y-45680D01*
X62945Y-45751D01*
X62960Y-45780D01*
X62974Y-45794D01*
X63002Y-45808D01*
X63074Y-45808D01*
X63102Y-45794D01*
X63117Y-45780D01*
X63131Y-45751D01*
X63131Y-45680D01*
X63117Y-45651D01*
X63102Y-45637D01*
X63082Y-42917D02*
X63097Y-42902D01*
X63111Y-42860D01*
X63111Y-42831D01*
X63097Y-42788D01*
X63068Y-42760D01*
X63040Y-42745D01*
X62982Y-42731D01*
X62940Y-42731D01*
X62882Y-42745D01*
X62854Y-42760D01*
X62825Y-42788D01*
X62811Y-42831D01*
X62811Y-42860D01*
X62825Y-42902D01*
X62840Y-42917D01*
X63111Y-43202D02*
X63111Y-43031D01*
X63111Y-43117D02*
X62811Y-43117D01*
X62854Y-43088D01*
X62882Y-43060D01*
X62897Y-43031D01*
X62811Y-43460D02*
X62811Y-43402D01*
X62825Y-43374D01*
X62840Y-43360D01*
X62882Y-43331D01*
X62940Y-43317D01*
X63054Y-43317D01*
X63082Y-43331D01*
X63097Y-43345D01*
X63111Y-43374D01*
X63111Y-43431D01*
X63097Y-43460D01*
X63082Y-43474D01*
X63054Y-43488D01*
X62982Y-43488D01*
X62954Y-43474D01*
X62940Y-43460D01*
X62925Y-43431D01*
X62925Y-43374D01*
X62940Y-43345D01*
X62954Y-43331D01*
X62982Y-43317D01*
G54D14*
X60739Y-40487D02*
X60645Y-40421D01*
X60739Y-40374D02*
X60542Y-40374D01*
X60542Y-40449D01*
X60552Y-40468D01*
X60561Y-40477D01*
X60580Y-40487D01*
X60608Y-40487D01*
X60627Y-40477D01*
X60636Y-40468D01*
X60645Y-40449D01*
X60645Y-40374D01*
X60608Y-40656D02*
X60739Y-40656D01*
X60533Y-40609D02*
X60674Y-40562D01*
X60674Y-40684D01*
X53205Y-46078D02*
X53215Y-46068D01*
X53224Y-46040D01*
X53224Y-46022D01*
X53215Y-45993D01*
X53196Y-45975D01*
X53177Y-45965D01*
X53140Y-45956D01*
X53112Y-45956D01*
X53074Y-45965D01*
X53055Y-45975D01*
X53037Y-45993D01*
X53027Y-46022D01*
X53027Y-46040D01*
X53037Y-46068D01*
X53046Y-46078D01*
X53224Y-46265D02*
X53224Y-46153D01*
X53224Y-46209D02*
X53027Y-46209D01*
X53055Y-46190D01*
X53074Y-46172D01*
X53084Y-46153D01*
X53027Y-46331D02*
X53027Y-46453D01*
X53102Y-46387D01*
X53102Y-46416D01*
X53112Y-46434D01*
X53121Y-46444D01*
X53140Y-46453D01*
X53187Y-46453D01*
X53205Y-46444D01*
X53215Y-46434D01*
X53224Y-46416D01*
X53224Y-46359D01*
X53215Y-46341D01*
X53205Y-46331D01*
X56272Y-39195D02*
X56282Y-39205D01*
X56310Y-39214D01*
X56329Y-39214D01*
X56357Y-39205D01*
X56376Y-39186D01*
X56385Y-39167D01*
X56394Y-39130D01*
X56394Y-39102D01*
X56385Y-39064D01*
X56376Y-39045D01*
X56357Y-39027D01*
X56329Y-39017D01*
X56310Y-39017D01*
X56282Y-39027D01*
X56272Y-39036D01*
X56207Y-39017D02*
X56085Y-39017D01*
X56150Y-39092D01*
X56122Y-39092D01*
X56103Y-39102D01*
X56094Y-39111D01*
X56085Y-39130D01*
X56085Y-39177D01*
X56094Y-39195D01*
X56103Y-39205D01*
X56122Y-39214D01*
X56179Y-39214D01*
X56197Y-39205D01*
X56207Y-39195D01*
X60734Y-41852D02*
X60640Y-41786D01*
X60734Y-41739D02*
X60537Y-41739D01*
X60537Y-41814D01*
X60547Y-41833D01*
X60556Y-41842D01*
X60575Y-41852D01*
X60603Y-41852D01*
X60622Y-41842D01*
X60631Y-41833D01*
X60640Y-41814D01*
X60640Y-41739D01*
X60537Y-42030D02*
X60537Y-41936D01*
X60631Y-41927D01*
X60622Y-41936D01*
X60612Y-41955D01*
X60612Y-42002D01*
X60622Y-42021D01*
X60631Y-42030D01*
X60650Y-42039D01*
X60697Y-42039D01*
X60715Y-42030D01*
X60725Y-42021D01*
X60734Y-42002D01*
X60734Y-41955D01*
X60725Y-41936D01*
X60715Y-41927D01*
X58290Y-41197D02*
X58300Y-41187D01*
X58309Y-41159D01*
X58309Y-41140D01*
X58300Y-41112D01*
X58281Y-41093D01*
X58262Y-41084D01*
X58225Y-41075D01*
X58197Y-41075D01*
X58159Y-41084D01*
X58140Y-41093D01*
X58122Y-41112D01*
X58112Y-41140D01*
X58112Y-41159D01*
X58122Y-41187D01*
X58131Y-41197D01*
X58112Y-41366D02*
X58112Y-41328D01*
X58122Y-41309D01*
X58131Y-41300D01*
X58159Y-41281D01*
X58197Y-41272D01*
X58272Y-41272D01*
X58290Y-41281D01*
X58300Y-41290D01*
X58309Y-41309D01*
X58309Y-41347D01*
X58300Y-41366D01*
X58290Y-41375D01*
X58272Y-41384D01*
X58225Y-41384D01*
X58206Y-41375D01*
X58197Y-41366D01*
X58187Y-41347D01*
X58187Y-41309D01*
X58197Y-41290D01*
X58206Y-41281D01*
X58225Y-41272D01*
X59694Y-40382D02*
X59600Y-40316D01*
X59694Y-40269D02*
X59497Y-40269D01*
X59497Y-40344D01*
X59507Y-40363D01*
X59516Y-40372D01*
X59535Y-40382D01*
X59563Y-40382D01*
X59582Y-40372D01*
X59591Y-40363D01*
X59600Y-40344D01*
X59600Y-40269D01*
X59497Y-40447D02*
X59497Y-40569D01*
X59572Y-40504D01*
X59572Y-40532D01*
X59582Y-40551D01*
X59591Y-40560D01*
X59610Y-40569D01*
X59657Y-40569D01*
X59675Y-40560D01*
X59685Y-40551D01*
X59694Y-40532D01*
X59694Y-40475D01*
X59685Y-40457D01*
X59675Y-40447D01*
G54D15*
X60711Y-45124D02*
X60721Y-45115D01*
X60730Y-45090D01*
X60730Y-45072D01*
X60721Y-45047D01*
X60702Y-45030D01*
X60683Y-45021D01*
X60645Y-45012D01*
X60616Y-45012D01*
X60578Y-45021D01*
X60559Y-45030D01*
X60540Y-45047D01*
X60530Y-45072D01*
X60530Y-45090D01*
X60540Y-45115D01*
X60550Y-45124D01*
X60730Y-45295D02*
X60730Y-45192D01*
X60730Y-45244D02*
X60530Y-45244D01*
X60559Y-45227D01*
X60578Y-45210D01*
X60588Y-45192D01*
X60530Y-45355D02*
X60530Y-45475D01*
X60730Y-45398D01*
X60751Y-43024D02*
X60761Y-43015D01*
X60770Y-42990D01*
X60770Y-42972D01*
X60761Y-42947D01*
X60742Y-42930D01*
X60723Y-42921D01*
X60685Y-42912D01*
X60656Y-42912D01*
X60618Y-42921D01*
X60599Y-42930D01*
X60580Y-42947D01*
X60570Y-42972D01*
X60570Y-42990D01*
X60580Y-43015D01*
X60590Y-43024D01*
X60770Y-43195D02*
X60770Y-43092D01*
X60770Y-43144D02*
X60570Y-43144D01*
X60599Y-43127D01*
X60618Y-43110D01*
X60628Y-43092D01*
X60656Y-43298D02*
X60647Y-43281D01*
X60637Y-43272D01*
X60618Y-43264D01*
X60609Y-43264D01*
X60590Y-43272D01*
X60580Y-43281D01*
X60570Y-43298D01*
X60570Y-43332D01*
X60580Y-43350D01*
X60590Y-43358D01*
X60609Y-43367D01*
X60618Y-43367D01*
X60637Y-43358D01*
X60647Y-43350D01*
X60656Y-43332D01*
X60656Y-43298D01*
X60666Y-43281D01*
X60675Y-43272D01*
X60694Y-43264D01*
X60732Y-43264D01*
X60751Y-43272D01*
X60761Y-43281D01*
X60770Y-43298D01*
X60770Y-43332D01*
X60761Y-43350D01*
X60751Y-43358D01*
X60732Y-43367D01*
X60694Y-43367D01*
X60675Y-43358D01*
X60666Y-43350D01*
X60656Y-43332D01*
X60600Y-34544D02*
X60505Y-34484D01*
X60600Y-34441D02*
X60400Y-34441D01*
X60400Y-34510D01*
X60410Y-34527D01*
X60420Y-34535D01*
X60439Y-34544D01*
X60467Y-34544D01*
X60486Y-34535D01*
X60496Y-34527D01*
X60505Y-34510D01*
X60505Y-34441D01*
X60600Y-34715D02*
X60600Y-34612D01*
X60600Y-34664D02*
X60400Y-34664D01*
X60429Y-34647D01*
X60448Y-34630D01*
X60458Y-34612D01*
X60467Y-34870D02*
X60600Y-34870D01*
X60391Y-34827D02*
X60534Y-34784D01*
X60534Y-34895D01*
X58660Y-32604D02*
X58565Y-32544D01*
X58660Y-32501D02*
X58460Y-32501D01*
X58460Y-32570D01*
X58470Y-32587D01*
X58480Y-32595D01*
X58499Y-32604D01*
X58527Y-32604D01*
X58546Y-32595D01*
X58556Y-32587D01*
X58565Y-32570D01*
X58565Y-32501D01*
X58660Y-32775D02*
X58660Y-32672D01*
X58660Y-32724D02*
X58460Y-32724D01*
X58489Y-32707D01*
X58508Y-32690D01*
X58518Y-32672D01*
X58480Y-32844D02*
X58470Y-32852D01*
X58460Y-32870D01*
X58460Y-32912D01*
X58470Y-32930D01*
X58480Y-32938D01*
X58499Y-32947D01*
X58518Y-32947D01*
X58546Y-32938D01*
X58660Y-32835D01*
X58660Y-32947D01*
X64965Y-42360D02*
X65025Y-42265D01*
X65068Y-42360D02*
X65068Y-42160D01*
X65000Y-42160D01*
X64982Y-42170D01*
X64974Y-42180D01*
X64965Y-42199D01*
X64965Y-42227D01*
X64974Y-42246D01*
X64982Y-42256D01*
X65000Y-42265D01*
X65068Y-42265D01*
X64794Y-42360D02*
X64897Y-42360D01*
X64845Y-42360D02*
X64845Y-42160D01*
X64862Y-42189D01*
X64880Y-42208D01*
X64897Y-42218D01*
X64631Y-42160D02*
X64717Y-42160D01*
X64725Y-42256D01*
X64717Y-42246D01*
X64700Y-42237D01*
X64657Y-42237D01*
X64640Y-42246D01*
X64631Y-42256D01*
X64622Y-42275D01*
X64622Y-42322D01*
X64631Y-42341D01*
X64640Y-42351D01*
X64657Y-42360D01*
X64700Y-42360D01*
X64717Y-42351D01*
X64725Y-42341D01*
X66675Y-40310D02*
X66735Y-40215D01*
X66778Y-40310D02*
X66778Y-40110D01*
X66710Y-40110D01*
X66692Y-40120D01*
X66684Y-40130D01*
X66675Y-40149D01*
X66675Y-40177D01*
X66684Y-40196D01*
X66692Y-40206D01*
X66710Y-40215D01*
X66778Y-40215D01*
X66504Y-40310D02*
X66607Y-40310D01*
X66555Y-40310D02*
X66555Y-40110D01*
X66572Y-40139D01*
X66590Y-40158D01*
X66607Y-40168D01*
X66444Y-40110D02*
X66332Y-40110D01*
X66392Y-40187D01*
X66367Y-40187D01*
X66350Y-40196D01*
X66341Y-40206D01*
X66332Y-40225D01*
X66332Y-40272D01*
X66341Y-40291D01*
X66350Y-40301D01*
X66367Y-40310D01*
X66418Y-40310D01*
X66435Y-40301D01*
X66444Y-40291D01*
X59600Y-44041D02*
X59609Y-44051D01*
X59635Y-44060D01*
X59652Y-44060D01*
X59677Y-44051D01*
X59695Y-44032D01*
X59703Y-44013D01*
X59712Y-43975D01*
X59712Y-43946D01*
X59703Y-43908D01*
X59695Y-43889D01*
X59677Y-43870D01*
X59652Y-43860D01*
X59635Y-43860D01*
X59609Y-43870D01*
X59600Y-43880D01*
X59429Y-44060D02*
X59532Y-44060D01*
X59480Y-44060D02*
X59480Y-43860D01*
X59497Y-43889D01*
X59515Y-43908D01*
X59532Y-43918D01*
X59257Y-44060D02*
X59360Y-44060D01*
X59309Y-44060D02*
X59309Y-43860D01*
X59326Y-43889D01*
X59343Y-43908D01*
X59360Y-43918D01*
X55491Y-42745D02*
X55501Y-42736D01*
X55510Y-42710D01*
X55510Y-42693D01*
X55501Y-42667D01*
X55482Y-42650D01*
X55463Y-42642D01*
X55425Y-42633D01*
X55396Y-42633D01*
X55358Y-42642D01*
X55339Y-42650D01*
X55320Y-42667D01*
X55310Y-42693D01*
X55310Y-42710D01*
X55320Y-42736D01*
X55330Y-42745D01*
X55510Y-42830D02*
X55510Y-42865D01*
X55501Y-42882D01*
X55491Y-42890D01*
X55463Y-42907D01*
X55425Y-42916D01*
X55349Y-42916D01*
X55330Y-42907D01*
X55320Y-42899D01*
X55310Y-42882D01*
X55310Y-42847D01*
X55320Y-42830D01*
X55330Y-42822D01*
X55349Y-42813D01*
X55396Y-42813D01*
X55415Y-42822D01*
X55425Y-42830D01*
X55434Y-42847D01*
X55434Y-42882D01*
X55425Y-42899D01*
X55415Y-42907D01*
X55396Y-42916D01*
X56740Y-40870D02*
X56740Y-40784D01*
X56540Y-40784D01*
X56740Y-41024D02*
X56740Y-40921D01*
X56740Y-40972D02*
X56540Y-40972D01*
X56569Y-40955D01*
X56588Y-40938D01*
X56598Y-40921D01*
X57396Y-40880D02*
X57406Y-40871D01*
X57415Y-40845D01*
X57415Y-40828D01*
X57406Y-40802D01*
X57387Y-40785D01*
X57368Y-40777D01*
X57330Y-40768D01*
X57301Y-40768D01*
X57263Y-40777D01*
X57244Y-40785D01*
X57225Y-40802D01*
X57215Y-40828D01*
X57215Y-40845D01*
X57225Y-40871D01*
X57235Y-40880D01*
X57282Y-41034D02*
X57415Y-41034D01*
X57206Y-40991D02*
X57349Y-40948D01*
X57349Y-41060D01*
X58776Y-41620D02*
X58786Y-41611D01*
X58795Y-41585D01*
X58795Y-41568D01*
X58786Y-41542D01*
X58767Y-41525D01*
X58748Y-41517D01*
X58710Y-41508D01*
X58681Y-41508D01*
X58643Y-41517D01*
X58624Y-41525D01*
X58605Y-41542D01*
X58595Y-41568D01*
X58595Y-41585D01*
X58605Y-41611D01*
X58615Y-41620D01*
X58595Y-41782D02*
X58595Y-41697D01*
X58691Y-41688D01*
X58681Y-41697D01*
X58672Y-41714D01*
X58672Y-41757D01*
X58681Y-41774D01*
X58691Y-41782D01*
X58710Y-41791D01*
X58757Y-41791D01*
X58776Y-41782D01*
X58786Y-41774D01*
X58795Y-41757D01*
X58795Y-41714D01*
X58786Y-41697D01*
X58776Y-41688D01*
X55496Y-40185D02*
X55506Y-40176D01*
X55515Y-40150D01*
X55515Y-40133D01*
X55506Y-40107D01*
X55487Y-40090D01*
X55468Y-40082D01*
X55430Y-40073D01*
X55401Y-40073D01*
X55363Y-40082D01*
X55344Y-40090D01*
X55325Y-40107D01*
X55315Y-40133D01*
X55315Y-40150D01*
X55325Y-40176D01*
X55335Y-40185D01*
X55401Y-40287D02*
X55392Y-40270D01*
X55382Y-40262D01*
X55363Y-40253D01*
X55354Y-40253D01*
X55335Y-40262D01*
X55325Y-40270D01*
X55315Y-40287D01*
X55315Y-40322D01*
X55325Y-40339D01*
X55335Y-40347D01*
X55354Y-40356D01*
X55363Y-40356D01*
X55382Y-40347D01*
X55392Y-40339D01*
X55401Y-40322D01*
X55401Y-40287D01*
X55411Y-40270D01*
X55420Y-40262D01*
X55439Y-40253D01*
X55477Y-40253D01*
X55496Y-40262D01*
X55506Y-40270D01*
X55515Y-40287D01*
X55515Y-40322D01*
X55506Y-40339D01*
X55496Y-40347D01*
X55477Y-40356D01*
X55439Y-40356D01*
X55420Y-40347D01*
X55411Y-40339D01*
X55401Y-40322D01*
X61860Y-41375D02*
X62003Y-41375D01*
X62032Y-41366D01*
X62051Y-41349D01*
X62060Y-41323D01*
X62060Y-41306D01*
X62060Y-41460D02*
X61860Y-41460D01*
X61860Y-41529D01*
X61870Y-41546D01*
X61880Y-41555D01*
X61899Y-41563D01*
X61927Y-41563D01*
X61946Y-41555D01*
X61956Y-41546D01*
X61965Y-41529D01*
X61965Y-41460D01*
X62060Y-41735D02*
X62060Y-41632D01*
X62060Y-41683D02*
X61860Y-41683D01*
X61889Y-41666D01*
X61908Y-41649D01*
X61918Y-41632D01*
M02*
